<svg xmlns="http://www.w3.org/2000/svg" xmlns:xlink="http://www.w3.org/1999/xlink" width="500" zoomAndPan="magnify" viewBox="0 0 375 374.999991" height="500" preserveAspectRatio="xMidYMid meet" version="1.0"><defs><g/><clipPath id="73e7fd9430"><path d="M 139.792969 160 L 146 160 L 146 166 L 139.792969 166 Z M 139.792969 160 " clip-rule="nonzero"/></clipPath><clipPath id="786b887fb2"><rect x="0" width="206" y="0" height="14"/></clipPath><clipPath id="2c6d8ad491"><rect x="0" width="104" y="0" height="40"/></clipPath><clipPath id="2848f77ecc"><rect x="0" width="113" y="0" height="40"/></clipPath></defs><path fill="#ffffff" d="M 207.863281 190.589844 C 207.078125 190.589844 206.441406 189.953125 206.441406 189.167969 L 206.441406 180.933594 C 206.441406 180.796875 206.460938 180.667969 206.492188 180.546875 L 199.316406 171.34375 L 191.082031 171.34375 C 190.296875 171.34375 189.660156 170.707031 189.660156 169.921875 L 189.660156 161.6875 C 189.660156 160.902344 190.296875 160.265625 191.082031 160.265625 L 199.316406 160.265625 C 199.460938 160.265625 199.597656 160.285156 199.730469 160.324219 L 205.179688 153.203125 C 205.167969 153.121094 205.15625 153.039062 205.15625 152.953125 L 205.15625 144.714844 C 205.15625 144.691406 205.160156 144.667969 205.160156 144.644531 L 199.457031 136.5 L 192.570312 136.5 C 191.90625 136.5 191.367188 135.960938 191.367188 135.296875 L 191.367188 128.328125 C 191.367188 127.664062 191.90625 127.125 192.570312 127.125 L 199.535156 127.125 C 199.707031 127.125 199.871094 127.164062 200.019531 127.226562 L 205.296875 122.796875 C 203.992188 111.167969 186.472656 112.464844 186.472656 124.5 L 186.472656 204.050781 C 187.960938 213.371094 199.808594 213.882812 203.640625 205.089844 C 210.75 207.988281 219.464844 200.871094 218.148438 193.5 L 215.648438 190.589844 Z M 192.292969 146.085938 C 192.292969 145.300781 192.929688 144.664062 193.714844 144.664062 L 198.304688 144.664062 C 199.089844 144.664062 199.726562 145.300781 199.726562 146.085938 L 199.726562 150.675781 C 199.726562 151.460938 199.089844 152.097656 198.304688 152.097656 L 193.714844 152.097656 C 192.929688 152.097656 192.292969 151.460938 192.292969 150.675781 Z M 194.925781 201.554688 C 194.925781 202.339844 194.289062 202.976562 193.503906 202.976562 L 191.082031 202.976562 C 190.296875 202.976562 189.660156 202.339844 189.660156 201.554688 L 189.660156 199.132812 C 189.660156 198.347656 190.296875 197.710938 191.082031 197.710938 L 193.503906 197.710938 C 194.289062 197.710938 194.925781 198.347656 194.925781 199.132812 Z M 207.792969 197.347656 C 207.792969 198.132812 207.15625 198.769531 206.371094 198.769531 L 203.945312 198.769531 C 203.160156 198.769531 202.523438 198.132812 202.523438 197.347656 L 202.523438 194.921875 C 202.523438 194.789062 202.542969 194.660156 202.578125 194.535156 L 198.359375 189.765625 C 198.339844 189.765625 198.324219 189.769531 198.304688 189.769531 L 193.714844 189.769531 C 192.929688 189.769531 192.292969 189.132812 192.292969 188.347656 L 192.292969 183.757812 C 192.292969 182.96875 192.929688 182.332031 193.714844 182.332031 L 198.304688 182.332031 C 199.089844 182.332031 199.726562 182.96875 199.726562 183.757812 L 199.726562 188.347656 C 199.726562 188.542969 199.6875 188.730469 199.617188 188.898438 L 203.707031 193.523438 C 203.785156 193.507812 203.863281 193.5 203.945312 193.5 L 206.371094 193.5 C 207.15625 193.5 207.792969 194.136719 207.792969 194.921875 Z M 207.792969 197.347656 " fill-opacity="1" fill-rule="nonzero"/><path fill="#ffffff" d="M 224.136719 174.242188 L 221.710938 174.242188 C 220.925781 174.242188 220.289062 173.605469 220.289062 172.820312 L 220.289062 170.398438 C 220.289062 169.613281 220.925781 168.976562 221.710938 168.976562 L 224.136719 168.976562 C 224.921875 168.976562 225.558594 169.613281 225.558594 170.398438 L 225.558594 172.714844 L 228.113281 174.355469 C 235.199219 170.667969 234.003906 159.089844 227.25 156.351562 L 218.105469 163.085938 L 218.105469 167.554688 C 218.105469 168.339844 217.46875 168.976562 216.683594 168.976562 L 212.09375 168.976562 C 211.308594 168.976562 210.667969 168.339844 210.667969 167.554688 L 210.667969 162.960938 C 210.667969 162.175781 211.308594 161.539062 212.09375 161.539062 L 216.683594 161.539062 C 216.941406 161.539062 217.183594 161.609375 217.390625 161.730469 L 227.734375 154.109375 C 230.015625 149.757812 229.261719 140.949219 220.507812 139.359375 L 216.175781 144.304688 C 216.214844 144.433594 216.238281 144.570312 216.238281 144.714844 L 216.238281 152.953125 C 216.238281 153.738281 215.601562 154.375 214.816406 154.375 L 206.582031 154.375 C 206.460938 154.375 206.34375 154.355469 206.230469 154.328125 L 200.726562 161.515625 C 200.734375 161.574219 200.738281 161.628906 200.738281 161.6875 L 200.738281 169.921875 C 200.738281 170.136719 200.691406 170.34375 200.601562 170.527344 L 207.625 179.53125 C 207.703125 179.519531 207.78125 179.507812 207.863281 179.507812 L 216.097656 179.507812 C 216.882812 179.507812 217.519531 180.144531 217.519531 180.933594 L 217.519531 189.167969 C 217.519531 189.507812 217.398438 189.824219 217.199219 190.066406 L 218.824219 191.960938 C 225.652344 192.625 232.871094 183.671875 228.578125 176.457031 L 224.839844 174.054688 C 224.632812 174.175781 224.390625 174.242188 224.136719 174.242188 Z M 224.136719 174.242188 " fill-opacity="1" fill-rule="nonzero"/><path fill="#ffffff" d="M 200.738281 135.296875 C 200.738281 135.410156 200.722656 135.519531 200.691406 135.621094 L 206.121094 143.371094 C 206.265625 143.320312 206.417969 143.292969 206.582031 143.292969 L 214.816406 143.292969 C 214.890625 143.292969 214.960938 143.300781 215.027344 143.3125 L 220.277344 137.320312 C 222.417969 129.527344 214.453125 121.664062 206.363281 123.882812 L 200.738281 128.605469 Z M 208.5625 132.28125 C 208.5625 131.496094 209.199219 130.859375 209.984375 130.859375 L 212.40625 130.859375 C 213.195312 130.859375 213.832031 131.496094 213.832031 132.28125 L 213.832031 134.707031 C 213.832031 135.492188 213.195312 136.128906 212.40625 136.128906 L 209.984375 136.128906 C 209.199219 136.128906 208.5625 135.492188 208.5625 134.707031 Z M 208.5625 132.28125 " fill-opacity="1" fill-rule="nonzero"/><path fill="#ffffff" d="M 143.980469 162.21875 L 186.601562 162.21875 L 186.601562 163.894531 L 143.980469 163.894531 Z M 143.980469 162.21875 " fill-opacity="1" fill-rule="nonzero"/><path fill="#ffffff" d="M 186.601562 155.613281 L 163.265625 155.613281 L 157.976562 146.457031 L 145.886719 146.457031 L 145.886719 144.785156 L 158.945312 144.785156 L 164.230469 153.941406 L 186.601562 153.941406 Z M 186.601562 155.613281 " fill-opacity="1" fill-rule="nonzero"/><path fill="#ffffff" d="M 158.945312 181.328125 L 145.886719 181.328125 L 145.886719 179.65625 L 157.976562 179.65625 L 163.265625 170.5 L 186.601562 170.5 L 186.601562 172.171875 L 164.230469 172.171875 Z M 158.945312 181.328125 " fill-opacity="1" fill-rule="nonzero"/><path fill="#ffffff" d="M 186.601562 143.195312 L 173.511719 143.195312 L 166.203125 130.535156 L 155.125 130.535156 L 155.125 128.863281 L 167.167969 128.863281 L 174.476562 141.523438 L 186.601562 141.523438 Z M 186.601562 143.195312 " fill-opacity="1" fill-rule="nonzero"/><path fill="#ffffff" d="M 167.167969 197.25 L 155.125 197.25 L 155.125 195.578125 L 166.203125 195.578125 L 173.511719 182.917969 L 186.601562 182.917969 L 186.601562 184.589844 L 174.476562 184.589844 Z M 167.167969 197.25 " fill-opacity="1" fill-rule="nonzero"/><path fill="#ffffff" d="M 144.558594 147.371094 L 144.558594 143.867188 C 144.558594 143.3125 145.007812 142.863281 145.5625 142.863281 L 149.066406 142.863281 C 149.621094 142.863281 150.070312 143.3125 150.070312 143.867188 L 150.070312 147.371094 C 150.070312 147.925781 149.621094 148.375 149.066406 148.375 L 145.5625 148.375 C 145.007812 148.375 144.558594 147.925781 144.558594 147.371094 Z M 144.558594 147.371094 " fill-opacity="1" fill-rule="nonzero"/><path fill="#ffffff" d="M 144.558594 182.246094 L 144.558594 178.742188 C 144.558594 178.1875 145.007812 177.738281 145.5625 177.738281 L 149.066406 177.738281 C 149.621094 177.738281 150.070312 178.1875 150.070312 178.742188 L 150.070312 182.246094 C 150.070312 182.800781 149.621094 183.25 149.066406 183.25 L 145.5625 183.25 C 145.007812 183.25 144.558594 182.800781 144.558594 182.246094 Z M 144.558594 182.246094 " fill-opacity="1" fill-rule="nonzero"/><g clip-path="url(#73e7fd9430)"><path fill="#ffffff" d="M 139.796875 164.808594 L 139.796875 161.304688 C 139.796875 160.75 140.246094 160.300781 140.800781 160.300781 L 144.304688 160.300781 C 144.859375 160.300781 145.308594 160.75 145.308594 161.304688 L 145.308594 164.808594 C 145.308594 165.363281 144.859375 165.8125 144.304688 165.8125 L 140.800781 165.8125 C 140.246094 165.8125 139.796875 165.363281 139.796875 164.808594 Z M 139.796875 164.808594 " fill-opacity="1" fill-rule="nonzero"/></g><path fill="#ffffff" d="M 153.792969 131.449219 L 153.792969 127.949219 C 153.792969 127.394531 154.242188 126.941406 154.796875 126.941406 L 158.300781 126.941406 C 158.855469 126.941406 159.304688 127.394531 159.304688 127.949219 L 159.304688 131.449219 C 159.304688 132.003906 158.855469 132.453125 158.300781 132.453125 L 154.796875 132.453125 C 154.242188 132.453125 153.792969 132.003906 153.792969 131.449219 Z M 153.792969 131.449219 " fill-opacity="1" fill-rule="nonzero"/><path fill="#ffffff" d="M 153.792969 198.164062 L 153.792969 194.664062 C 153.792969 194.109375 154.242188 193.660156 154.796875 193.660156 L 158.300781 193.660156 C 158.855469 193.660156 159.304688 194.109375 159.304688 194.664062 L 159.304688 198.164062 C 159.304688 198.71875 158.855469 199.171875 158.300781 199.171875 L 154.796875 199.171875 C 154.242188 199.171875 153.792969 198.71875 153.792969 198.164062 Z M 153.792969 198.164062 " fill-opacity="1" fill-rule="nonzero"/><g transform="matrix(1, 0, 0, 1, 110, 253)"><g clip-path="url(#786b887fb2)"><g fill="#ffffff" fill-opacity="1"><g transform="translate(1.277139, 11.339708)"><g><path d="M 9.046875 -1.96875 C 9.046875 -1.695312 8.992188 -1.457031 8.890625 -1.25 C 8.796875 -1.039062 8.660156 -0.859375 8.484375 -0.703125 C 8.316406 -0.546875 8.113281 -0.414062 7.875 -0.3125 C 7.632812 -0.207031 7.375 -0.117188 7.09375 -0.046875 C 6.820312 0.015625 6.523438 0.0546875 6.203125 0.078125 C 5.890625 0.109375 5.570312 0.125 5.25 0.125 C 4.800781 0.125 4.351562 0.0976562 3.90625 0.046875 C 3.457031 0.00390625 3.035156 -0.046875 2.640625 -0.109375 C 2.253906 -0.179688 1.910156 -0.257812 1.609375 -0.34375 C 1.316406 -0.425781 1.09375 -0.503906 0.9375 -0.578125 C 0.882812 -0.597656 0.84375 -0.628906 0.8125 -0.671875 C 0.789062 -0.722656 0.78125 -0.769531 0.78125 -0.8125 C 0.78125 -0.863281 0.789062 -0.90625 0.8125 -0.9375 C 0.84375 -0.976562 0.882812 -1 0.9375 -1 C 0.957031 -1 0.988281 -0.992188 1.03125 -0.984375 C 1.195312 -0.910156 1.429688 -0.832031 1.734375 -0.75 C 2.046875 -0.675781 2.394531 -0.601562 2.78125 -0.53125 C 3.175781 -0.46875 3.59375 -0.410156 4.03125 -0.359375 C 4.476562 -0.316406 4.914062 -0.296875 5.34375 -0.296875 C 5.769531 -0.296875 6.171875 -0.320312 6.546875 -0.375 C 6.929688 -0.425781 7.269531 -0.515625 7.5625 -0.640625 C 7.851562 -0.773438 8.082031 -0.953125 8.25 -1.171875 C 8.425781 -1.390625 8.515625 -1.65625 8.515625 -1.96875 C 8.515625 -2.238281 8.441406 -2.457031 8.296875 -2.625 C 8.148438 -2.800781 7.953125 -2.941406 7.703125 -3.046875 C 7.453125 -3.148438 7.160156 -3.226562 6.828125 -3.28125 C 6.492188 -3.332031 6.140625 -3.367188 5.765625 -3.390625 C 5.390625 -3.421875 5 -3.441406 4.59375 -3.453125 C 4.195312 -3.472656 3.8125 -3.5 3.4375 -3.53125 C 3.070312 -3.5625 2.722656 -3.609375 2.390625 -3.671875 C 2.054688 -3.734375 1.765625 -3.828125 1.515625 -3.953125 C 1.265625 -4.078125 1.066406 -4.234375 0.921875 -4.421875 C 0.773438 -4.617188 0.703125 -4.867188 0.703125 -5.171875 C 0.703125 -5.441406 0.75 -5.675781 0.84375 -5.875 C 0.945312 -6.082031 1.085938 -6.257812 1.265625 -6.40625 C 1.441406 -6.5625 1.648438 -6.6875 1.890625 -6.78125 C 2.140625 -6.882812 2.40625 -6.96875 2.6875 -7.03125 C 2.976562 -7.09375 3.28125 -7.132812 3.59375 -7.15625 C 3.90625 -7.1875 4.222656 -7.203125 4.546875 -7.203125 C 4.929688 -7.203125 5.3125 -7.179688 5.6875 -7.140625 C 6.070312 -7.109375 6.429688 -7.0625 6.765625 -7 C 7.097656 -6.9375 7.398438 -6.867188 7.671875 -6.796875 C 7.941406 -6.722656 8.15625 -6.644531 8.3125 -6.5625 C 8.34375 -6.550781 8.363281 -6.53125 8.375 -6.5 C 8.394531 -6.46875 8.40625 -6.429688 8.40625 -6.390625 C 8.40625 -6.335938 8.382812 -6.285156 8.34375 -6.234375 C 8.3125 -6.179688 8.257812 -6.15625 8.1875 -6.15625 C 8.144531 -6.15625 8.109375 -6.164062 8.078125 -6.1875 C 7.847656 -6.28125 7.597656 -6.363281 7.328125 -6.4375 C 7.054688 -6.507812 6.769531 -6.566406 6.46875 -6.609375 C 6.164062 -6.660156 5.851562 -6.703125 5.53125 -6.734375 C 5.207031 -6.765625 4.882812 -6.78125 4.5625 -6.78125 C 4.125 -6.78125 3.703125 -6.753906 3.296875 -6.703125 C 2.898438 -6.648438 2.546875 -6.5625 2.234375 -6.4375 C 1.929688 -6.320312 1.6875 -6.160156 1.5 -5.953125 C 1.320312 -5.753906 1.234375 -5.503906 1.234375 -5.203125 C 1.234375 -4.972656 1.304688 -4.785156 1.453125 -4.640625 C 1.597656 -4.492188 1.796875 -4.375 2.046875 -4.28125 C 2.296875 -4.195312 2.585938 -4.128906 2.921875 -4.078125 C 3.253906 -4.035156 3.609375 -4 3.984375 -3.96875 C 4.359375 -3.945312 4.742188 -3.925781 5.140625 -3.90625 C 5.535156 -3.894531 5.921875 -3.863281 6.296875 -3.8125 C 6.671875 -3.769531 7.023438 -3.707031 7.359375 -3.625 C 7.691406 -3.550781 7.984375 -3.441406 8.234375 -3.296875 C 8.484375 -3.160156 8.679688 -2.984375 8.828125 -2.765625 C 8.972656 -2.554688 9.046875 -2.289062 9.046875 -1.96875 Z M 9.046875 -1.96875 "/></g></g></g><g fill="#ffffff" fill-opacity="1"><g transform="translate(14.3971, 11.339708)"><g><path d="M 10.09375 -3.53125 C 10.09375 -2.914062 10 -2.378906 9.8125 -1.921875 C 9.632812 -1.460938 9.351562 -1.078125 8.96875 -0.765625 C 8.582031 -0.460938 8.097656 -0.234375 7.515625 -0.078125 C 6.929688 0.0664062 6.238281 0.140625 5.4375 0.140625 C 4.632812 0.140625 3.9375 0.0664062 3.34375 -0.078125 C 2.757812 -0.234375 2.273438 -0.460938 1.890625 -0.765625 C 1.515625 -1.078125 1.234375 -1.460938 1.046875 -1.921875 C 0.867188 -2.378906 0.78125 -2.914062 0.78125 -3.53125 C 0.78125 -4.144531 0.867188 -4.679688 1.046875 -5.140625 C 1.234375 -5.597656 1.515625 -5.976562 1.890625 -6.28125 C 2.273438 -6.59375 2.757812 -6.820312 3.34375 -6.96875 C 3.9375 -7.125 4.632812 -7.203125 5.4375 -7.203125 C 6.238281 -7.203125 6.929688 -7.125 7.515625 -6.96875 C 8.097656 -6.820312 8.582031 -6.59375 8.96875 -6.28125 C 9.351562 -5.976562 9.632812 -5.597656 9.8125 -5.140625 C 10 -4.679688 10.09375 -4.144531 10.09375 -3.53125 Z M 1.3125 -3.53125 C 1.3125 -2.9375 1.394531 -2.429688 1.5625 -2.015625 C 1.738281 -1.609375 1.992188 -1.273438 2.328125 -1.015625 C 2.671875 -0.765625 3.097656 -0.578125 3.609375 -0.453125 C 4.128906 -0.335938 4.738281 -0.28125 5.4375 -0.28125 C 6.125 -0.28125 6.722656 -0.335938 7.234375 -0.453125 C 7.753906 -0.578125 8.1875 -0.765625 8.53125 -1.015625 C 8.875 -1.273438 9.128906 -1.609375 9.296875 -2.015625 C 9.460938 -2.429688 9.546875 -2.9375 9.546875 -3.53125 C 9.546875 -4.113281 9.460938 -4.613281 9.296875 -5.03125 C 9.128906 -5.445312 8.875 -5.78125 8.53125 -6.03125 C 8.1875 -6.289062 7.753906 -6.476562 7.234375 -6.59375 C 6.722656 -6.71875 6.125 -6.78125 5.4375 -6.78125 C 4.738281 -6.78125 4.128906 -6.71875 3.609375 -6.59375 C 3.097656 -6.476562 2.671875 -6.289062 2.328125 -6.03125 C 1.992188 -5.78125 1.738281 -5.445312 1.5625 -5.03125 C 1.394531 -4.613281 1.3125 -4.113281 1.3125 -3.53125 Z M 1.3125 -3.53125 "/></g></g></g><g fill="#ffffff" fill-opacity="1"><g transform="translate(28.625724, 11.339708)"><g><path d="M 1.28125 0 C 1.207031 0 1.15625 0 1.125 0 C 1.09375 -0.0078125 1.066406 -0.0195312 1.046875 -0.03125 C 1.023438 -0.0507812 1.015625 -0.078125 1.015625 -0.109375 C 1.015625 -0.140625 1.015625 -0.179688 1.015625 -0.234375 L 1.015625 -6.65625 C 1.015625 -6.757812 1.03125 -6.851562 1.0625 -6.9375 C 1.101562 -7.019531 1.1875 -7.0625 1.3125 -7.0625 C 1.414062 -7.0625 1.476562 -7.015625 1.5 -6.921875 C 1.53125 -6.835938 1.546875 -6.75 1.546875 -6.65625 L 1.546875 -0.421875 L 7 -0.421875 C 7.082031 -0.421875 7.144531 -0.394531 7.1875 -0.34375 C 7.238281 -0.300781 7.265625 -0.253906 7.265625 -0.203125 C 7.265625 -0.148438 7.238281 -0.101562 7.1875 -0.0625 C 7.144531 -0.0195312 7.082031 0 7 0 Z M 1.28125 0 "/></g></g></g><g fill="#ffffff" fill-opacity="1"><g transform="translate(39.243274, 11.339708)"><g><path d="M 5.03125 -0.28125 C 5.71875 -0.28125 6.289062 -0.347656 6.75 -0.484375 C 7.21875 -0.617188 7.585938 -0.820312 7.859375 -1.09375 C 8.140625 -1.363281 8.335938 -1.703125 8.453125 -2.109375 C 8.566406 -2.515625 8.625 -2.992188 8.625 -3.546875 L 8.625 -6.625 C 8.625 -6.726562 8.640625 -6.828125 8.671875 -6.921875 C 8.703125 -7.015625 8.769531 -7.0625 8.875 -7.0625 C 8.945312 -7.0625 9 -7.046875 9.03125 -7.015625 C 9.0625 -6.992188 9.085938 -6.960938 9.109375 -6.921875 C 9.128906 -6.878906 9.140625 -6.832031 9.140625 -6.78125 C 9.148438 -6.726562 9.15625 -6.675781 9.15625 -6.625 L 9.15625 -3.546875 C 9.15625 -2.890625 9.066406 -2.328125 8.890625 -1.859375 C 8.722656 -1.390625 8.46875 -1.003906 8.125 -0.703125 C 7.789062 -0.410156 7.363281 -0.195312 6.84375 -0.0625 C 6.320312 0.0703125 5.71875 0.140625 5.03125 0.140625 C 4.34375 0.140625 3.738281 0.0703125 3.21875 -0.0625 C 2.707031 -0.195312 2.273438 -0.410156 1.921875 -0.703125 C 1.578125 -1.003906 1.316406 -1.390625 1.140625 -1.859375 C 0.972656 -2.328125 0.890625 -2.890625 0.890625 -3.546875 L 0.890625 -6.625 C 0.890625 -6.675781 0.890625 -6.726562 0.890625 -6.78125 C 0.898438 -6.832031 0.914062 -6.878906 0.9375 -6.921875 C 0.957031 -6.960938 0.984375 -6.992188 1.015625 -7.015625 C 1.054688 -7.046875 1.109375 -7.0625 1.171875 -7.0625 C 1.285156 -7.0625 1.359375 -7.015625 1.390625 -6.921875 C 1.421875 -6.828125 1.4375 -6.726562 1.4375 -6.625 L 1.4375 -3.546875 C 1.4375 -2.992188 1.492188 -2.515625 1.609375 -2.109375 C 1.722656 -1.703125 1.914062 -1.363281 2.1875 -1.09375 C 2.46875 -0.820312 2.835938 -0.617188 3.296875 -0.484375 C 3.765625 -0.347656 4.34375 -0.28125 5.03125 -0.28125 Z M 5.03125 -0.28125 "/></g></g></g><g fill="#ffffff" fill-opacity="1"><g transform="translate(52.654655, 11.339708)"><g><path d="M 8.40625 -6.828125 C 8.40625 -6.742188 8.375 -6.691406 8.3125 -6.671875 C 8.25 -6.648438 8.171875 -6.640625 8.078125 -6.640625 L 4.546875 -6.640625 L 4.546875 -0.46875 C 4.546875 -0.40625 4.539062 -0.34375 4.53125 -0.28125 C 4.53125 -0.226562 4.519531 -0.179688 4.5 -0.140625 C 4.476562 -0.0976562 4.453125 -0.0625 4.421875 -0.03125 C 4.390625 -0.0078125 4.335938 0 4.265625 0 C 4.160156 0 4.085938 -0.046875 4.046875 -0.140625 C 4.015625 -0.234375 4 -0.34375 4 -0.46875 L 4 -6.640625 L 0.453125 -6.640625 C 0.359375 -6.640625 0.273438 -6.648438 0.203125 -6.671875 C 0.140625 -6.691406 0.109375 -6.742188 0.109375 -6.828125 C 0.109375 -6.890625 0.125 -6.9375 0.15625 -6.96875 C 0.1875 -7 0.222656 -7.019531 0.265625 -7.03125 C 0.316406 -7.050781 0.367188 -7.0625 0.421875 -7.0625 C 0.472656 -7.0625 0.523438 -7.0625 0.578125 -7.0625 L 7.9375 -7.0625 C 8.007812 -7.0625 8.070312 -7.0625 8.125 -7.0625 C 8.175781 -7.0625 8.222656 -7.050781 8.265625 -7.03125 C 8.304688 -7.019531 8.335938 -7 8.359375 -6.96875 C 8.390625 -6.9375 8.40625 -6.890625 8.40625 -6.828125 Z M 8.40625 -6.828125 "/></g></g></g><g fill="#ffffff" fill-opacity="1"><g transform="translate(64.526578, 11.339708)"><g><path d="M 3 -6.640625 L 0.734375 -6.640625 C 0.679688 -6.640625 0.625 -6.640625 0.5625 -6.640625 C 0.507812 -6.640625 0.460938 -6.644531 0.421875 -6.65625 C 0.378906 -6.675781 0.34375 -6.695312 0.3125 -6.71875 C 0.28125 -6.75 0.265625 -6.789062 0.265625 -6.84375 C 0.265625 -6.90625 0.28125 -6.953125 0.3125 -6.984375 C 0.34375 -7.015625 0.378906 -7.035156 0.421875 -7.046875 C 0.472656 -7.054688 0.523438 -7.0625 0.578125 -7.0625 C 0.628906 -7.0625 0.679688 -7.0625 0.734375 -7.0625 L 5.796875 -7.0625 C 5.859375 -7.0625 5.914062 -7.0625 5.96875 -7.0625 C 6.03125 -7.0625 6.082031 -7.054688 6.125 -7.046875 C 6.164062 -7.035156 6.195312 -7.015625 6.21875 -6.984375 C 6.238281 -6.953125 6.25 -6.910156 6.25 -6.859375 C 6.25 -6.796875 6.238281 -6.75 6.21875 -6.71875 C 6.195312 -6.695312 6.164062 -6.675781 6.125 -6.65625 C 6.082031 -6.644531 6.03125 -6.640625 5.96875 -6.640625 C 5.914062 -6.640625 5.859375 -6.640625 5.796875 -6.640625 L 3.53125 -6.640625 L 3.53125 -0.421875 L 5.796875 -0.421875 C 5.859375 -0.421875 5.914062 -0.421875 5.96875 -0.421875 C 6.03125 -0.421875 6.082031 -0.410156 6.125 -0.390625 C 6.164062 -0.378906 6.195312 -0.359375 6.21875 -0.328125 C 6.238281 -0.304688 6.25 -0.265625 6.25 -0.203125 C 6.25 -0.148438 6.238281 -0.109375 6.21875 -0.078125 C 6.195312 -0.046875 6.164062 -0.0234375 6.125 -0.015625 C 6.082031 -0.00390625 6.03125 0 5.96875 0 C 5.914062 0 5.859375 0 5.796875 0 L 0.734375 0 C 0.679688 0 0.628906 0 0.578125 0 C 0.523438 0 0.472656 -0.00390625 0.421875 -0.015625 C 0.378906 -0.0234375 0.34375 -0.046875 0.3125 -0.078125 C 0.28125 -0.109375 0.265625 -0.15625 0.265625 -0.21875 C 0.265625 -0.269531 0.28125 -0.304688 0.3125 -0.328125 C 0.34375 -0.359375 0.378906 -0.378906 0.421875 -0.390625 C 0.460938 -0.410156 0.507812 -0.421875 0.5625 -0.421875 C 0.625 -0.421875 0.679688 -0.421875 0.734375 -0.421875 L 3 -0.421875 Z M 3 -6.640625 "/></g></g></g><g fill="#ffffff" fill-opacity="1"><g transform="translate(74.421913, 11.339708)"><g><path d="M 10.09375 -3.53125 C 10.09375 -2.914062 10 -2.378906 9.8125 -1.921875 C 9.632812 -1.460938 9.351562 -1.078125 8.96875 -0.765625 C 8.582031 -0.460938 8.097656 -0.234375 7.515625 -0.078125 C 6.929688 0.0664062 6.238281 0.140625 5.4375 0.140625 C 4.632812 0.140625 3.9375 0.0664062 3.34375 -0.078125 C 2.757812 -0.234375 2.273438 -0.460938 1.890625 -0.765625 C 1.515625 -1.078125 1.234375 -1.460938 1.046875 -1.921875 C 0.867188 -2.378906 0.78125 -2.914062 0.78125 -3.53125 C 0.78125 -4.144531 0.867188 -4.679688 1.046875 -5.140625 C 1.234375 -5.597656 1.515625 -5.976562 1.890625 -6.28125 C 2.273438 -6.59375 2.757812 -6.820312 3.34375 -6.96875 C 3.9375 -7.125 4.632812 -7.203125 5.4375 -7.203125 C 6.238281 -7.203125 6.929688 -7.125 7.515625 -6.96875 C 8.097656 -6.820312 8.582031 -6.59375 8.96875 -6.28125 C 9.351562 -5.976562 9.632812 -5.597656 9.8125 -5.140625 C 10 -4.679688 10.09375 -4.144531 10.09375 -3.53125 Z M 1.3125 -3.53125 C 1.3125 -2.9375 1.394531 -2.429688 1.5625 -2.015625 C 1.738281 -1.609375 1.992188 -1.273438 2.328125 -1.015625 C 2.671875 -0.765625 3.097656 -0.578125 3.609375 -0.453125 C 4.128906 -0.335938 4.738281 -0.28125 5.4375 -0.28125 C 6.125 -0.28125 6.722656 -0.335938 7.234375 -0.453125 C 7.753906 -0.578125 8.1875 -0.765625 8.53125 -1.015625 C 8.875 -1.273438 9.128906 -1.609375 9.296875 -2.015625 C 9.460938 -2.429688 9.546875 -2.9375 9.546875 -3.53125 C 9.546875 -4.113281 9.460938 -4.613281 9.296875 -5.03125 C 9.128906 -5.445312 8.875 -5.78125 8.53125 -6.03125 C 8.1875 -6.289062 7.753906 -6.476562 7.234375 -6.59375 C 6.722656 -6.71875 6.125 -6.78125 5.4375 -6.78125 C 4.738281 -6.78125 4.128906 -6.71875 3.609375 -6.59375 C 3.097656 -6.476562 2.671875 -6.289062 2.328125 -6.03125 C 1.992188 -5.78125 1.738281 -5.445312 1.5625 -5.03125 C 1.394531 -4.613281 1.3125 -4.113281 1.3125 -3.53125 Z M 1.3125 -3.53125 "/></g></g></g><g fill="#ffffff" fill-opacity="1"><g transform="translate(88.650537, 11.339708)"><g><path d="M 8.125 -0.8125 L 8.125 -6.578125 C 8.125 -6.640625 8.125 -6.695312 8.125 -6.75 C 8.132812 -6.8125 8.148438 -6.863281 8.171875 -6.90625 C 8.191406 -6.957031 8.21875 -6.992188 8.25 -7.015625 C 8.289062 -7.046875 8.34375 -7.0625 8.40625 -7.0625 C 8.507812 -7.0625 8.578125 -7.015625 8.609375 -6.921875 C 8.648438 -6.828125 8.671875 -6.710938 8.671875 -6.578125 L 8.671875 -0.40625 C 8.671875 -0.132812 8.597656 0 8.453125 0 C 8.359375 0 8.238281 -0.0664062 8.09375 -0.203125 L 1.546875 -6.25 L 1.546875 -0.4375 C 1.546875 -0.320312 1.53125 -0.21875 1.5 -0.125 C 1.46875 -0.0390625 1.398438 0 1.296875 0 C 1.171875 0 1.09375 -0.0390625 1.0625 -0.125 C 1.03125 -0.21875 1.015625 -0.320312 1.015625 -0.4375 L 1.015625 -6.65625 C 1.015625 -6.78125 1.035156 -6.875 1.078125 -6.9375 C 1.128906 -7.007812 1.195312 -7.046875 1.28125 -7.046875 C 1.382812 -7.046875 1.503906 -6.984375 1.640625 -6.859375 Z M 8.125 -0.8125 "/></g></g></g><g fill="#ffffff" fill-opacity="1"><g transform="translate(101.68814, 11.339708)"><g><path d="M 9.046875 -1.96875 C 9.046875 -1.695312 8.992188 -1.457031 8.890625 -1.25 C 8.796875 -1.039062 8.660156 -0.859375 8.484375 -0.703125 C 8.316406 -0.546875 8.113281 -0.414062 7.875 -0.3125 C 7.632812 -0.207031 7.375 -0.117188 7.09375 -0.046875 C 6.820312 0.015625 6.523438 0.0546875 6.203125 0.078125 C 5.890625 0.109375 5.570312 0.125 5.25 0.125 C 4.800781 0.125 4.351562 0.0976562 3.90625 0.046875 C 3.457031 0.00390625 3.035156 -0.046875 2.640625 -0.109375 C 2.253906 -0.179688 1.910156 -0.257812 1.609375 -0.34375 C 1.316406 -0.425781 1.09375 -0.503906 0.9375 -0.578125 C 0.882812 -0.597656 0.84375 -0.628906 0.8125 -0.671875 C 0.789062 -0.722656 0.78125 -0.769531 0.78125 -0.8125 C 0.78125 -0.863281 0.789062 -0.90625 0.8125 -0.9375 C 0.84375 -0.976562 0.882812 -1 0.9375 -1 C 0.957031 -1 0.988281 -0.992188 1.03125 -0.984375 C 1.195312 -0.910156 1.429688 -0.832031 1.734375 -0.75 C 2.046875 -0.675781 2.394531 -0.601562 2.78125 -0.53125 C 3.175781 -0.46875 3.59375 -0.410156 4.03125 -0.359375 C 4.476562 -0.316406 4.914062 -0.296875 5.34375 -0.296875 C 5.769531 -0.296875 6.171875 -0.320312 6.546875 -0.375 C 6.929688 -0.425781 7.269531 -0.515625 7.5625 -0.640625 C 7.851562 -0.773438 8.082031 -0.953125 8.25 -1.171875 C 8.425781 -1.390625 8.515625 -1.65625 8.515625 -1.96875 C 8.515625 -2.238281 8.441406 -2.457031 8.296875 -2.625 C 8.148438 -2.800781 7.953125 -2.941406 7.703125 -3.046875 C 7.453125 -3.148438 7.160156 -3.226562 6.828125 -3.28125 C 6.492188 -3.332031 6.140625 -3.367188 5.765625 -3.390625 C 5.390625 -3.421875 5 -3.441406 4.59375 -3.453125 C 4.195312 -3.472656 3.8125 -3.5 3.4375 -3.53125 C 3.070312 -3.5625 2.722656 -3.609375 2.390625 -3.671875 C 2.054688 -3.734375 1.765625 -3.828125 1.515625 -3.953125 C 1.265625 -4.078125 1.066406 -4.234375 0.921875 -4.421875 C 0.773438 -4.617188 0.703125 -4.867188 0.703125 -5.171875 C 0.703125 -5.441406 0.75 -5.675781 0.84375 -5.875 C 0.945312 -6.082031 1.085938 -6.257812 1.265625 -6.40625 C 1.441406 -6.5625 1.648438 -6.6875 1.890625 -6.78125 C 2.140625 -6.882812 2.40625 -6.96875 2.6875 -7.03125 C 2.976562 -7.09375 3.28125 -7.132812 3.59375 -7.15625 C 3.90625 -7.1875 4.222656 -7.203125 4.546875 -7.203125 C 4.929688 -7.203125 5.3125 -7.179688 5.6875 -7.140625 C 6.070312 -7.109375 6.429688 -7.0625 6.765625 -7 C 7.097656 -6.9375 7.398438 -6.867188 7.671875 -6.796875 C 7.941406 -6.722656 8.15625 -6.644531 8.3125 -6.5625 C 8.34375 -6.550781 8.363281 -6.53125 8.375 -6.5 C 8.394531 -6.46875 8.40625 -6.429688 8.40625 -6.390625 C 8.40625 -6.335938 8.382812 -6.285156 8.34375 -6.234375 C 8.3125 -6.179688 8.257812 -6.15625 8.1875 -6.15625 C 8.144531 -6.15625 8.109375 -6.164062 8.078125 -6.1875 C 7.847656 -6.28125 7.597656 -6.363281 7.328125 -6.4375 C 7.054688 -6.507812 6.769531 -6.566406 6.46875 -6.609375 C 6.164062 -6.660156 5.851562 -6.703125 5.53125 -6.734375 C 5.207031 -6.765625 4.882812 -6.78125 4.5625 -6.78125 C 4.125 -6.78125 3.703125 -6.753906 3.296875 -6.703125 C 2.898438 -6.648438 2.546875 -6.5625 2.234375 -6.4375 C 1.929688 -6.320312 1.6875 -6.160156 1.5 -5.953125 C 1.320312 -5.753906 1.234375 -5.503906 1.234375 -5.203125 C 1.234375 -4.972656 1.304688 -4.785156 1.453125 -4.640625 C 1.597656 -4.492188 1.796875 -4.375 2.046875 -4.28125 C 2.296875 -4.195312 2.585938 -4.128906 2.921875 -4.078125 C 3.253906 -4.035156 3.609375 -4 3.984375 -3.96875 C 4.359375 -3.945312 4.742188 -3.925781 5.140625 -3.90625 C 5.535156 -3.894531 5.921875 -3.863281 6.296875 -3.8125 C 6.671875 -3.769531 7.023438 -3.707031 7.359375 -3.625 C 7.691406 -3.550781 7.984375 -3.441406 8.234375 -3.296875 C 8.484375 -3.160156 8.679688 -2.984375 8.828125 -2.765625 C 8.972656 -2.554688 9.046875 -2.289062 9.046875 -1.96875 Z M 9.046875 -1.96875 "/></g></g></g><g fill="#ffffff" fill-opacity="1"><g transform="translate(114.808101, 11.339708)"><g/></g></g><g fill="#ffffff" fill-opacity="1"><g transform="translate(121.086028, 11.339708)"><g><path d="M 0.4375 -3.5 C 0.4375 -3.875 0.457031 -4.253906 0.5 -4.640625 C 0.550781 -5.023438 0.617188 -5.382812 0.703125 -5.71875 C 0.796875 -6.0625 0.910156 -6.378906 1.046875 -6.671875 C 1.191406 -6.960938 1.359375 -7.21875 1.546875 -7.4375 C 1.742188 -7.65625 1.96875 -7.820312 2.21875 -7.9375 C 2.46875 -8.0625 2.742188 -8.125 3.046875 -8.125 C 3.117188 -8.125 3.171875 -8.101562 3.203125 -8.0625 C 3.242188 -8.019531 3.265625 -7.972656 3.265625 -7.921875 C 3.265625 -7.867188 3.242188 -7.820312 3.203125 -7.78125 C 3.171875 -7.738281 3.117188 -7.71875 3.046875 -7.71875 C 2.660156 -7.71875 2.332031 -7.597656 2.0625 -7.359375 C 1.800781 -7.117188 1.585938 -6.800781 1.421875 -6.40625 C 1.253906 -6.007812 1.128906 -5.554688 1.046875 -5.046875 C 0.972656 -4.546875 0.9375 -4.03125 0.9375 -3.5 C 0.9375 -2.96875 0.972656 -2.445312 1.046875 -1.9375 C 1.128906 -1.4375 1.253906 -0.988281 1.421875 -0.59375 C 1.585938 -0.195312 1.800781 0.117188 2.0625 0.359375 C 2.332031 0.597656 2.660156 0.71875 3.046875 0.71875 C 3.117188 0.71875 3.171875 0.738281 3.203125 0.78125 C 3.242188 0.820312 3.265625 0.867188 3.265625 0.921875 C 3.265625 0.972656 3.242188 1.019531 3.203125 1.0625 C 3.171875 1.101562 3.117188 1.125 3.046875 1.125 C 2.742188 1.125 2.46875 1.0625 2.21875 0.9375 C 1.96875 0.820312 1.742188 0.65625 1.546875 0.4375 C 1.359375 0.226562 1.191406 -0.0195312 1.046875 -0.3125 C 0.910156 -0.601562 0.796875 -0.921875 0.703125 -1.265625 C 0.617188 -1.609375 0.550781 -1.96875 0.5 -2.34375 C 0.457031 -2.726562 0.4375 -3.113281 0.4375 -3.5 Z M 0.4375 -3.5 "/></g></g></g><g fill="#ffffff" fill-opacity="1"><g transform="translate(127.262591, 11.339708)"><g><path d="M 7.3125 -4.546875 C 7.3125 -4.160156 7.265625 -3.832031 7.171875 -3.5625 C 7.078125 -3.300781 6.945312 -3.082031 6.78125 -2.90625 C 6.613281 -2.738281 6.410156 -2.609375 6.171875 -2.515625 C 5.929688 -2.421875 5.664062 -2.347656 5.375 -2.296875 C 5.082031 -2.253906 4.773438 -2.226562 4.453125 -2.21875 C 4.128906 -2.207031 3.789062 -2.203125 3.4375 -2.203125 L 1.546875 -2.203125 L 1.546875 -0.484375 C 1.546875 -0.359375 1.53125 -0.242188 1.5 -0.140625 C 1.46875 -0.046875 1.40625 0 1.3125 0 C 1.1875 0 1.101562 -0.046875 1.0625 -0.140625 C 1.03125 -0.234375 1.015625 -0.347656 1.015625 -0.484375 L 1.015625 -6.828125 C 1.015625 -6.890625 1.019531 -6.9375 1.03125 -6.96875 C 1.039062 -7 1.054688 -7.019531 1.078125 -7.03125 C 1.109375 -7.050781 1.144531 -7.0625 1.1875 -7.0625 C 1.226562 -7.0625 1.28125 -7.0625 1.34375 -7.0625 L 3.4375 -7.0625 C 3.820312 -7.0625 4.1875 -7.050781 4.53125 -7.03125 C 4.875 -7.007812 5.1875 -6.960938 5.46875 -6.890625 C 5.757812 -6.828125 6.019531 -6.738281 6.25 -6.625 C 6.476562 -6.507812 6.671875 -6.359375 6.828125 -6.171875 C 6.984375 -5.984375 7.101562 -5.753906 7.1875 -5.484375 C 7.269531 -5.222656 7.3125 -4.910156 7.3125 -4.546875 Z M 6.78125 -4.546875 C 6.78125 -4.984375 6.710938 -5.335938 6.578125 -5.609375 C 6.441406 -5.890625 6.238281 -6.101562 5.96875 -6.25 C 5.695312 -6.40625 5.351562 -6.507812 4.9375 -6.5625 C 4.519531 -6.613281 4.019531 -6.640625 3.4375 -6.640625 L 1.546875 -6.640625 L 1.546875 -2.59375 L 3.4375 -2.59375 C 4.019531 -2.59375 4.519531 -2.609375 4.9375 -2.640625 C 5.351562 -2.679688 5.695312 -2.769531 5.96875 -2.90625 C 6.25 -3.039062 6.453125 -3.234375 6.578125 -3.484375 C 6.710938 -3.742188 6.78125 -4.097656 6.78125 -4.546875 Z M 6.78125 -4.546875 "/></g></g></g><g fill="#ffffff" fill-opacity="1"><g transform="translate(138.14622, 11.339708)"><g><path d="M 4.53125 -0.578125 L 8.140625 -6.75 C 8.191406 -6.820312 8.242188 -6.890625 8.296875 -6.953125 C 8.347656 -7.015625 8.398438 -7.050781 8.453125 -7.0625 C 8.535156 -7.0625 8.59375 -7.035156 8.625 -6.984375 C 8.65625 -6.929688 8.671875 -6.878906 8.671875 -6.828125 C 8.671875 -6.785156 8.65625 -6.738281 8.625 -6.6875 C 8.601562 -6.632812 8.578125 -6.582031 8.546875 -6.53125 L 4.84375 -0.21875 C 4.800781 -0.144531 4.75 -0.0859375 4.6875 -0.046875 C 4.632812 -0.015625 4.578125 0 4.515625 0 C 4.390625 0 4.285156 -0.0703125 4.203125 -0.21875 L 0.484375 -6.53125 C 0.453125 -6.582031 0.425781 -6.632812 0.40625 -6.6875 C 0.382812 -6.738281 0.375 -6.789062 0.375 -6.84375 C 0.375 -6.875 0.390625 -6.914062 0.421875 -6.96875 C 0.453125 -7.03125 0.503906 -7.0625 0.578125 -7.0625 C 0.648438 -7.050781 0.707031 -7.015625 0.75 -6.953125 C 0.800781 -6.890625 0.851562 -6.820312 0.90625 -6.75 Z M 4.53125 -0.578125 "/></g></g></g><g fill="#ffffff" fill-opacity="1"><g transform="translate(150.55031, 11.339708)"><g><path d="M 8.40625 -6.828125 C 8.40625 -6.742188 8.375 -6.691406 8.3125 -6.671875 C 8.25 -6.648438 8.171875 -6.640625 8.078125 -6.640625 L 4.546875 -6.640625 L 4.546875 -0.46875 C 4.546875 -0.40625 4.539062 -0.34375 4.53125 -0.28125 C 4.53125 -0.226562 4.519531 -0.179688 4.5 -0.140625 C 4.476562 -0.0976562 4.453125 -0.0625 4.421875 -0.03125 C 4.390625 -0.0078125 4.335938 0 4.265625 0 C 4.160156 0 4.085938 -0.046875 4.046875 -0.140625 C 4.015625 -0.234375 4 -0.34375 4 -0.46875 L 4 -6.640625 L 0.453125 -6.640625 C 0.359375 -6.640625 0.273438 -6.648438 0.203125 -6.671875 C 0.140625 -6.691406 0.109375 -6.742188 0.109375 -6.828125 C 0.109375 -6.890625 0.125 -6.9375 0.15625 -6.96875 C 0.1875 -7 0.222656 -7.019531 0.265625 -7.03125 C 0.316406 -7.050781 0.367188 -7.0625 0.421875 -7.0625 C 0.472656 -7.0625 0.523438 -7.0625 0.578125 -7.0625 L 7.9375 -7.0625 C 8.007812 -7.0625 8.070312 -7.0625 8.125 -7.0625 C 8.175781 -7.0625 8.222656 -7.050781 8.265625 -7.03125 C 8.304688 -7.019531 8.335938 -7 8.359375 -6.96875 C 8.390625 -6.9375 8.40625 -6.890625 8.40625 -6.828125 Z M 8.40625 -6.828125 "/></g></g></g><g fill="#ffffff" fill-opacity="1"><g transform="translate(162.422224, 11.339708)"><g><path d="M 2.375 -3.5 C 2.375 -3.101562 2.351562 -2.71875 2.3125 -2.34375 C 2.269531 -1.96875 2.203125 -1.609375 2.109375 -1.265625 C 2.015625 -0.921875 1.894531 -0.601562 1.75 -0.3125 C 1.613281 -0.0195312 1.445312 0.226562 1.25 0.4375 C 1.0625 0.65625 0.84375 0.820312 0.59375 0.9375 C 0.351562 1.0625 0.078125 1.125 -0.234375 1.125 C -0.304688 1.125 -0.359375 1.101562 -0.390625 1.0625 C -0.421875 1.019531 -0.4375 0.972656 -0.4375 0.921875 C -0.4375 0.867188 -0.421875 0.820312 -0.390625 0.78125 C -0.359375 0.738281 -0.304688 0.71875 -0.234375 0.71875 C 0.148438 0.71875 0.472656 0.597656 0.734375 0.359375 C 1.003906 0.117188 1.222656 -0.195312 1.390625 -0.59375 C 1.554688 -0.988281 1.675781 -1.4375 1.75 -1.9375 C 1.832031 -2.445312 1.875 -2.96875 1.875 -3.5 C 1.875 -4.03125 1.832031 -4.546875 1.75 -5.046875 C 1.675781 -5.554688 1.554688 -6.007812 1.390625 -6.40625 C 1.222656 -6.800781 1.003906 -7.117188 0.734375 -7.359375 C 0.472656 -7.597656 0.148438 -7.71875 -0.234375 -7.71875 C -0.304688 -7.71875 -0.359375 -7.738281 -0.390625 -7.78125 C -0.421875 -7.820312 -0.4375 -7.867188 -0.4375 -7.921875 C -0.4375 -7.972656 -0.421875 -8.019531 -0.390625 -8.0625 C -0.359375 -8.101562 -0.304688 -8.125 -0.234375 -8.125 C 0.078125 -8.125 0.351562 -8.0625 0.59375 -7.9375 C 0.84375 -7.820312 1.0625 -7.65625 1.25 -7.4375 C 1.445312 -7.21875 1.613281 -6.960938 1.75 -6.671875 C 1.894531 -6.378906 2.015625 -6.0625 2.109375 -5.71875 C 2.203125 -5.382812 2.269531 -5.023438 2.3125 -4.640625 C 2.351562 -4.253906 2.375 -3.875 2.375 -3.5 Z M 2.375 -3.5 "/></g></g></g><g fill="#ffffff" fill-opacity="1"><g transform="translate(168.598796, 11.339708)"><g><path d="M 1.28125 0 C 1.207031 0 1.15625 0 1.125 0 C 1.09375 -0.0078125 1.066406 -0.0195312 1.046875 -0.03125 C 1.023438 -0.0507812 1.015625 -0.078125 1.015625 -0.109375 C 1.015625 -0.140625 1.015625 -0.179688 1.015625 -0.234375 L 1.015625 -6.65625 C 1.015625 -6.757812 1.03125 -6.851562 1.0625 -6.9375 C 1.101562 -7.019531 1.1875 -7.0625 1.3125 -7.0625 C 1.414062 -7.0625 1.476562 -7.015625 1.5 -6.921875 C 1.53125 -6.835938 1.546875 -6.75 1.546875 -6.65625 L 1.546875 -0.421875 L 7 -0.421875 C 7.082031 -0.421875 7.144531 -0.394531 7.1875 -0.34375 C 7.238281 -0.300781 7.265625 -0.253906 7.265625 -0.203125 C 7.265625 -0.148438 7.238281 -0.101562 7.1875 -0.0625 C 7.144531 -0.0195312 7.082031 0 7 0 Z M 1.28125 0 "/></g></g></g><g fill="#ffffff" fill-opacity="1"><g transform="translate(179.216338, 11.339708)"><g><path d="M 8.40625 -6.828125 C 8.40625 -6.742188 8.375 -6.691406 8.3125 -6.671875 C 8.25 -6.648438 8.171875 -6.640625 8.078125 -6.640625 L 4.546875 -6.640625 L 4.546875 -0.46875 C 4.546875 -0.40625 4.539062 -0.34375 4.53125 -0.28125 C 4.53125 -0.226562 4.519531 -0.179688 4.5 -0.140625 C 4.476562 -0.0976562 4.453125 -0.0625 4.421875 -0.03125 C 4.390625 -0.0078125 4.335938 0 4.265625 0 C 4.160156 0 4.085938 -0.046875 4.046875 -0.140625 C 4.015625 -0.234375 4 -0.34375 4 -0.46875 L 4 -6.640625 L 0.453125 -6.640625 C 0.359375 -6.640625 0.273438 -6.648438 0.203125 -6.671875 C 0.140625 -6.691406 0.109375 -6.742188 0.109375 -6.828125 C 0.109375 -6.890625 0.125 -6.9375 0.15625 -6.96875 C 0.1875 -7 0.222656 -7.019531 0.265625 -7.03125 C 0.316406 -7.050781 0.367188 -7.0625 0.421875 -7.0625 C 0.472656 -7.0625 0.523438 -7.0625 0.578125 -7.0625 L 7.9375 -7.0625 C 8.007812 -7.0625 8.070312 -7.0625 8.125 -7.0625 C 8.175781 -7.0625 8.222656 -7.050781 8.265625 -7.03125 C 8.304688 -7.019531 8.335938 -7 8.359375 -6.96875 C 8.390625 -6.9375 8.40625 -6.890625 8.40625 -6.828125 Z M 8.40625 -6.828125 "/></g></g></g><g fill="#ffffff" fill-opacity="1"><g transform="translate(191.088252, 11.339708)"><g><path d="M 9.8125 -3.546875 C 9.8125 -2.867188 9.722656 -2.300781 9.546875 -1.84375 C 9.367188 -1.394531 9.101562 -1.03125 8.75 -0.75 C 8.394531 -0.476562 7.957031 -0.285156 7.4375 -0.171875 C 6.914062 -0.0546875 6.3125 0 5.625 0 L 1.265625 0 C 1.203125 0 1.15625 0 1.125 0 C 1.09375 0 1.066406 -0.00390625 1.046875 -0.015625 C 1.023438 -0.0351562 1.015625 -0.0625 1.015625 -0.09375 C 1.015625 -0.125 1.015625 -0.164062 1.015625 -0.21875 L 1.015625 -6.828125 C 1.015625 -6.890625 1.015625 -6.9375 1.015625 -6.96875 C 1.015625 -7 1.023438 -7.019531 1.046875 -7.03125 C 1.066406 -7.050781 1.09375 -7.0625 1.125 -7.0625 C 1.15625 -7.0625 1.207031 -7.0625 1.28125 -7.0625 L 5.625 -7.0625 C 6.3125 -7.0625 6.914062 -7 7.4375 -6.875 C 7.957031 -6.757812 8.394531 -6.5625 8.75 -6.28125 C 9.101562 -6.007812 9.367188 -5.648438 9.546875 -5.203125 C 9.722656 -4.753906 9.8125 -4.203125 9.8125 -3.546875 Z M 9.265625 -3.546875 C 9.265625 -4.085938 9.203125 -4.550781 9.078125 -4.9375 C 8.960938 -5.332031 8.757812 -5.65625 8.46875 -5.90625 C 8.1875 -6.164062 7.8125 -6.351562 7.34375 -6.46875 C 6.882812 -6.582031 6.3125 -6.640625 5.625 -6.640625 L 1.546875 -6.640625 L 1.546875 -0.421875 L 5.625 -0.421875 C 6.3125 -0.421875 6.882812 -0.476562 7.34375 -0.59375 C 7.8125 -0.71875 8.1875 -0.90625 8.46875 -1.15625 C 8.757812 -1.40625 8.960938 -1.726562 9.078125 -2.125 C 9.203125 -2.519531 9.265625 -2.992188 9.265625 -3.546875 Z M 9.265625 -3.546875 "/></g></g></g></g></g><g transform="matrix(1, 0, 0, 1, 94, 213)"><g clip-path="url(#2c6d8ad491)"><g fill="#48dcfd" fill-opacity="1"><g transform="translate(0.820369, 32.779366)"><g><path d="M 0.96875 -10.140625 L 0.96875 -12.421875 C 0.96875 -12.597656 1.007812 -12.757812 1.09375 -12.90625 C 1.1875 -13.0625 1.273438 -13.179688 1.359375 -13.265625 L 3.96875 -15.875 C 4.226562 -16.125 4.539062 -16.25 4.90625 -16.25 L 14.34375 -16.25 C 14.46875 -16.25 14.578125 -16.203125 14.671875 -16.109375 C 14.773438 -16.015625 14.828125 -15.898438 14.828125 -15.765625 L 14.828125 -13.53125 C 14.828125 -13.394531 14.773438 -13.273438 14.671875 -13.171875 C 14.578125 -13.078125 14.46875 -13.03125 14.34375 -13.03125 L 5.8125 -13.03125 C 5.707031 -13.03125 5.546875 -12.945312 5.328125 -12.78125 L 4.625 -12.125 C 4.46875 -11.976562 4.390625 -11.796875 4.390625 -11.578125 L 4.390625 -10.890625 C 4.390625 -10.785156 4.421875 -10.675781 4.484375 -10.5625 L 4.96875 -9.984375 C 5.125 -9.828125 5.3125 -9.75 5.53125 -9.75 L 12.515625 -9.75 C 12.691406 -9.75 12.847656 -9.71875 12.984375 -9.65625 C 13.128906 -9.59375 13.253906 -9.503906 13.359375 -9.390625 L 15.3125 -7.515625 C 15.570312 -7.296875 15.703125 -6.96875 15.703125 -6.53125 L 15.703125 -3.84375 C 15.703125 -3.6875 15.664062 -3.53125 15.59375 -3.375 C 15.519531 -3.226562 15.425781 -3.097656 15.3125 -2.984375 L 12.71875 -0.390625 C 12.457031 -0.128906 12.140625 0 11.765625 0 L 2.015625 0 C 1.890625 0 1.773438 -0.046875 1.671875 -0.140625 C 1.578125 -0.242188 1.53125 -0.359375 1.53125 -0.484375 L 1.53125 -2.734375 C 1.53125 -2.859375 1.578125 -2.96875 1.671875 -3.0625 C 1.773438 -3.164062 1.890625 -3.21875 2.015625 -3.21875 L 10.859375 -3.21875 C 10.960938 -3.21875 11.125 -3.304688 11.34375 -3.484375 L 12.0625 -4.125 C 12.21875 -4.28125 12.296875 -4.46875 12.296875 -4.6875 L 12.296875 -5.46875 C 12.296875 -5.59375 12.257812 -5.695312 12.1875 -5.78125 L 11.703125 -6.375 C 11.554688 -6.519531 11.375 -6.59375 11.15625 -6.59375 L 4.484375 -6.59375 C 4.335938 -6.59375 4.1875 -6.628906 4.03125 -6.703125 C 3.875 -6.785156 3.742188 -6.867188 3.640625 -6.953125 L 1.359375 -9.171875 C 1.097656 -9.429688 0.96875 -9.753906 0.96875 -10.140625 Z M 0.96875 -10.140625 "/></g></g></g><g fill="#48dcfd" fill-opacity="1"><g transform="translate(23.094081, 32.779366)"><g><path d="M 18.046875 -16.25 C 18.171875 -16.25 18.28125 -16.203125 18.375 -16.109375 C 18.476562 -16.015625 18.53125 -15.898438 18.53125 -15.765625 L 18.53125 -13.328125 C 18.53125 -13.203125 18.476562 -13.085938 18.375 -12.984375 C 18.28125 -12.890625 18.171875 -12.84375 18.046875 -12.84375 L 11.484375 -12.84375 L 11.484375 -0.484375 C 11.484375 -0.359375 11.429688 -0.242188 11.328125 -0.140625 C 11.234375 -0.046875 11.117188 0 10.984375 0 L 8.546875 0 C 8.421875 0 8.304688 -0.046875 8.203125 -0.140625 C 8.109375 -0.242188 8.0625 -0.359375 8.0625 -0.484375 L 8.0625 -12.84375 L 1.46875 -12.84375 C 1.332031 -12.84375 1.210938 -12.890625 1.109375 -12.984375 C 1.015625 -13.085938 0.96875 -13.203125 0.96875 -13.328125 L 0.96875 -15.765625 C 0.96875 -15.898438 1.015625 -16.015625 1.109375 -16.109375 C 1.210938 -16.203125 1.332031 -16.25 1.46875 -16.25 Z M 18.046875 -16.25 "/></g></g></g><g fill="#48dcfd" fill-opacity="1"><g transform="translate(48.196646, 32.779366)"><g><path d="M 4.625 -11.796875 C 4.46875 -11.648438 4.390625 -11.46875 4.390625 -11.25 L 4.390625 -9.8125 L 13.140625 -9.8125 C 13.265625 -9.8125 13.375 -9.765625 13.46875 -9.671875 C 13.570312 -9.578125 13.625 -9.460938 13.625 -9.328125 L 13.625 -7.09375 C 13.625 -6.957031 13.570312 -6.835938 13.46875 -6.734375 C 13.375 -6.640625 13.265625 -6.59375 13.140625 -6.59375 L 4.390625 -6.59375 L 4.390625 -4.9375 C 4.390625 -4.832031 4.421875 -4.726562 4.484375 -4.625 L 5.625 -3.375 C 5.78125 -3.226562 5.960938 -3.15625 6.171875 -3.15625 L 14.734375 -3.15625 C 14.859375 -3.15625 14.96875 -3.101562 15.0625 -3 C 15.164062 -2.90625 15.21875 -2.796875 15.21875 -2.671875 L 15.21875 -0.484375 C 15.21875 -0.359375 15.164062 -0.242188 15.0625 -0.140625 C 14.96875 -0.046875 14.859375 0 14.734375 0 L 4.90625 0 C 4.582031 0 4.300781 -0.117188 4.0625 -0.359375 L 1.359375 -2.984375 C 1.097656 -3.242188 0.96875 -3.570312 0.96875 -3.96875 L 0.96875 -12.359375 C 0.96875 -12.523438 1.007812 -12.6875 1.09375 -12.84375 C 1.1875 -13 1.273438 -13.117188 1.359375 -13.203125 L 4.0625 -15.875 C 4.320312 -16.125 4.632812 -16.25 5 -16.25 L 14.734375 -16.25 C 14.859375 -16.25 14.96875 -16.203125 15.0625 -16.109375 C 15.164062 -16.015625 15.21875 -15.898438 15.21875 -15.765625 L 15.21875 -13.53125 C 15.21875 -13.394531 15.164062 -13.273438 15.0625 -13.171875 C 14.96875 -13.078125 14.859375 -13.03125 14.734375 -13.03125 L 6.140625 -13.03125 C 5.992188 -13.03125 5.832031 -12.945312 5.65625 -12.78125 Z M 4.625 -11.796875 "/></g></g></g><g fill="#48dcfd" fill-opacity="1"><g transform="translate(69.982618, 32.779366)"><g><path d="M 26.4375 -12.9375 C 26.675781 -12.695312 26.796875 -12.414062 26.796875 -12.09375 L 26.796875 -0.484375 C 26.796875 -0.359375 26.742188 -0.242188 26.640625 -0.140625 C 26.546875 -0.046875 26.4375 0 26.3125 0 L 24.125 0 C 24 0 23.882812 -0.046875 23.78125 -0.140625 C 23.6875 -0.242188 23.640625 -0.359375 23.640625 -0.484375 L 23.640625 -11.1875 C 23.640625 -11.425781 23.5625 -11.609375 23.40625 -11.734375 L 22.171875 -12.9375 C 22.085938 -13 21.976562 -13.03125 21.84375 -13.03125 L 17.53125 -13.03125 C 17.414062 -13.03125 17.304688 -13 17.203125 -12.9375 L 15.96875 -11.796875 C 15.875 -11.734375 15.804688 -11.640625 15.765625 -11.515625 L 15.765625 -0.484375 C 15.765625 -0.359375 15.71875 -0.242188 15.625 -0.140625 C 15.53125 -0.046875 15.414062 0 15.28125 0 L 13.078125 0 C 12.941406 0 12.820312 -0.046875 12.71875 -0.140625 C 12.625 -0.242188 12.578125 -0.359375 12.578125 -0.484375 L 12.578125 -11.515625 C 12.535156 -11.640625 12.472656 -11.734375 12.390625 -11.796875 L 11.15625 -12.9375 C 11.0625 -13 10.953125 -13.03125 10.828125 -13.03125 L 6.015625 -13.03125 C 5.910156 -13.03125 5.800781 -13 5.6875 -12.9375 L 4.359375 -11.671875 C 4.203125 -11.523438 4.125 -11.34375 4.125 -11.125 L 4.125 -0.484375 C 4.125 -0.359375 4.078125 -0.242188 3.984375 -0.140625 C 3.890625 -0.046875 3.773438 0 3.640625 0 L 1.46875 0 C 1.332031 0 1.210938 -0.046875 1.109375 -0.140625 C 1.015625 -0.242188 0.96875 -0.359375 0.96875 -0.484375 L 0.96875 -12.09375 C 0.96875 -12.269531 1.003906 -12.425781 1.078125 -12.5625 C 1.160156 -12.707031 1.242188 -12.832031 1.328125 -12.9375 L 4.1875 -15.875 C 4.445312 -16.125 4.773438 -16.25 5.171875 -16.25 L 11.578125 -16.25 C 11.960938 -16.25 12.285156 -16.125 12.546875 -15.875 L 14.171875 -14.203125 L 15.796875 -15.875 C 16.054688 -16.125 16.382812 -16.25 16.78125 -16.25 L 22.59375 -16.25 C 23.03125 -16.25 23.359375 -16.125 23.578125 -15.875 Z M 26.4375 -12.9375 "/></g></g></g></g></g><g transform="matrix(1, 0, 0, 1, 191, 213)"><g clip-path="url(#2848f77ecc)"><g fill="#ffffff" fill-opacity="1"><g transform="translate(0.755334, 32.779366)"><g><path d="M 0.96875 -4.15625 L 0.96875 -12.09375 C 0.96875 -12.414062 1.085938 -12.695312 1.328125 -12.9375 L 4.1875 -15.875 C 4.445312 -16.125 4.773438 -16.25 5.171875 -16.25 L 14.5 -16.25 C 14.894531 -16.25 15.222656 -16.125 15.484375 -15.875 L 18.34375 -12.9375 C 18.582031 -12.695312 18.703125 -12.414062 18.703125 -12.09375 L 18.703125 -4.15625 C 18.703125 -3.832031 18.582031 -3.550781 18.34375 -3.3125 L 15.484375 -0.390625 C 15.222656 -0.128906 14.894531 0 14.5 0 L 5.171875 0 C 4.773438 0 4.445312 -0.128906 4.1875 -0.390625 L 1.328125 -3.3125 C 1.085938 -3.550781 0.96875 -3.832031 0.96875 -4.15625 Z M 4.125 -5 C 4.125 -4.789062 4.203125 -4.609375 4.359375 -4.453125 L 5.390625 -3.484375 L 5.59375 -3.3125 C 5.65625 -3.25 5.765625 -3.21875 5.921875 -3.21875 L 13.75 -3.21875 C 13.882812 -3.21875 13.992188 -3.25 14.078125 -3.3125 L 14.28125 -3.484375 L 15.3125 -4.453125 C 15.46875 -4.609375 15.546875 -4.789062 15.546875 -5 L 15.546875 -11.25 C 15.546875 -11.46875 15.46875 -11.648438 15.3125 -11.796875 L 14.28125 -12.78125 L 14.078125 -12.9375 C 13.992188 -13 13.882812 -13.03125 13.75 -13.03125 L 5.921875 -13.03125 C 5.765625 -13.03125 5.65625 -13 5.59375 -12.9375 L 5.390625 -12.78125 L 4.359375 -11.796875 C 4.203125 -11.648438 4.125 -11.46875 4.125 -11.25 Z M 4.125 -5 "/></g></g></g><g fill="#ffffff" fill-opacity="1"><g transform="translate(26.020481, 32.779366)"><g><path d="M 18.3125 -7.09375 C 18.570312 -6.832031 18.703125 -6.503906 18.703125 -6.109375 L 18.703125 -3.546875 C 18.703125 -3.148438 18.570312 -2.820312 18.3125 -2.5625 L 16.03125 -0.359375 C 15.925781 -0.273438 15.800781 -0.191406 15.65625 -0.109375 C 15.507812 -0.0351562 15.351562 0 15.1875 0 L 1.46875 0 C 1.332031 0 1.210938 -0.046875 1.109375 -0.140625 C 1.015625 -0.242188 0.96875 -0.359375 0.96875 -0.484375 L 0.96875 -15.765625 C 0.96875 -15.898438 1.015625 -16.015625 1.109375 -16.109375 C 1.210938 -16.203125 1.332031 -16.25 1.46875 -16.25 L 14.046875 -16.25 C 14.222656 -16.25 14.378906 -16.21875 14.515625 -16.15625 C 14.660156 -16.09375 14.785156 -16.007812 14.890625 -15.90625 L 17.171875 -13.6875 C 17.429688 -13.425781 17.5625 -13.101562 17.5625 -12.71875 L 17.5625 -10.078125 C 17.5625 -9.691406 17.429688 -9.367188 17.171875 -9.109375 L 16.71875 -8.65625 Z M 13.203125 -13.109375 L 4.15625 -13.109375 L 4.15625 -9.6875 L 13.203125 -9.6875 C 13.441406 -9.6875 13.625 -9.765625 13.75 -9.921875 L 14.234375 -10.5 C 14.304688 -10.613281 14.34375 -10.722656 14.34375 -10.828125 L 14.34375 -11.96875 C 14.34375 -12.09375 14.304688 -12.203125 14.234375 -12.296875 L 13.75 -12.875 C 13.625 -13.03125 13.441406 -13.109375 13.203125 -13.109375 Z M 15.484375 -4.296875 L 15.484375 -5.359375 C 15.484375 -5.492188 15.445312 -5.601562 15.375 -5.6875 L 14.890625 -6.28125 C 14.765625 -6.425781 14.582031 -6.5 14.34375 -6.5 L 4.15625 -6.5 L 4.15625 -3.15625 L 14.34375 -3.15625 C 14.582031 -3.15625 14.765625 -3.226562 14.890625 -3.375 L 15.375 -3.96875 C 15.445312 -4.070312 15.484375 -4.179688 15.484375 -4.296875 Z M 15.484375 -4.296875 "/></g></g></g><g fill="#ffffff" fill-opacity="1"><g transform="translate(51.285629, 32.779366)"><g><path d="M 1.46875 0 C 1.332031 0 1.210938 -0.046875 1.109375 -0.140625 C 1.015625 -0.242188 0.96875 -0.359375 0.96875 -0.484375 L 0.96875 -15.765625 C 0.96875 -15.898438 1.015625 -16.015625 1.109375 -16.109375 C 1.210938 -16.203125 1.332031 -16.25 1.46875 -16.25 L 3.90625 -16.25 C 4.03125 -16.25 4.140625 -16.203125 4.234375 -16.109375 C 4.335938 -16.015625 4.390625 -15.898438 4.390625 -15.765625 L 4.390625 -0.484375 C 4.390625 -0.359375 4.335938 -0.242188 4.234375 -0.140625 C 4.140625 -0.046875 4.03125 0 3.90625 0 Z M 1.46875 0 "/></g></g></g><g fill="#ffffff" fill-opacity="1"><g transform="translate(62.243908, 32.779366)"><g><path d="M 0.96875 -15.765625 C 0.96875 -15.898438 1.015625 -16.015625 1.109375 -16.109375 C 1.210938 -16.203125 1.332031 -16.25 1.46875 -16.25 L 3.90625 -16.25 C 4.03125 -16.25 4.140625 -16.203125 4.234375 -16.109375 C 4.335938 -16.015625 4.390625 -15.898438 4.390625 -15.765625 L 4.390625 -5.171875 C 4.390625 -4.953125 4.46875 -4.769531 4.625 -4.625 L 5.8125 -3.484375 C 5.988281 -3.304688 6.15625 -3.21875 6.3125 -3.21875 L 17.234375 -3.21875 C 17.359375 -3.21875 17.46875 -3.164062 17.5625 -3.0625 C 17.664062 -2.96875 17.71875 -2.859375 17.71875 -2.734375 L 17.71875 -0.484375 C 17.71875 -0.359375 17.664062 -0.242188 17.5625 -0.140625 C 17.46875 -0.046875 17.359375 0 17.234375 0 L 5.234375 0 C 4.867188 0 4.554688 -0.128906 4.296875 -0.390625 L 1.359375 -3.3125 C 1.273438 -3.425781 1.1875 -3.554688 1.09375 -3.703125 C 1.007812 -3.859375 0.96875 -4.007812 0.96875 -4.15625 Z M 0.96875 -15.765625 "/></g></g></g><g fill="#ffffff" fill-opacity="1"><g transform="translate(86.533588, 32.779366)"><g><path d="M 4.625 -11.796875 C 4.46875 -11.648438 4.390625 -11.46875 4.390625 -11.25 L 4.390625 -9.859375 L 16.296875 -9.859375 C 16.421875 -9.859375 16.53125 -9.804688 16.625 -9.703125 C 16.726562 -9.609375 16.78125 -9.492188 16.78125 -9.359375 L 16.78125 -7.125 C 16.78125 -6.988281 16.726562 -6.875 16.625 -6.78125 C 16.53125 -6.6875 16.421875 -6.640625 16.296875 -6.640625 L 4.390625 -6.640625 L 4.390625 -4.9375 C 4.390625 -4.832031 4.421875 -4.726562 4.484375 -4.625 L 5.625 -3.375 C 5.78125 -3.226562 5.960938 -3.15625 6.171875 -3.15625 L 17.890625 -3.15625 C 18.015625 -3.15625 18.125 -3.101562 18.21875 -3 C 18.320312 -2.90625 18.375 -2.796875 18.375 -2.671875 L 18.375 -0.484375 C 18.375 -0.359375 18.320312 -0.242188 18.21875 -0.140625 C 18.125 -0.046875 18.015625 0 17.890625 0 L 4.96875 0 C 4.644531 0 4.363281 -0.117188 4.125 -0.359375 L 1.359375 -3.0625 C 1.097656 -3.320312 0.96875 -3.644531 0.96875 -4.03125 L 0.96875 -12.265625 C 0.96875 -12.429688 1.007812 -12.585938 1.09375 -12.734375 C 1.1875 -12.890625 1.273438 -13.015625 1.359375 -13.109375 L 4.125 -15.875 C 4.382812 -16.125 4.703125 -16.25 5.078125 -16.25 L 17.890625 -16.25 C 18.015625 -16.25 18.125 -16.203125 18.21875 -16.109375 C 18.320312 -16.015625 18.375 -15.898438 18.375 -15.765625 L 18.375 -13.53125 C 18.375 -13.394531 18.320312 -13.273438 18.21875 -13.171875 C 18.125 -13.078125 18.015625 -13.03125 17.890625 -13.03125 L 6.140625 -13.03125 C 5.992188 -13.03125 5.832031 -12.945312 5.65625 -12.78125 Z M 4.625 -11.796875 "/></g></g></g></g></g></svg>