<svg xmlns="http://www.w3.org/2000/svg" xmlns:xlink="http://www.w3.org/1999/xlink" width="500" zoomAndPan="magnify" viewBox="0 0 375 374.999991" height="500" preserveAspectRatio="xMidYMid meet" version="1.0"><defs><g/><clipPath id="6fcfc76138"><path d="M 37.5 169 L 44 169 L 44 175 L 37.5 175 Z M 37.5 169 " clip-rule="nonzero"/></clipPath></defs><g fill="#737373" fill-opacity="1"><g transform="translate(152.416269, 194.541666)"><g><path d="M 9.0625 -1.96875 C 9.0625 -1.695312 9.007812 -1.457031 8.90625 -1.25 C 8.8125 -1.039062 8.675781 -0.859375 8.5 -0.703125 C 8.332031 -0.546875 8.128906 -0.414062 7.890625 -0.3125 C 7.648438 -0.207031 7.390625 -0.117188 7.109375 -0.046875 C 6.828125 0.015625 6.53125 0.0546875 6.21875 0.078125 C 5.90625 0.109375 5.585938 0.125 5.265625 0.125 C 4.804688 0.125 4.351562 0.0976562 3.90625 0.046875 C 3.457031 0.00390625 3.035156 -0.046875 2.640625 -0.109375 C 2.253906 -0.179688 1.910156 -0.257812 1.609375 -0.34375 C 1.316406 -0.425781 1.097656 -0.503906 0.953125 -0.578125 C 0.890625 -0.597656 0.84375 -0.628906 0.8125 -0.671875 C 0.789062 -0.722656 0.78125 -0.769531 0.78125 -0.8125 C 0.78125 -0.863281 0.789062 -0.90625 0.8125 -0.9375 C 0.84375 -0.976562 0.882812 -1 0.9375 -1 C 0.96875 -1 1 -0.992188 1.03125 -0.984375 C 1.195312 -0.910156 1.429688 -0.832031 1.734375 -0.75 C 2.046875 -0.675781 2.394531 -0.601562 2.78125 -0.53125 C 3.175781 -0.46875 3.59375 -0.410156 4.03125 -0.359375 C 4.476562 -0.316406 4.921875 -0.296875 5.359375 -0.296875 C 5.785156 -0.296875 6.1875 -0.320312 6.5625 -0.375 C 6.945312 -0.425781 7.28125 -0.515625 7.5625 -0.640625 C 7.851562 -0.773438 8.082031 -0.953125 8.25 -1.171875 C 8.425781 -1.390625 8.515625 -1.65625 8.515625 -1.96875 C 8.515625 -2.238281 8.441406 -2.457031 8.296875 -2.625 C 8.148438 -2.800781 7.953125 -2.941406 7.703125 -3.046875 C 7.453125 -3.148438 7.160156 -3.226562 6.828125 -3.28125 C 6.492188 -3.332031 6.140625 -3.367188 5.765625 -3.390625 C 5.390625 -3.421875 5.003906 -3.441406 4.609375 -3.453125 C 4.210938 -3.472656 3.828125 -3.5 3.453125 -3.53125 C 3.078125 -3.570312 2.722656 -3.625 2.390625 -3.6875 C 2.054688 -3.75 1.765625 -3.835938 1.515625 -3.953125 C 1.265625 -4.078125 1.066406 -4.238281 0.921875 -4.4375 C 0.773438 -4.632812 0.703125 -4.878906 0.703125 -5.171875 C 0.703125 -5.441406 0.75 -5.679688 0.84375 -5.890625 C 0.945312 -6.097656 1.085938 -6.273438 1.265625 -6.421875 C 1.441406 -6.578125 1.648438 -6.703125 1.890625 -6.796875 C 2.140625 -6.898438 2.40625 -6.976562 2.6875 -7.03125 C 2.976562 -7.09375 3.28125 -7.132812 3.59375 -7.15625 C 3.90625 -7.1875 4.222656 -7.203125 4.546875 -7.203125 C 4.941406 -7.203125 5.328125 -7.179688 5.703125 -7.140625 C 6.085938 -7.109375 6.445312 -7.0625 6.78125 -7 C 7.113281 -6.9375 7.410156 -6.867188 7.671875 -6.796875 C 7.941406 -6.722656 8.160156 -6.648438 8.328125 -6.578125 C 8.359375 -6.554688 8.378906 -6.53125 8.390625 -6.5 C 8.410156 -6.46875 8.421875 -6.4375 8.421875 -6.40625 C 8.421875 -6.34375 8.398438 -6.285156 8.359375 -6.234375 C 8.316406 -6.179688 8.257812 -6.15625 8.1875 -6.15625 C 8.144531 -6.15625 8.113281 -6.164062 8.09375 -6.1875 C 7.863281 -6.28125 7.613281 -6.363281 7.34375 -6.4375 C 7.070312 -6.507812 6.78125 -6.570312 6.46875 -6.625 C 6.164062 -6.675781 5.851562 -6.710938 5.53125 -6.734375 C 5.207031 -6.765625 4.890625 -6.78125 4.578125 -6.78125 C 4.128906 -6.78125 3.703125 -6.753906 3.296875 -6.703125 C 2.898438 -6.660156 2.546875 -6.578125 2.234375 -6.453125 C 1.929688 -6.328125 1.6875 -6.164062 1.5 -5.96875 C 1.320312 -5.769531 1.234375 -5.519531 1.234375 -5.21875 C 1.234375 -4.976562 1.304688 -4.785156 1.453125 -4.640625 C 1.597656 -4.492188 1.796875 -4.375 2.046875 -4.28125 C 2.296875 -4.195312 2.585938 -4.132812 2.921875 -4.09375 C 3.253906 -4.050781 3.609375 -4.015625 3.984375 -3.984375 C 4.359375 -3.960938 4.742188 -3.941406 5.140625 -3.921875 C 5.546875 -3.898438 5.9375 -3.867188 6.3125 -3.828125 C 6.6875 -3.785156 7.039062 -3.722656 7.375 -3.640625 C 7.707031 -3.554688 8 -3.445312 8.25 -3.3125 C 8.5 -3.175781 8.695312 -3 8.84375 -2.78125 C 8.988281 -2.5625 9.0625 -2.289062 9.0625 -1.96875 Z M 9.0625 -1.96875 "/></g></g></g><g fill="#737373" fill-opacity="1"><g transform="translate(165.555711, 194.541666)"><g><path d="M 10.109375 -3.53125 C 10.109375 -2.914062 10.015625 -2.378906 9.828125 -1.921875 C 9.640625 -1.460938 9.351562 -1.078125 8.96875 -0.765625 C 8.59375 -0.460938 8.109375 -0.234375 7.515625 -0.078125 C 6.929688 0.0664062 6.238281 0.140625 5.4375 0.140625 C 4.632812 0.140625 3.9375 0.0664062 3.34375 -0.078125 C 2.757812 -0.234375 2.273438 -0.460938 1.890625 -0.765625 C 1.515625 -1.078125 1.234375 -1.460938 1.046875 -1.921875 C 0.867188 -2.378906 0.78125 -2.914062 0.78125 -3.53125 C 0.78125 -4.15625 0.867188 -4.695312 1.046875 -5.15625 C 1.234375 -5.613281 1.515625 -5.992188 1.890625 -6.296875 C 2.273438 -6.597656 2.757812 -6.820312 3.34375 -6.96875 C 3.9375 -7.125 4.632812 -7.203125 5.4375 -7.203125 C 6.238281 -7.203125 6.929688 -7.125 7.515625 -6.96875 C 8.109375 -6.820312 8.59375 -6.597656 8.96875 -6.296875 C 9.351562 -5.992188 9.640625 -5.613281 9.828125 -5.15625 C 10.015625 -4.695312 10.109375 -4.15625 10.109375 -3.53125 Z M 1.328125 -3.53125 C 1.328125 -2.9375 1.410156 -2.4375 1.578125 -2.03125 C 1.742188 -1.625 1.992188 -1.289062 2.328125 -1.03125 C 2.671875 -0.769531 3.101562 -0.578125 3.625 -0.453125 C 4.144531 -0.335938 4.75 -0.28125 5.4375 -0.28125 C 6.132812 -0.28125 6.738281 -0.335938 7.25 -0.453125 C 7.769531 -0.578125 8.203125 -0.769531 8.546875 -1.03125 C 8.890625 -1.289062 9.144531 -1.625 9.3125 -2.03125 C 9.476562 -2.4375 9.5625 -2.9375 9.5625 -3.53125 C 9.5625 -4.125 9.476562 -4.625 9.3125 -5.03125 C 9.144531 -5.445312 8.890625 -5.785156 8.546875 -6.046875 C 8.203125 -6.304688 7.769531 -6.492188 7.25 -6.609375 C 6.738281 -6.722656 6.132812 -6.78125 5.4375 -6.78125 C 4.75 -6.78125 4.144531 -6.722656 3.625 -6.609375 C 3.101562 -6.492188 2.671875 -6.304688 2.328125 -6.046875 C 1.992188 -5.785156 1.742188 -5.445312 1.578125 -5.03125 C 1.410156 -4.625 1.328125 -4.125 1.328125 -3.53125 Z M 1.328125 -3.53125 "/></g></g></g><g fill="#737373" fill-opacity="1"><g transform="translate(179.805664, 194.541666)"><g><path d="M 1.28125 0 C 1.21875 0 1.164062 0 1.125 0 C 1.09375 -0.0078125 1.066406 -0.0195312 1.046875 -0.03125 C 1.023438 -0.0507812 1.015625 -0.078125 1.015625 -0.109375 C 1.015625 -0.140625 1.015625 -0.179688 1.015625 -0.234375 L 1.015625 -6.65625 C 1.015625 -6.769531 1.03125 -6.867188 1.0625 -6.953125 C 1.101562 -7.035156 1.1875 -7.078125 1.3125 -7.078125 C 1.414062 -7.078125 1.484375 -7.03125 1.515625 -6.9375 C 1.546875 -6.851562 1.5625 -6.757812 1.5625 -6.65625 L 1.5625 -0.421875 L 7.015625 -0.421875 C 7.097656 -0.421875 7.160156 -0.394531 7.203125 -0.34375 C 7.242188 -0.300781 7.265625 -0.253906 7.265625 -0.203125 C 7.265625 -0.148438 7.242188 -0.101562 7.203125 -0.0625 C 7.160156 -0.0195312 7.097656 0 7.015625 0 Z M 1.28125 0 "/></g></g></g><g fill="#737373" fill-opacity="1"><g transform="translate(190.438541, 194.541666)"><g><path d="M 5.046875 -0.28125 C 5.734375 -0.28125 6.304688 -0.347656 6.765625 -0.484375 C 7.222656 -0.617188 7.59375 -0.820312 7.875 -1.09375 C 8.15625 -1.363281 8.351562 -1.703125 8.46875 -2.109375 C 8.582031 -2.515625 8.640625 -3 8.640625 -3.5625 L 8.640625 -6.625 C 8.640625 -6.738281 8.65625 -6.84375 8.6875 -6.9375 C 8.71875 -7.03125 8.785156 -7.078125 8.890625 -7.078125 C 8.953125 -7.078125 9 -7.0625 9.03125 -7.03125 C 9.070312 -7.007812 9.101562 -6.976562 9.125 -6.9375 C 9.144531 -6.894531 9.15625 -6.84375 9.15625 -6.78125 C 9.164062 -6.726562 9.171875 -6.675781 9.171875 -6.625 L 9.171875 -3.5625 C 9.171875 -2.894531 9.082031 -2.328125 8.90625 -1.859375 C 8.738281 -1.390625 8.484375 -1.003906 8.140625 -0.703125 C 7.796875 -0.410156 7.363281 -0.195312 6.84375 -0.0625 C 6.332031 0.0703125 5.734375 0.140625 5.046875 0.140625 C 4.347656 0.140625 3.738281 0.0703125 3.21875 -0.0625 C 2.707031 -0.195312 2.273438 -0.410156 1.921875 -0.703125 C 1.578125 -1.003906 1.316406 -1.390625 1.140625 -1.859375 C 0.972656 -2.328125 0.890625 -2.894531 0.890625 -3.5625 L 0.890625 -6.625 C 0.890625 -6.675781 0.894531 -6.726562 0.90625 -6.78125 C 0.914062 -6.84375 0.929688 -6.894531 0.953125 -6.9375 C 0.972656 -6.976562 1 -7.007812 1.03125 -7.03125 C 1.0625 -7.0625 1.113281 -7.078125 1.1875 -7.078125 C 1.289062 -7.078125 1.359375 -7.03125 1.390625 -6.9375 C 1.421875 -6.84375 1.4375 -6.738281 1.4375 -6.625 L 1.4375 -3.5625 C 1.4375 -3 1.492188 -2.515625 1.609375 -2.109375 C 1.722656 -1.703125 1.914062 -1.363281 2.1875 -1.09375 C 2.46875 -0.820312 2.835938 -0.617188 3.296875 -0.484375 C 3.765625 -0.347656 4.347656 -0.28125 5.046875 -0.28125 Z M 5.046875 -0.28125 "/></g></g></g><g fill="#737373" fill-opacity="1"><g transform="translate(203.869887, 194.541666)"><g><path d="M 8.40625 -6.84375 C 8.40625 -6.75 8.375 -6.691406 8.3125 -6.671875 C 8.257812 -6.660156 8.1875 -6.65625 8.09375 -6.65625 L 4.546875 -6.65625 L 4.546875 -0.46875 C 4.546875 -0.40625 4.539062 -0.34375 4.53125 -0.28125 C 4.53125 -0.226562 4.519531 -0.179688 4.5 -0.140625 C 4.476562 -0.0976562 4.453125 -0.0625 4.421875 -0.03125 C 4.390625 -0.0078125 4.34375 0 4.28125 0 C 4.164062 0 4.085938 -0.046875 4.046875 -0.140625 C 4.015625 -0.234375 4 -0.34375 4 -0.46875 L 4 -6.65625 L 0.453125 -6.65625 C 0.359375 -6.65625 0.273438 -6.660156 0.203125 -6.671875 C 0.140625 -6.691406 0.109375 -6.75 0.109375 -6.84375 C 0.109375 -6.90625 0.125 -6.953125 0.15625 -6.984375 C 0.1875 -7.015625 0.222656 -7.035156 0.265625 -7.046875 C 0.316406 -7.054688 0.367188 -7.0625 0.421875 -7.0625 C 0.484375 -7.070312 0.535156 -7.078125 0.578125 -7.078125 L 7.953125 -7.078125 C 8.015625 -7.078125 8.070312 -7.070312 8.125 -7.0625 C 8.1875 -7.0625 8.234375 -7.054688 8.265625 -7.046875 C 8.304688 -7.035156 8.335938 -7.015625 8.359375 -6.984375 C 8.390625 -6.953125 8.40625 -6.90625 8.40625 -6.84375 Z M 8.40625 -6.84375 "/></g></g></g><g fill="#737373" fill-opacity="1"><g transform="translate(215.759222, 194.541666)"><g><path d="M 3 -6.65625 L 0.734375 -6.65625 C 0.679688 -6.65625 0.625 -6.65625 0.5625 -6.65625 C 0.507812 -6.65625 0.460938 -6.660156 0.421875 -6.671875 C 0.378906 -6.679688 0.34375 -6.695312 0.3125 -6.71875 C 0.28125 -6.75 0.265625 -6.789062 0.265625 -6.84375 C 0.265625 -6.90625 0.28125 -6.953125 0.3125 -6.984375 C 0.34375 -7.015625 0.378906 -7.035156 0.421875 -7.046875 C 0.472656 -7.066406 0.523438 -7.078125 0.578125 -7.078125 C 0.628906 -7.078125 0.679688 -7.078125 0.734375 -7.078125 L 5.8125 -7.078125 C 5.875 -7.078125 5.929688 -7.078125 5.984375 -7.078125 C 6.035156 -7.078125 6.082031 -7.066406 6.125 -7.046875 C 6.164062 -7.035156 6.195312 -7.015625 6.21875 -6.984375 C 6.25 -6.953125 6.265625 -6.910156 6.265625 -6.859375 C 6.265625 -6.796875 6.25 -6.75 6.21875 -6.71875 C 6.195312 -6.695312 6.164062 -6.679688 6.125 -6.671875 C 6.082031 -6.660156 6.035156 -6.65625 5.984375 -6.65625 C 5.929688 -6.65625 5.875 -6.65625 5.8125 -6.65625 L 3.546875 -6.65625 L 3.546875 -0.421875 L 5.8125 -0.421875 C 5.875 -0.421875 5.929688 -0.421875 5.984375 -0.421875 C 6.035156 -0.421875 6.082031 -0.410156 6.125 -0.390625 C 6.164062 -0.378906 6.195312 -0.359375 6.21875 -0.328125 C 6.25 -0.304688 6.265625 -0.265625 6.265625 -0.203125 C 6.265625 -0.148438 6.25 -0.109375 6.21875 -0.078125 C 6.195312 -0.046875 6.164062 -0.0234375 6.125 -0.015625 C 6.082031 -0.00390625 6.035156 0 5.984375 0 C 5.929688 0 5.875 0 5.8125 0 L 0.734375 0 C 0.679688 0 0.628906 0 0.578125 0 C 0.523438 0 0.472656 -0.00390625 0.421875 -0.015625 C 0.378906 -0.0234375 0.34375 -0.046875 0.3125 -0.078125 C 0.28125 -0.109375 0.265625 -0.15625 0.265625 -0.21875 C 0.265625 -0.269531 0.28125 -0.304688 0.3125 -0.328125 C 0.34375 -0.359375 0.378906 -0.378906 0.421875 -0.390625 C 0.460938 -0.410156 0.507812 -0.421875 0.5625 -0.421875 C 0.625 -0.421875 0.679688 -0.421875 0.734375 -0.421875 L 3 -0.421875 Z M 3 -6.65625 "/></g></g></g><g fill="#737373" fill-opacity="1"><g transform="translate(225.668684, 194.541666)"><g><path d="M 10.109375 -3.53125 C 10.109375 -2.914062 10.015625 -2.378906 9.828125 -1.921875 C 9.640625 -1.460938 9.351562 -1.078125 8.96875 -0.765625 C 8.59375 -0.460938 8.109375 -0.234375 7.515625 -0.078125 C 6.929688 0.0664062 6.238281 0.140625 5.4375 0.140625 C 4.632812 0.140625 3.9375 0.0664062 3.34375 -0.078125 C 2.757812 -0.234375 2.273438 -0.460938 1.890625 -0.765625 C 1.515625 -1.078125 1.234375 -1.460938 1.046875 -1.921875 C 0.867188 -2.378906 0.78125 -2.914062 0.78125 -3.53125 C 0.78125 -4.15625 0.867188 -4.695312 1.046875 -5.15625 C 1.234375 -5.613281 1.515625 -5.992188 1.890625 -6.296875 C 2.273438 -6.597656 2.757812 -6.820312 3.34375 -6.96875 C 3.9375 -7.125 4.632812 -7.203125 5.4375 -7.203125 C 6.238281 -7.203125 6.929688 -7.125 7.515625 -6.96875 C 8.109375 -6.820312 8.59375 -6.597656 8.96875 -6.296875 C 9.351562 -5.992188 9.640625 -5.613281 9.828125 -5.15625 C 10.015625 -4.695312 10.109375 -4.15625 10.109375 -3.53125 Z M 1.328125 -3.53125 C 1.328125 -2.9375 1.410156 -2.4375 1.578125 -2.03125 C 1.742188 -1.625 1.992188 -1.289062 2.328125 -1.03125 C 2.671875 -0.769531 3.101562 -0.578125 3.625 -0.453125 C 4.144531 -0.335938 4.75 -0.28125 5.4375 -0.28125 C 6.132812 -0.28125 6.738281 -0.335938 7.25 -0.453125 C 7.769531 -0.578125 8.203125 -0.769531 8.546875 -1.03125 C 8.890625 -1.289062 9.144531 -1.625 9.3125 -2.03125 C 9.476562 -2.4375 9.5625 -2.9375 9.5625 -3.53125 C 9.5625 -4.125 9.476562 -4.625 9.3125 -5.03125 C 9.144531 -5.445312 8.890625 -5.785156 8.546875 -6.046875 C 8.203125 -6.304688 7.769531 -6.492188 7.25 -6.609375 C 6.738281 -6.722656 6.132812 -6.78125 5.4375 -6.78125 C 4.75 -6.78125 4.144531 -6.722656 3.625 -6.609375 C 3.101562 -6.492188 2.671875 -6.304688 2.328125 -6.046875 C 1.992188 -5.785156 1.742188 -5.445312 1.578125 -5.03125 C 1.410156 -4.625 1.328125 -4.125 1.328125 -3.53125 Z M 1.328125 -3.53125 "/></g></g></g><g fill="#737373" fill-opacity="1"><g transform="translate(239.918637, 194.541666)"><g><path d="M 8.140625 -0.8125 L 8.140625 -6.59375 C 8.140625 -6.65625 8.140625 -6.710938 8.140625 -6.765625 C 8.148438 -6.828125 8.160156 -6.878906 8.171875 -6.921875 C 8.191406 -6.960938 8.21875 -7 8.25 -7.03125 C 8.289062 -7.0625 8.34375 -7.078125 8.40625 -7.078125 C 8.519531 -7.078125 8.59375 -7.023438 8.625 -6.921875 C 8.65625 -6.828125 8.671875 -6.71875 8.671875 -6.59375 L 8.671875 -0.40625 C 8.671875 -0.132812 8.601562 0 8.46875 0 C 8.363281 0 8.238281 -0.0664062 8.09375 -0.203125 L 1.5625 -6.265625 L 1.5625 -0.4375 C 1.5625 -0.320312 1.539062 -0.21875 1.5 -0.125 C 1.46875 -0.0390625 1.398438 0 1.296875 0 C 1.171875 0 1.09375 -0.0390625 1.0625 -0.125 C 1.03125 -0.21875 1.015625 -0.320312 1.015625 -0.4375 L 1.015625 -6.65625 C 1.015625 -6.78125 1.035156 -6.875 1.078125 -6.9375 C 1.128906 -7.007812 1.195312 -7.046875 1.28125 -7.046875 C 1.382812 -7.046875 1.503906 -6.984375 1.640625 -6.859375 Z M 8.140625 -0.8125 "/></g></g></g><g fill="#737373" fill-opacity="1"><g transform="translate(252.975589, 194.541666)"><g><path d="M 9.0625 -1.96875 C 9.0625 -1.695312 9.007812 -1.457031 8.90625 -1.25 C 8.8125 -1.039062 8.675781 -0.859375 8.5 -0.703125 C 8.332031 -0.546875 8.128906 -0.414062 7.890625 -0.3125 C 7.648438 -0.207031 7.390625 -0.117188 7.109375 -0.046875 C 6.828125 0.015625 6.53125 0.0546875 6.21875 0.078125 C 5.90625 0.109375 5.585938 0.125 5.265625 0.125 C 4.804688 0.125 4.351562 0.0976562 3.90625 0.046875 C 3.457031 0.00390625 3.035156 -0.046875 2.640625 -0.109375 C 2.253906 -0.179688 1.910156 -0.257812 1.609375 -0.34375 C 1.316406 -0.425781 1.097656 -0.503906 0.953125 -0.578125 C 0.890625 -0.597656 0.84375 -0.628906 0.8125 -0.671875 C 0.789062 -0.722656 0.78125 -0.769531 0.78125 -0.8125 C 0.78125 -0.863281 0.789062 -0.90625 0.8125 -0.9375 C 0.84375 -0.976562 0.882812 -1 0.9375 -1 C 0.96875 -1 1 -0.992188 1.03125 -0.984375 C 1.195312 -0.910156 1.429688 -0.832031 1.734375 -0.75 C 2.046875 -0.675781 2.394531 -0.601562 2.78125 -0.53125 C 3.175781 -0.46875 3.59375 -0.410156 4.03125 -0.359375 C 4.476562 -0.316406 4.921875 -0.296875 5.359375 -0.296875 C 5.785156 -0.296875 6.1875 -0.320312 6.5625 -0.375 C 6.945312 -0.425781 7.28125 -0.515625 7.5625 -0.640625 C 7.851562 -0.773438 8.082031 -0.953125 8.25 -1.171875 C 8.425781 -1.390625 8.515625 -1.65625 8.515625 -1.96875 C 8.515625 -2.238281 8.441406 -2.457031 8.296875 -2.625 C 8.148438 -2.800781 7.953125 -2.941406 7.703125 -3.046875 C 7.453125 -3.148438 7.160156 -3.226562 6.828125 -3.28125 C 6.492188 -3.332031 6.140625 -3.367188 5.765625 -3.390625 C 5.390625 -3.421875 5.003906 -3.441406 4.609375 -3.453125 C 4.210938 -3.472656 3.828125 -3.5 3.453125 -3.53125 C 3.078125 -3.570312 2.722656 -3.625 2.390625 -3.6875 C 2.054688 -3.75 1.765625 -3.835938 1.515625 -3.953125 C 1.265625 -4.078125 1.066406 -4.238281 0.921875 -4.4375 C 0.773438 -4.632812 0.703125 -4.878906 0.703125 -5.171875 C 0.703125 -5.441406 0.75 -5.679688 0.84375 -5.890625 C 0.945312 -6.097656 1.085938 -6.273438 1.265625 -6.421875 C 1.441406 -6.578125 1.648438 -6.703125 1.890625 -6.796875 C 2.140625 -6.898438 2.40625 -6.976562 2.6875 -7.03125 C 2.976562 -7.09375 3.28125 -7.132812 3.59375 -7.15625 C 3.90625 -7.1875 4.222656 -7.203125 4.546875 -7.203125 C 4.941406 -7.203125 5.328125 -7.179688 5.703125 -7.140625 C 6.085938 -7.109375 6.445312 -7.0625 6.78125 -7 C 7.113281 -6.9375 7.410156 -6.867188 7.671875 -6.796875 C 7.941406 -6.722656 8.160156 -6.648438 8.328125 -6.578125 C 8.359375 -6.554688 8.378906 -6.53125 8.390625 -6.5 C 8.410156 -6.46875 8.421875 -6.4375 8.421875 -6.40625 C 8.421875 -6.34375 8.398438 -6.285156 8.359375 -6.234375 C 8.316406 -6.179688 8.257812 -6.15625 8.1875 -6.15625 C 8.144531 -6.15625 8.113281 -6.164062 8.09375 -6.1875 C 7.863281 -6.28125 7.613281 -6.363281 7.34375 -6.4375 C 7.070312 -6.507812 6.78125 -6.570312 6.46875 -6.625 C 6.164062 -6.675781 5.851562 -6.710938 5.53125 -6.734375 C 5.207031 -6.765625 4.890625 -6.78125 4.578125 -6.78125 C 4.128906 -6.78125 3.703125 -6.753906 3.296875 -6.703125 C 2.898438 -6.660156 2.546875 -6.578125 2.234375 -6.453125 C 1.929688 -6.328125 1.6875 -6.164062 1.5 -5.96875 C 1.320312 -5.769531 1.234375 -5.519531 1.234375 -5.21875 C 1.234375 -4.976562 1.304688 -4.785156 1.453125 -4.640625 C 1.597656 -4.492188 1.796875 -4.375 2.046875 -4.28125 C 2.296875 -4.195312 2.585938 -4.132812 2.921875 -4.09375 C 3.253906 -4.050781 3.609375 -4.015625 3.984375 -3.984375 C 4.359375 -3.960938 4.742188 -3.941406 5.140625 -3.921875 C 5.546875 -3.898438 5.9375 -3.867188 6.3125 -3.828125 C 6.6875 -3.785156 7.039062 -3.722656 7.375 -3.640625 C 7.707031 -3.554688 8 -3.445312 8.25 -3.3125 C 8.5 -3.175781 8.695312 -3 8.84375 -2.78125 C 8.988281 -2.5625 9.0625 -2.289062 9.0625 -1.96875 Z M 9.0625 -1.96875 "/></g></g></g><g fill="#737373" fill-opacity="1"><g transform="translate(266.115031, 194.541666)"><g/></g></g><g fill="#737373" fill-opacity="1"><g transform="translate(272.401064, 194.541666)"><g><path d="M 0.4375 -3.5 C 0.4375 -3.882812 0.457031 -4.265625 0.5 -4.640625 C 0.550781 -5.023438 0.617188 -5.390625 0.703125 -5.734375 C 0.796875 -6.078125 0.910156 -6.394531 1.046875 -6.6875 C 1.191406 -6.976562 1.359375 -7.226562 1.546875 -7.4375 C 1.742188 -7.65625 1.96875 -7.820312 2.21875 -7.9375 C 2.46875 -8.0625 2.742188 -8.125 3.046875 -8.125 C 3.117188 -8.125 3.171875 -8.101562 3.203125 -8.0625 C 3.242188 -8.019531 3.265625 -7.972656 3.265625 -7.921875 C 3.265625 -7.878906 3.242188 -7.832031 3.203125 -7.78125 C 3.171875 -7.738281 3.117188 -7.71875 3.046875 -7.71875 C 2.660156 -7.71875 2.332031 -7.597656 2.0625 -7.359375 C 1.800781 -7.117188 1.585938 -6.800781 1.421875 -6.40625 C 1.253906 -6.007812 1.128906 -5.554688 1.046875 -5.046875 C 0.972656 -4.546875 0.9375 -4.03125 0.9375 -3.5 C 0.9375 -2.96875 0.972656 -2.445312 1.046875 -1.9375 C 1.128906 -1.4375 1.253906 -0.988281 1.421875 -0.59375 C 1.585938 -0.195312 1.800781 0.117188 2.0625 0.359375 C 2.332031 0.597656 2.660156 0.71875 3.046875 0.71875 C 3.117188 0.71875 3.171875 0.738281 3.203125 0.78125 C 3.242188 0.820312 3.265625 0.867188 3.265625 0.921875 C 3.265625 0.972656 3.242188 1.019531 3.203125 1.0625 C 3.171875 1.101562 3.117188 1.125 3.046875 1.125 C 2.742188 1.125 2.46875 1.0625 2.21875 0.9375 C 1.96875 0.820312 1.742188 0.65625 1.546875 0.4375 C 1.359375 0.226562 1.191406 -0.0195312 1.046875 -0.3125 C 0.910156 -0.601562 0.796875 -0.921875 0.703125 -1.265625 C 0.617188 -1.609375 0.550781 -1.96875 0.5 -2.34375 C 0.457031 -2.726562 0.4375 -3.113281 0.4375 -3.5 Z M 0.4375 -3.5 "/></g></g></g><g fill="#737373" fill-opacity="1"><g transform="translate(278.585566, 194.541666)"><g><path d="M 7.328125 -4.546875 C 7.328125 -4.160156 7.28125 -3.835938 7.1875 -3.578125 C 7.09375 -3.316406 6.957031 -3.097656 6.78125 -2.921875 C 6.613281 -2.742188 6.410156 -2.609375 6.171875 -2.515625 C 5.929688 -2.421875 5.664062 -2.347656 5.375 -2.296875 C 5.09375 -2.253906 4.785156 -2.226562 4.453125 -2.21875 C 4.128906 -2.207031 3.796875 -2.203125 3.453125 -2.203125 L 1.5625 -2.203125 L 1.5625 -0.484375 C 1.5625 -0.359375 1.539062 -0.242188 1.5 -0.140625 C 1.46875 -0.046875 1.40625 0 1.3125 0 C 1.1875 0 1.101562 -0.046875 1.0625 -0.140625 C 1.03125 -0.234375 1.015625 -0.347656 1.015625 -0.484375 L 1.015625 -6.84375 C 1.015625 -6.90625 1.019531 -6.953125 1.03125 -6.984375 C 1.039062 -7.015625 1.054688 -7.035156 1.078125 -7.046875 C 1.109375 -7.054688 1.144531 -7.0625 1.1875 -7.0625 C 1.226562 -7.070312 1.28125 -7.078125 1.34375 -7.078125 L 3.453125 -7.078125 C 3.835938 -7.078125 4.195312 -7.066406 4.53125 -7.046875 C 4.875 -7.023438 5.1875 -6.976562 5.46875 -6.90625 C 5.757812 -6.84375 6.019531 -6.753906 6.25 -6.640625 C 6.476562 -6.523438 6.671875 -6.375 6.828125 -6.1875 C 6.992188 -6 7.117188 -5.769531 7.203125 -5.5 C 7.285156 -5.238281 7.328125 -4.921875 7.328125 -4.546875 Z M 6.78125 -4.546875 C 6.78125 -4.992188 6.710938 -5.351562 6.578125 -5.625 C 6.453125 -5.894531 6.25 -6.109375 5.96875 -6.265625 C 5.695312 -6.421875 5.351562 -6.523438 4.9375 -6.578125 C 4.519531 -6.628906 4.023438 -6.65625 3.453125 -6.65625 L 1.5625 -6.65625 L 1.5625 -2.609375 L 3.453125 -2.609375 C 4.023438 -2.609375 4.519531 -2.625 4.9375 -2.65625 C 5.363281 -2.6875 5.710938 -2.769531 5.984375 -2.90625 C 6.253906 -3.039062 6.453125 -3.238281 6.578125 -3.5 C 6.710938 -3.757812 6.78125 -4.109375 6.78125 -4.546875 Z M 6.78125 -4.546875 "/></g></g></g><g fill="#737373" fill-opacity="1"><g transform="translate(289.484964, 194.541666)"><g><path d="M 4.53125 -0.578125 L 8.15625 -6.75 C 8.207031 -6.832031 8.253906 -6.898438 8.296875 -6.953125 C 8.347656 -7.015625 8.40625 -7.050781 8.46875 -7.0625 C 8.550781 -7.0625 8.609375 -7.035156 8.640625 -6.984375 C 8.671875 -6.929688 8.6875 -6.882812 8.6875 -6.84375 C 8.6875 -6.789062 8.671875 -6.738281 8.640625 -6.6875 C 8.617188 -6.632812 8.59375 -6.582031 8.5625 -6.53125 L 4.859375 -0.21875 C 4.804688 -0.144531 4.75 -0.0859375 4.6875 -0.046875 C 4.632812 -0.015625 4.582031 0 4.53125 0 C 4.394531 0 4.285156 -0.0703125 4.203125 -0.21875 L 0.484375 -6.53125 C 0.453125 -6.59375 0.425781 -6.648438 0.40625 -6.703125 C 0.382812 -6.753906 0.375 -6.804688 0.375 -6.859375 C 0.375 -6.890625 0.390625 -6.929688 0.421875 -6.984375 C 0.453125 -7.035156 0.503906 -7.0625 0.578125 -7.0625 C 0.648438 -7.050781 0.707031 -7.015625 0.75 -6.953125 C 0.800781 -6.898438 0.851562 -6.832031 0.90625 -6.75 Z M 4.53125 -0.578125 "/></g></g></g><g fill="#737373" fill-opacity="1"><g transform="translate(301.907341, 194.541666)"><g><path d="M 8.40625 -6.84375 C 8.40625 -6.75 8.375 -6.691406 8.3125 -6.671875 C 8.257812 -6.660156 8.1875 -6.65625 8.09375 -6.65625 L 4.546875 -6.65625 L 4.546875 -0.46875 C 4.546875 -0.40625 4.539062 -0.34375 4.53125 -0.28125 C 4.53125 -0.226562 4.519531 -0.179688 4.5 -0.140625 C 4.476562 -0.0976562 4.453125 -0.0625 4.421875 -0.03125 C 4.390625 -0.0078125 4.34375 0 4.28125 0 C 4.164062 0 4.085938 -0.046875 4.046875 -0.140625 C 4.015625 -0.234375 4 -0.34375 4 -0.46875 L 4 -6.65625 L 0.453125 -6.65625 C 0.359375 -6.65625 0.273438 -6.660156 0.203125 -6.671875 C 0.140625 -6.691406 0.109375 -6.75 0.109375 -6.84375 C 0.109375 -6.90625 0.125 -6.953125 0.15625 -6.984375 C 0.1875 -7.015625 0.222656 -7.035156 0.265625 -7.046875 C 0.316406 -7.054688 0.367188 -7.0625 0.421875 -7.0625 C 0.484375 -7.070312 0.535156 -7.078125 0.578125 -7.078125 L 7.953125 -7.078125 C 8.015625 -7.078125 8.070312 -7.070312 8.125 -7.0625 C 8.1875 -7.0625 8.234375 -7.054688 8.265625 -7.046875 C 8.304688 -7.035156 8.335938 -7.015625 8.359375 -6.984375 C 8.390625 -6.953125 8.40625 -6.90625 8.40625 -6.84375 Z M 8.40625 -6.84375 "/></g></g></g><g fill="#737373" fill-opacity="1"><g transform="translate(313.796676, 194.541666)"><g><path d="M 2.375 -3.5 C 2.375 -3.101562 2.351562 -2.71875 2.3125 -2.34375 C 2.269531 -1.96875 2.203125 -1.609375 2.109375 -1.265625 C 2.015625 -0.921875 1.898438 -0.601562 1.765625 -0.3125 C 1.628906 -0.0195312 1.460938 0.226562 1.265625 0.4375 C 1.078125 0.65625 0.859375 0.820312 0.609375 0.9375 C 0.359375 1.0625 0.078125 1.125 -0.234375 1.125 C -0.304688 1.125 -0.359375 1.101562 -0.390625 1.0625 C -0.421875 1.019531 -0.4375 0.972656 -0.4375 0.921875 C -0.4375 0.867188 -0.421875 0.820312 -0.390625 0.78125 C -0.359375 0.738281 -0.304688 0.71875 -0.234375 0.71875 C 0.148438 0.71875 0.476562 0.597656 0.75 0.359375 C 1.019531 0.117188 1.238281 -0.195312 1.40625 -0.59375 C 1.570312 -0.988281 1.691406 -1.4375 1.765625 -1.9375 C 1.835938 -2.445312 1.875 -2.96875 1.875 -3.5 C 1.875 -4.03125 1.835938 -4.546875 1.765625 -5.046875 C 1.691406 -5.554688 1.570312 -6.007812 1.40625 -6.40625 C 1.238281 -6.800781 1.019531 -7.117188 0.75 -7.359375 C 0.476562 -7.597656 0.148438 -7.71875 -0.234375 -7.71875 C -0.304688 -7.71875 -0.359375 -7.738281 -0.390625 -7.78125 C -0.421875 -7.832031 -0.4375 -7.878906 -0.4375 -7.921875 C -0.4375 -7.972656 -0.421875 -8.019531 -0.390625 -8.0625 C -0.359375 -8.101562 -0.304688 -8.125 -0.234375 -8.125 C 0.078125 -8.125 0.359375 -8.0625 0.609375 -7.9375 C 0.859375 -7.820312 1.078125 -7.65625 1.265625 -7.4375 C 1.460938 -7.226562 1.628906 -6.976562 1.765625 -6.6875 C 1.898438 -6.394531 2.015625 -6.078125 2.109375 -5.734375 C 2.203125 -5.390625 2.269531 -5.023438 2.3125 -4.640625 C 2.351562 -4.265625 2.375 -3.882812 2.375 -3.5 Z M 2.375 -3.5 "/></g></g></g><g fill="#737373" fill-opacity="1"><g transform="translate(319.981178, 194.541666)"><g><path d="M 1.28125 0 C 1.21875 0 1.164062 0 1.125 0 C 1.09375 -0.0078125 1.066406 -0.0195312 1.046875 -0.03125 C 1.023438 -0.0507812 1.015625 -0.078125 1.015625 -0.109375 C 1.015625 -0.140625 1.015625 -0.179688 1.015625 -0.234375 L 1.015625 -6.65625 C 1.015625 -6.769531 1.03125 -6.867188 1.0625 -6.953125 C 1.101562 -7.035156 1.1875 -7.078125 1.3125 -7.078125 C 1.414062 -7.078125 1.484375 -7.03125 1.515625 -6.9375 C 1.546875 -6.851562 1.5625 -6.757812 1.5625 -6.65625 L 1.5625 -0.421875 L 7.015625 -0.421875 C 7.097656 -0.421875 7.160156 -0.394531 7.203125 -0.34375 C 7.242188 -0.300781 7.265625 -0.253906 7.265625 -0.203125 C 7.265625 -0.148438 7.242188 -0.101562 7.203125 -0.0625 C 7.160156 -0.0195312 7.097656 0 7.015625 0 Z M 1.28125 0 "/></g></g></g><g fill="#737373" fill-opacity="1"><g transform="translate(330.614054, 194.541666)"><g><path d="M 8.40625 -6.84375 C 8.40625 -6.75 8.375 -6.691406 8.3125 -6.671875 C 8.257812 -6.660156 8.1875 -6.65625 8.09375 -6.65625 L 4.546875 -6.65625 L 4.546875 -0.46875 C 4.546875 -0.40625 4.539062 -0.34375 4.53125 -0.28125 C 4.53125 -0.226562 4.519531 -0.179688 4.5 -0.140625 C 4.476562 -0.0976562 4.453125 -0.0625 4.421875 -0.03125 C 4.390625 -0.0078125 4.34375 0 4.28125 0 C 4.164062 0 4.085938 -0.046875 4.046875 -0.140625 C 4.015625 -0.234375 4 -0.34375 4 -0.46875 L 4 -6.65625 L 0.453125 -6.65625 C 0.359375 -6.65625 0.273438 -6.660156 0.203125 -6.671875 C 0.140625 -6.691406 0.109375 -6.75 0.109375 -6.84375 C 0.109375 -6.90625 0.125 -6.953125 0.15625 -6.984375 C 0.1875 -7.015625 0.222656 -7.035156 0.265625 -7.046875 C 0.316406 -7.054688 0.367188 -7.0625 0.421875 -7.0625 C 0.484375 -7.070312 0.535156 -7.078125 0.578125 -7.078125 L 7.953125 -7.078125 C 8.015625 -7.078125 8.070312 -7.070312 8.125 -7.0625 C 8.1875 -7.0625 8.234375 -7.054688 8.265625 -7.046875 C 8.304688 -7.035156 8.335938 -7.015625 8.359375 -6.984375 C 8.390625 -6.953125 8.40625 -6.90625 8.40625 -6.84375 Z M 8.40625 -6.84375 "/></g></g></g><g fill="#737373" fill-opacity="1"><g transform="translate(342.503389, 194.541666)"><g><path d="M 9.8125 -3.546875 C 9.8125 -2.867188 9.722656 -2.300781 9.546875 -1.84375 C 9.367188 -1.394531 9.101562 -1.03125 8.75 -0.75 C 8.40625 -0.476562 7.972656 -0.285156 7.453125 -0.171875 C 6.929688 -0.0546875 6.320312 0 5.625 0 L 1.265625 0 C 1.203125 0 1.15625 0 1.125 0 C 1.09375 0 1.066406 -0.00390625 1.046875 -0.015625 C 1.023438 -0.0351562 1.015625 -0.0625 1.015625 -0.09375 C 1.015625 -0.125 1.015625 -0.164062 1.015625 -0.21875 L 1.015625 -6.84375 C 1.015625 -6.90625 1.015625 -6.953125 1.015625 -6.984375 C 1.015625 -7.015625 1.023438 -7.035156 1.046875 -7.046875 C 1.066406 -7.054688 1.09375 -7.0625 1.125 -7.0625 C 1.164062 -7.070312 1.21875 -7.078125 1.28125 -7.078125 L 5.625 -7.078125 C 6.320312 -7.078125 6.929688 -7.015625 7.453125 -6.890625 C 7.972656 -6.773438 8.40625 -6.578125 8.75 -6.296875 C 9.101562 -6.023438 9.367188 -5.660156 9.546875 -5.203125 C 9.722656 -4.753906 9.8125 -4.203125 9.8125 -3.546875 Z M 9.28125 -3.546875 C 9.28125 -4.097656 9.21875 -4.566406 9.09375 -4.953125 C 8.96875 -5.347656 8.765625 -5.671875 8.484375 -5.921875 C 8.203125 -6.171875 7.828125 -6.351562 7.359375 -6.46875 C 6.898438 -6.59375 6.320312 -6.65625 5.625 -6.65625 L 1.5625 -6.65625 L 1.5625 -0.421875 L 5.625 -0.421875 C 6.320312 -0.421875 6.898438 -0.476562 7.359375 -0.59375 C 7.828125 -0.71875 8.203125 -0.90625 8.484375 -1.15625 C 8.765625 -1.40625 8.96875 -1.726562 9.09375 -2.125 C 9.21875 -2.519531 9.28125 -2.992188 9.28125 -3.546875 Z M 9.28125 -3.546875 "/></g></g></g><g fill="#02b2e8" fill-opacity="1"><g transform="translate(139.401777, 176.479208)"><g><path d="M 0.96875 -10.140625 L 0.96875 -12.421875 C 0.96875 -12.585938 1.007812 -12.742188 1.09375 -12.890625 C 1.1875 -13.046875 1.273438 -13.171875 1.359375 -13.265625 L 3.96875 -15.859375 C 4.226562 -16.117188 4.539062 -16.25 4.90625 -16.25 L 17.328125 -16.25 C 17.453125 -16.25 17.5625 -16.195312 17.65625 -16.09375 C 17.757812 -16 17.8125 -15.890625 17.8125 -15.765625 L 17.8125 -13.515625 C 17.8125 -13.390625 17.757812 -13.273438 17.65625 -13.171875 C 17.5625 -13.078125 17.453125 -13.03125 17.328125 -13.03125 L 5.8125 -13.03125 C 5.707031 -13.03125 5.546875 -12.941406 5.328125 -12.765625 L 4.609375 -12.125 C 4.460938 -11.96875 4.390625 -11.78125 4.390625 -11.5625 L 4.390625 -10.890625 C 4.390625 -10.773438 4.421875 -10.664062 4.484375 -10.5625 L 4.96875 -9.984375 C 5.125 -9.828125 5.3125 -9.75 5.53125 -9.75 L 15.5 -9.75 C 15.675781 -9.75 15.832031 -9.71875 15.96875 -9.65625 C 16.113281 -9.59375 16.238281 -9.503906 16.34375 -9.390625 L 18.296875 -7.5 C 18.554688 -7.289062 18.6875 -6.96875 18.6875 -6.53125 L 18.6875 -3.828125 C 18.6875 -3.679688 18.644531 -3.53125 18.5625 -3.375 C 18.488281 -3.226562 18.398438 -3.097656 18.296875 -2.984375 L 15.703125 -0.390625 C 15.441406 -0.128906 15.125 0 14.75 0 L 2.015625 0 C 1.878906 0 1.765625 -0.046875 1.671875 -0.140625 C 1.578125 -0.242188 1.53125 -0.359375 1.53125 -0.484375 L 1.53125 -2.734375 C 1.53125 -2.859375 1.578125 -2.96875 1.671875 -3.0625 C 1.765625 -3.164062 1.878906 -3.21875 2.015625 -3.21875 L 13.84375 -3.21875 C 13.945312 -3.21875 14.109375 -3.304688 14.328125 -3.484375 L 15.046875 -4.125 C 15.203125 -4.28125 15.28125 -4.46875 15.28125 -4.6875 L 15.28125 -5.453125 C 15.28125 -5.585938 15.242188 -5.695312 15.171875 -5.78125 L 14.6875 -6.375 C 14.539062 -6.519531 14.359375 -6.59375 14.140625 -6.59375 L 4.484375 -6.59375 C 4.328125 -6.59375 4.171875 -6.628906 4.015625 -6.703125 C 3.867188 -6.785156 3.742188 -6.867188 3.640625 -6.953125 L 1.359375 -9.171875 C 1.097656 -9.429688 0.96875 -9.753906 0.96875 -10.140625 Z M 0.96875 -10.140625 "/></g></g></g><g fill="#02b2e8" fill-opacity="1"><g transform="translate(164.651871, 176.479208)"><g><path d="M 21.609375 -16.25 C 21.742188 -16.25 21.859375 -16.195312 21.953125 -16.09375 C 22.046875 -16 22.09375 -15.890625 22.09375 -15.765625 L 22.09375 -13.328125 C 22.09375 -13.191406 22.046875 -13.078125 21.953125 -12.984375 C 21.859375 -12.890625 21.742188 -12.84375 21.609375 -12.84375 L 13.265625 -12.84375 L 13.265625 -0.484375 C 13.265625 -0.359375 13.210938 -0.242188 13.109375 -0.140625 C 13.015625 -0.046875 12.898438 0 12.765625 0 L 10.328125 0 C 10.203125 0 10.085938 -0.046875 9.984375 -0.140625 C 9.890625 -0.242188 9.84375 -0.359375 9.84375 -0.484375 L 9.84375 -12.84375 L 1.46875 -12.84375 C 1.332031 -12.84375 1.210938 -12.890625 1.109375 -12.984375 C 1.015625 -13.078125 0.96875 -13.191406 0.96875 -13.328125 L 0.96875 -15.765625 C 0.96875 -15.890625 1.015625 -16 1.109375 -16.09375 C 1.210938 -16.195312 1.332031 -16.25 1.46875 -16.25 Z M 21.609375 -16.25 "/></g></g></g><g fill="#02b2e8" fill-opacity="1"><g transform="translate(193.314043, 176.479208)"><g><path d="M 4.609375 -11.796875 C 4.460938 -11.640625 4.390625 -11.457031 4.390625 -11.25 L 4.390625 -9.84375 L 16.28125 -9.84375 C 16.414062 -9.84375 16.53125 -9.796875 16.625 -9.703125 C 16.71875 -9.609375 16.765625 -9.492188 16.765625 -9.359375 L 16.765625 -7.125 C 16.765625 -6.988281 16.71875 -6.867188 16.625 -6.765625 C 16.53125 -6.671875 16.414062 -6.625 16.28125 -6.625 L 4.390625 -6.625 L 4.390625 -4.9375 C 4.390625 -4.832031 4.421875 -4.722656 4.484375 -4.609375 L 5.625 -3.375 C 5.769531 -3.226562 5.953125 -3.15625 6.171875 -3.15625 L 17.875 -3.15625 C 18 -3.15625 18.109375 -3.101562 18.203125 -3 C 18.304688 -2.90625 18.359375 -2.796875 18.359375 -2.671875 L 18.359375 -0.484375 C 18.359375 -0.359375 18.304688 -0.242188 18.203125 -0.140625 C 18.109375 -0.046875 18 0 17.875 0 L 4.96875 0 C 4.644531 0 4.363281 -0.117188 4.125 -0.359375 L 1.359375 -3.0625 C 1.097656 -3.3125 0.96875 -3.632812 0.96875 -4.03125 L 0.96875 -12.25 C 0.96875 -12.425781 1.007812 -12.585938 1.09375 -12.734375 C 1.1875 -12.890625 1.273438 -13.007812 1.359375 -13.09375 L 4.125 -15.859375 C 4.382812 -16.117188 4.695312 -16.25 5.0625 -16.25 L 17.875 -16.25 C 18 -16.25 18.109375 -16.195312 18.203125 -16.09375 C 18.304688 -16 18.359375 -15.890625 18.359375 -15.765625 L 18.359375 -13.515625 C 18.359375 -13.390625 18.304688 -13.273438 18.203125 -13.171875 C 18.109375 -13.078125 18 -13.03125 17.875 -13.03125 L 6.140625 -13.03125 C 5.992188 -13.03125 5.832031 -12.941406 5.65625 -12.765625 Z M 4.609375 -11.796875 "/></g></g></g><g fill="#02b2e8" fill-opacity="1"><g transform="translate(218.23917, 176.479208)"><g><path d="M 33.1875 -12.609375 C 33.289062 -12.503906 33.375 -12.378906 33.4375 -12.234375 C 33.507812 -12.097656 33.546875 -11.941406 33.546875 -11.765625 L 33.546875 -0.484375 C 33.546875 -0.359375 33.492188 -0.242188 33.390625 -0.140625 C 33.296875 -0.046875 33.179688 0 33.046875 0 L 30.875 0 C 30.75 0 30.632812 -0.046875 30.53125 -0.140625 C 30.4375 -0.242188 30.390625 -0.359375 30.390625 -0.484375 L 30.390625 -10.796875 C 30.390625 -11.023438 30.3125 -11.207031 30.15625 -11.34375 L 28.53125 -12.9375 C 28.445312 -13 28.335938 -13.03125 28.203125 -13.03125 L 21.359375 -13.03125 C 21.242188 -13.03125 21.132812 -13 21.03125 -12.9375 L 19.46875 -11.46875 C 19.3125 -11.34375 19.234375 -11.160156 19.234375 -10.921875 L 19.234375 -0.484375 C 19.234375 -0.359375 19.1875 -0.242188 19.09375 -0.140625 C 19 -0.046875 18.882812 0 18.75 0 L 16.578125 0 C 16.441406 0 16.328125 -0.046875 16.234375 -0.140625 C 16.140625 -0.242188 16.09375 -0.359375 16.09375 -0.484375 L 16.09375 -10.921875 C 16.09375 -11.160156 16.015625 -11.34375 15.859375 -11.46875 L 14.296875 -12.9375 C 14.210938 -13 14.101562 -13.03125 13.96875 -13.03125 L 6.34375 -13.03125 C 6.226562 -13.03125 6.117188 -13 6.015625 -12.9375 L 4.359375 -11.3125 C 4.203125 -11.15625 4.125 -10.96875 4.125 -10.75 L 4.125 -0.484375 C 4.125 -0.359375 4.070312 -0.242188 3.96875 -0.140625 C 3.875 -0.046875 3.765625 0 3.640625 0 L 1.46875 0 C 1.332031 0 1.210938 -0.046875 1.109375 -0.140625 C 1.015625 -0.242188 0.96875 -0.359375 0.96875 -0.484375 L 0.96875 -11.765625 C 0.96875 -11.941406 1.003906 -12.097656 1.078125 -12.234375 C 1.160156 -12.378906 1.242188 -12.503906 1.328125 -12.609375 L 4.515625 -15.859375 C 4.773438 -16.117188 5.101562 -16.25 5.5 -16.25 L 14.71875 -16.25 C 15.15625 -16.25 15.484375 -16.117188 15.703125 -15.859375 L 17.6875 -13.84375 L 19.625 -15.859375 C 19.863281 -16.117188 20.191406 -16.25 20.609375 -16.25 L 29.015625 -16.25 C 29.410156 -16.25 29.738281 -16.117188 30 -15.859375 Z M 33.1875 -12.609375 "/></g></g></g><g fill="#a6a6a6" fill-opacity="1"><g transform="translate(252.766745, 176.479208)"><g><path d="M 0.96875 -4.15625 L 0.96875 -12.09375 C 0.96875 -12.414062 1.085938 -12.695312 1.328125 -12.9375 L 4.1875 -15.859375 C 4.445312 -16.117188 4.773438 -16.25 5.171875 -16.25 L 14.5 -16.25 C 14.882812 -16.25 15.207031 -16.117188 15.46875 -15.859375 L 18.328125 -12.9375 C 18.566406 -12.695312 18.6875 -12.414062 18.6875 -12.09375 L 18.6875 -4.15625 C 18.6875 -3.832031 18.566406 -3.550781 18.328125 -3.3125 L 15.46875 -0.390625 C 15.207031 -0.128906 14.882812 0 14.5 0 L 5.171875 0 C 4.773438 0 4.445312 -0.128906 4.1875 -0.390625 L 1.328125 -3.3125 C 1.085938 -3.550781 0.96875 -3.832031 0.96875 -4.15625 Z M 4.125 -5 C 4.125 -4.789062 4.203125 -4.609375 4.359375 -4.453125 L 5.390625 -3.484375 L 5.59375 -3.3125 C 5.65625 -3.25 5.765625 -3.21875 5.921875 -3.21875 L 13.75 -3.21875 C 13.875 -3.21875 13.984375 -3.25 14.078125 -3.3125 L 14.265625 -3.484375 L 15.3125 -4.453125 C 15.457031 -4.609375 15.53125 -4.789062 15.53125 -5 L 15.53125 -11.25 C 15.53125 -11.457031 15.457031 -11.640625 15.3125 -11.796875 L 14.265625 -12.765625 L 14.078125 -12.9375 C 13.984375 -13 13.875 -13.03125 13.75 -13.03125 L 5.921875 -13.03125 C 5.765625 -13.03125 5.65625 -13 5.59375 -12.9375 L 5.390625 -12.765625 L 4.359375 -11.796875 C 4.203125 -11.640625 4.125 -11.457031 4.125 -11.25 Z M 4.125 -5 "/></g></g></g><g fill="#a6a6a6" fill-opacity="1"><g transform="translate(278.016839, 176.479208)"><g><path d="M 18.296875 -7.078125 C 18.554688 -6.816406 18.6875 -6.492188 18.6875 -6.109375 L 18.6875 -3.546875 C 18.6875 -3.148438 18.554688 -2.820312 18.296875 -2.5625 L 16.015625 -0.359375 C 15.910156 -0.273438 15.785156 -0.191406 15.640625 -0.109375 C 15.503906 -0.0351562 15.347656 0 15.171875 0 L 1.46875 0 C 1.332031 0 1.210938 -0.046875 1.109375 -0.140625 C 1.015625 -0.242188 0.96875 -0.359375 0.96875 -0.484375 L 0.96875 -15.765625 C 0.96875 -15.890625 1.015625 -16 1.109375 -16.09375 C 1.210938 -16.195312 1.332031 -16.25 1.46875 -16.25 L 14.046875 -16.25 C 14.210938 -16.25 14.363281 -16.21875 14.5 -16.15625 C 14.644531 -16.09375 14.773438 -16.003906 14.890625 -15.890625 L 17.15625 -13.6875 C 17.414062 -13.425781 17.546875 -13.097656 17.546875 -12.703125 L 17.546875 -10.078125 C 17.546875 -9.679688 17.414062 -9.351562 17.15625 -9.09375 L 16.703125 -8.640625 Z M 13.1875 -13.09375 L 4.15625 -13.09375 L 4.15625 -9.6875 L 13.1875 -9.6875 C 13.425781 -9.6875 13.613281 -9.757812 13.75 -9.90625 L 14.234375 -10.5 C 14.296875 -10.601562 14.328125 -10.710938 14.328125 -10.828125 L 14.328125 -11.953125 C 14.328125 -12.085938 14.296875 -12.195312 14.234375 -12.28125 L 13.75 -12.875 C 13.613281 -13.019531 13.425781 -13.09375 13.1875 -13.09375 Z M 15.46875 -4.296875 L 15.46875 -5.359375 C 15.46875 -5.492188 15.4375 -5.601562 15.375 -5.6875 L 14.890625 -6.265625 C 14.753906 -6.421875 14.566406 -6.5 14.328125 -6.5 L 4.15625 -6.5 L 4.15625 -3.15625 L 14.328125 -3.15625 C 14.566406 -3.15625 14.753906 -3.226562 14.890625 -3.375 L 15.375 -3.96875 C 15.4375 -4.070312 15.46875 -4.179688 15.46875 -4.296875 Z M 15.46875 -4.296875 "/></g></g></g><g fill="#a6a6a6" fill-opacity="1"><g transform="translate(303.266932, 176.479208)"><g><path d="M 1.46875 0 C 1.332031 0 1.210938 -0.046875 1.109375 -0.140625 C 1.015625 -0.242188 0.96875 -0.359375 0.96875 -0.484375 L 0.96875 -15.765625 C 0.96875 -15.890625 1.015625 -16 1.109375 -16.09375 C 1.210938 -16.195312 1.332031 -16.25 1.46875 -16.25 L 3.90625 -16.25 C 4.03125 -16.25 4.140625 -16.195312 4.234375 -16.09375 C 4.335938 -16 4.390625 -15.890625 4.390625 -15.765625 L 4.390625 -0.484375 C 4.390625 -0.359375 4.335938 -0.242188 4.234375 -0.140625 C 4.140625 -0.046875 4.03125 0 3.90625 0 Z M 1.46875 0 "/></g></g></g><g fill="#a6a6a6" fill-opacity="1"><g transform="translate(314.218767, 176.479208)"><g><path d="M 0.96875 -15.765625 C 0.96875 -15.890625 1.015625 -16 1.109375 -16.09375 C 1.210938 -16.195312 1.332031 -16.25 1.46875 -16.25 L 3.90625 -16.25 C 4.03125 -16.25 4.140625 -16.195312 4.234375 -16.09375 C 4.335938 -16 4.390625 -15.890625 4.390625 -15.765625 L 4.390625 -5.171875 C 4.390625 -4.953125 4.460938 -4.765625 4.609375 -4.609375 L 5.8125 -3.484375 C 5.988281 -3.304688 6.15625 -3.21875 6.3125 -3.21875 L 17.21875 -3.21875 C 17.351562 -3.21875 17.46875 -3.164062 17.5625 -3.0625 C 17.664062 -2.96875 17.71875 -2.859375 17.71875 -2.734375 L 17.71875 -0.484375 C 17.71875 -0.359375 17.664062 -0.242188 17.5625 -0.140625 C 17.46875 -0.046875 17.351562 0 17.21875 0 L 5.234375 0 C 4.867188 0 4.554688 -0.128906 4.296875 -0.390625 L 1.359375 -3.3125 C 1.273438 -3.425781 1.1875 -3.554688 1.09375 -3.703125 C 1.007812 -3.859375 0.96875 -4.007812 0.96875 -4.15625 Z M 0.96875 -15.765625 "/></g></g></g><g fill="#a6a6a6" fill-opacity="1"><g transform="translate(338.493973, 176.479208)"><g><path d="M 4.609375 -11.796875 C 4.460938 -11.640625 4.390625 -11.457031 4.390625 -11.25 L 4.390625 -9.84375 L 16.28125 -9.84375 C 16.414062 -9.84375 16.53125 -9.796875 16.625 -9.703125 C 16.71875 -9.609375 16.765625 -9.492188 16.765625 -9.359375 L 16.765625 -7.125 C 16.765625 -6.988281 16.71875 -6.867188 16.625 -6.765625 C 16.53125 -6.671875 16.414062 -6.625 16.28125 -6.625 L 4.390625 -6.625 L 4.390625 -4.9375 C 4.390625 -4.832031 4.421875 -4.722656 4.484375 -4.609375 L 5.625 -3.375 C 5.769531 -3.226562 5.953125 -3.15625 6.171875 -3.15625 L 17.875 -3.15625 C 18 -3.15625 18.109375 -3.101562 18.203125 -3 C 18.304688 -2.90625 18.359375 -2.796875 18.359375 -2.671875 L 18.359375 -0.484375 C 18.359375 -0.359375 18.304688 -0.242188 18.203125 -0.140625 C 18.109375 -0.046875 18 0 17.875 0 L 4.96875 0 C 4.644531 0 4.363281 -0.117188 4.125 -0.359375 L 1.359375 -3.0625 C 1.097656 -3.3125 0.96875 -3.632812 0.96875 -4.03125 L 0.96875 -12.25 C 0.96875 -12.425781 1.007812 -12.585938 1.09375 -12.734375 C 1.1875 -12.890625 1.273438 -13.007812 1.359375 -13.09375 L 4.125 -15.859375 C 4.382812 -16.117188 4.695312 -16.25 5.0625 -16.25 L 17.875 -16.25 C 18 -16.25 18.109375 -16.195312 18.203125 -16.09375 C 18.304688 -16 18.359375 -15.890625 18.359375 -15.765625 L 18.359375 -13.515625 C 18.359375 -13.390625 18.304688 -13.273438 18.203125 -13.171875 C 18.109375 -13.078125 18 -13.03125 17.875 -13.03125 L 6.140625 -13.03125 C 5.992188 -13.03125 5.832031 -12.941406 5.65625 -12.765625 Z M 4.609375 -11.796875 "/></g></g></g><path fill="#48dcfd" d="M 105.566406 199.71875 C 104.78125 199.71875 104.144531 199.082031 104.144531 198.292969 L 104.144531 190.058594 C 104.144531 189.925781 104.164062 189.796875 104.199219 189.675781 L 97.023438 180.472656 L 88.785156 180.472656 C 88 180.472656 87.363281 179.835938 87.363281 179.050781 L 87.363281 170.8125 C 87.363281 170.027344 88 169.390625 88.785156 169.390625 L 97.023438 169.390625 C 97.164062 169.390625 97.304688 169.414062 97.433594 169.453125 L 102.886719 162.328125 C 102.871094 162.246094 102.863281 162.164062 102.863281 162.078125 L 102.863281 153.84375 C 102.863281 153.820312 102.867188 153.796875 102.867188 153.773438 L 97.160156 145.625 L 90.273438 145.625 C 89.609375 145.625 89.070312 145.085938 89.070312 144.421875 L 89.070312 137.457031 C 89.070312 136.792969 89.609375 136.253906 90.273438 136.253906 L 97.242188 136.253906 C 97.414062 136.253906 97.574219 136.289062 97.722656 136.355469 L 103.003906 131.925781 C 101.699219 120.296875 84.179688 121.59375 84.179688 133.628906 L 84.179688 213.179688 C 85.667969 222.496094 97.511719 223.007812 101.34375 214.214844 C 108.457031 217.117188 117.171875 210 115.855469 202.628906 L 113.351562 199.71875 Z M 89.996094 155.214844 C 89.996094 154.429688 90.632812 153.792969 91.417969 153.792969 L 96.011719 153.792969 C 96.796875 153.792969 97.433594 154.429688 97.433594 155.214844 L 97.433594 159.804688 C 97.433594 160.589844 96.796875 161.226562 96.011719 161.226562 L 91.417969 161.226562 C 90.632812 161.226562 89.996094 160.589844 89.996094 159.804688 Z M 92.632812 210.683594 C 92.632812 211.46875 91.996094 212.105469 91.207031 212.105469 L 88.785156 212.105469 C 88 212.105469 87.363281 211.46875 87.363281 210.683594 L 87.363281 208.257812 C 87.363281 207.472656 88 206.835938 88.785156 206.835938 L 91.207031 206.835938 C 91.996094 206.835938 92.632812 207.472656 92.632812 208.257812 Z M 105.496094 206.472656 C 105.496094 207.257812 104.859375 207.894531 104.074219 207.894531 L 101.652344 207.894531 C 100.867188 207.894531 100.230469 207.257812 100.230469 206.472656 L 100.230469 204.050781 C 100.230469 203.917969 100.25 203.785156 100.285156 203.664062 L 96.0625 198.894531 C 96.046875 198.894531 96.027344 198.898438 96.011719 198.898438 L 91.417969 198.898438 C 90.632812 198.898438 89.996094 198.261719 89.996094 197.472656 L 89.996094 192.882812 C 89.996094 192.097656 90.632812 191.460938 91.417969 191.460938 L 96.011719 191.460938 C 96.796875 191.460938 97.433594 192.097656 97.433594 192.882812 L 97.433594 197.472656 C 97.433594 197.667969 97.394531 197.855469 97.320312 198.027344 L 101.414062 202.648438 C 101.492188 202.636719 101.570312 202.628906 101.652344 202.628906 L 104.074219 202.628906 C 104.859375 202.628906 105.496094 203.265625 105.496094 204.050781 Z M 105.496094 206.472656 " fill-opacity="1" fill-rule="nonzero"/><path fill="#48dcfd" d="M 121.839844 183.371094 L 119.417969 183.371094 C 118.632812 183.371094 117.996094 182.734375 117.996094 181.949219 L 117.996094 179.527344 C 117.996094 178.738281 118.632812 178.101562 119.417969 178.101562 L 121.839844 178.101562 C 122.625 178.101562 123.261719 178.738281 123.261719 179.527344 L 123.261719 181.839844 L 125.820312 183.484375 C 132.902344 179.796875 131.710938 168.214844 124.953125 165.476562 L 115.8125 172.214844 L 115.8125 176.679688 C 115.8125 177.464844 115.175781 178.101562 114.386719 178.101562 L 109.796875 178.101562 C 109.011719 178.101562 108.375 177.464844 108.375 176.679688 L 108.375 172.089844 C 108.375 171.304688 109.011719 170.667969 109.796875 170.667969 L 114.386719 170.667969 C 114.644531 170.667969 114.886719 170.738281 115.09375 170.855469 L 125.441406 163.234375 C 127.71875 158.882812 126.96875 150.078125 118.214844 148.484375 L 113.882812 153.429688 C 113.921875 153.5625 113.945312 153.699219 113.945312 153.84375 L 113.945312 162.078125 C 113.945312 162.863281 113.308594 163.5 112.523438 163.5 L 104.285156 163.5 C 104.164062 163.5 104.046875 163.484375 103.933594 163.457031 L 98.433594 170.644531 C 98.441406 170.699219 98.445312 170.757812 98.445312 170.8125 L 98.445312 179.050781 C 98.445312 179.265625 98.394531 179.46875 98.308594 179.652344 L 105.332031 188.65625 C 105.40625 188.644531 105.488281 188.636719 105.566406 188.636719 L 113.804688 188.636719 C 114.589844 188.636719 115.226562 189.273438 115.226562 190.058594 L 115.226562 198.296875 C 115.226562 198.636719 115.105469 198.949219 114.902344 199.195312 L 116.53125 201.089844 C 123.359375 201.75 130.574219 192.800781 126.285156 185.582031 L 122.542969 183.183594 C 122.335938 183.300781 122.097656 183.371094 121.839844 183.371094 Z M 121.839844 183.371094 " fill-opacity="1" fill-rule="nonzero"/><path fill="#48dcfd" d="M 98.445312 144.421875 C 98.445312 144.535156 98.425781 144.644531 98.398438 144.75 L 103.824219 152.5 C 103.96875 152.449219 104.125 152.421875 104.285156 152.421875 L 112.519531 152.421875 C 112.59375 152.421875 112.664062 152.429688 112.734375 152.4375 L 117.984375 146.445312 C 120.125 138.65625 112.160156 130.792969 104.066406 133.007812 L 98.445312 137.730469 Z M 106.269531 141.410156 C 106.269531 140.625 106.90625 139.988281 107.691406 139.988281 L 110.113281 139.988281 C 110.898438 139.988281 111.535156 140.625 111.535156 141.410156 L 111.535156 143.832031 C 111.535156 144.617188 110.898438 145.253906 110.113281 145.253906 L 107.691406 145.253906 C 106.90625 145.253906 106.269531 144.617188 106.269531 143.832031 Z M 106.269531 141.410156 " fill-opacity="1" fill-rule="nonzero"/><path fill="#48dcfd" d="M 41.683594 171.347656 L 84.308594 171.347656 L 84.308594 173.019531 L 41.683594 173.019531 Z M 41.683594 171.347656 " fill-opacity="1" fill-rule="nonzero"/><path fill="#48dcfd" d="M 84.308594 164.738281 L 60.96875 164.738281 L 55.683594 155.582031 L 43.59375 155.582031 L 43.59375 153.910156 L 56.648438 153.910156 L 61.933594 163.066406 L 84.308594 163.066406 Z M 84.308594 164.738281 " fill-opacity="1" fill-rule="nonzero"/><path fill="#48dcfd" d="M 56.648438 190.457031 L 43.59375 190.457031 L 43.59375 188.785156 L 55.683594 188.785156 L 60.96875 179.628906 L 84.308594 179.628906 L 84.308594 181.300781 L 61.933594 181.300781 Z M 56.648438 190.457031 " fill-opacity="1" fill-rule="nonzero"/><path fill="#48dcfd" d="M 84.308594 152.320312 L 71.214844 152.320312 L 63.90625 139.664062 L 52.828125 139.664062 L 52.828125 137.988281 L 64.871094 137.988281 L 72.179688 150.648438 L 84.308594 150.648438 Z M 84.308594 152.320312 " fill-opacity="1" fill-rule="nonzero"/><path fill="#48dcfd" d="M 64.871094 206.378906 L 52.828125 206.378906 L 52.828125 204.707031 L 63.90625 204.707031 L 71.214844 192.046875 L 84.308594 192.046875 L 84.308594 193.71875 L 72.179688 193.71875 Z M 64.871094 206.378906 " fill-opacity="1" fill-rule="nonzero"/><path fill="#48dcfd" d="M 42.261719 156.5 L 42.261719 152.996094 C 42.261719 152.441406 42.710938 151.992188 43.265625 151.992188 L 46.769531 151.992188 C 47.324219 151.992188 47.773438 152.441406 47.773438 152.996094 L 47.773438 156.5 C 47.773438 157.054688 47.324219 157.503906 46.769531 157.503906 L 43.265625 157.503906 C 42.710938 157.503906 42.261719 157.054688 42.261719 156.5 Z M 42.261719 156.5 " fill-opacity="1" fill-rule="nonzero"/><path fill="#48dcfd" d="M 42.261719 191.371094 L 42.261719 187.867188 C 42.261719 187.3125 42.710938 186.863281 43.265625 186.863281 L 46.769531 186.863281 C 47.324219 186.863281 47.773438 187.3125 47.773438 187.867188 L 47.773438 191.371094 C 47.773438 191.925781 47.324219 192.375 46.769531 192.375 L 43.265625 192.375 C 42.710938 192.375 42.261719 191.925781 42.261719 191.371094 Z M 42.261719 191.371094 " fill-opacity="1" fill-rule="nonzero"/><g clip-path="url(#6fcfc76138)"><path fill="#48dcfd" d="M 37.503906 173.933594 L 37.503906 170.433594 C 37.503906 169.878906 37.953125 169.429688 38.507812 169.429688 L 42.007812 169.429688 C 42.5625 169.429688 43.011719 169.878906 43.011719 170.433594 L 43.011719 173.933594 C 43.011719 174.488281 42.5625 174.941406 42.007812 174.941406 L 38.507812 174.941406 C 37.953125 174.941406 37.503906 174.488281 37.503906 173.933594 Z M 37.503906 173.933594 " fill-opacity="1" fill-rule="nonzero"/></g><path fill="#48dcfd" d="M 51.5 140.578125 L 51.5 137.074219 C 51.5 136.519531 51.949219 136.070312 52.503906 136.070312 L 56.007812 136.070312 C 56.5625 136.070312 57.011719 136.519531 57.011719 137.074219 L 57.011719 140.578125 C 57.011719 141.132812 56.5625 141.582031 56.007812 141.582031 L 52.503906 141.582031 C 51.949219 141.582031 51.5 141.132812 51.5 140.578125 Z M 51.5 140.578125 " fill-opacity="1" fill-rule="nonzero"/><path fill="#48dcfd" d="M 51.5 207.292969 L 51.5 203.789062 C 51.5 203.234375 51.949219 202.785156 52.503906 202.785156 L 56.007812 202.785156 C 56.5625 202.785156 57.011719 203.234375 57.011719 203.789062 L 57.011719 207.292969 C 57.011719 207.847656 56.5625 208.296875 56.007812 208.296875 L 52.503906 208.296875 C 51.949219 208.296875 51.5 207.847656 51.5 207.292969 Z M 51.5 207.292969 " fill-opacity="1" fill-rule="nonzero"/></svg>