<svg xmlns="http://www.w3.org/2000/svg" xmlns:xlink="http://www.w3.org/1999/xlink" width="500" zoomAndPan="magnify" viewBox="0 0 375 374.999991" height="500" preserveAspectRatio="xMidYMid meet" version="1.0"><defs><g/><clipPath id="b4df5f9e39"><path d="M 139.792969 160 L 146 160 L 146 166 L 139.792969 166 Z M 139.792969 160 " clip-rule="nonzero"/></clipPath></defs><path fill="#02b2e8" d="M 207.863281 190.589844 C 207.078125 190.589844 206.441406 189.953125 206.441406 189.167969 L 206.441406 180.933594 C 206.441406 180.796875 206.460938 180.667969 206.492188 180.546875 L 199.316406 171.34375 L 191.082031 171.34375 C 190.296875 171.34375 189.660156 170.707031 189.660156 169.921875 L 189.660156 161.6875 C 189.660156 160.902344 190.296875 160.265625 191.082031 160.265625 L 199.316406 160.265625 C 199.460938 160.265625 199.597656 160.285156 199.730469 160.324219 L 205.179688 153.203125 C 205.167969 153.121094 205.15625 153.039062 205.15625 152.953125 L 205.15625 144.714844 C 205.15625 144.691406 205.160156 144.667969 205.160156 144.644531 L 199.457031 136.5 L 192.570312 136.5 C 191.90625 136.5 191.367188 135.960938 191.367188 135.296875 L 191.367188 128.328125 C 191.367188 127.664062 191.90625 127.125 192.570312 127.125 L 199.535156 127.125 C 199.707031 127.125 199.871094 127.164062 200.019531 127.226562 L 205.296875 122.796875 C 203.992188 111.167969 186.472656 112.464844 186.472656 124.5 L 186.472656 204.050781 C 187.960938 213.371094 199.808594 213.882812 203.640625 205.089844 C 210.75 207.988281 219.464844 200.871094 218.148438 193.5 L 215.648438 190.589844 Z M 192.292969 146.085938 C 192.292969 145.300781 192.929688 144.664062 193.714844 144.664062 L 198.304688 144.664062 C 199.089844 144.664062 199.726562 145.300781 199.726562 146.085938 L 199.726562 150.675781 C 199.726562 151.460938 199.089844 152.097656 198.304688 152.097656 L 193.714844 152.097656 C 192.929688 152.097656 192.292969 151.460938 192.292969 150.675781 Z M 194.925781 201.554688 C 194.925781 202.339844 194.289062 202.976562 193.503906 202.976562 L 191.082031 202.976562 C 190.296875 202.976562 189.660156 202.339844 189.660156 201.554688 L 189.660156 199.132812 C 189.660156 198.347656 190.296875 197.710938 191.082031 197.710938 L 193.503906 197.710938 C 194.289062 197.710938 194.925781 198.347656 194.925781 199.132812 Z M 207.792969 197.347656 C 207.792969 198.132812 207.15625 198.769531 206.371094 198.769531 L 203.945312 198.769531 C 203.160156 198.769531 202.523438 198.132812 202.523438 197.347656 L 202.523438 194.921875 C 202.523438 194.789062 202.542969 194.660156 202.578125 194.535156 L 198.359375 189.765625 C 198.339844 189.765625 198.324219 189.769531 198.304688 189.769531 L 193.714844 189.769531 C 192.929688 189.769531 192.292969 189.132812 192.292969 188.347656 L 192.292969 183.757812 C 192.292969 182.96875 192.929688 182.332031 193.714844 182.332031 L 198.304688 182.332031 C 199.089844 182.332031 199.726562 182.96875 199.726562 183.757812 L 199.726562 188.347656 C 199.726562 188.542969 199.6875 188.730469 199.617188 188.898438 L 203.707031 193.523438 C 203.785156 193.507812 203.863281 193.5 203.945312 193.5 L 206.371094 193.5 C 207.15625 193.5 207.792969 194.136719 207.792969 194.921875 Z M 207.792969 197.347656 " fill-opacity="1" fill-rule="nonzero"/><path fill="#02b2e8" d="M 224.136719 174.242188 L 221.710938 174.242188 C 220.925781 174.242188 220.289062 173.605469 220.289062 172.820312 L 220.289062 170.398438 C 220.289062 169.613281 220.925781 168.976562 221.710938 168.976562 L 224.136719 168.976562 C 224.921875 168.976562 225.558594 169.613281 225.558594 170.398438 L 225.558594 172.714844 L 228.113281 174.355469 C 235.199219 170.667969 234.003906 159.089844 227.25 156.351562 L 218.105469 163.085938 L 218.105469 167.554688 C 218.105469 168.339844 217.46875 168.976562 216.683594 168.976562 L 212.09375 168.976562 C 211.308594 168.976562 210.667969 168.339844 210.667969 167.554688 L 210.667969 162.960938 C 210.667969 162.175781 211.308594 161.539062 212.09375 161.539062 L 216.683594 161.539062 C 216.941406 161.539062 217.183594 161.609375 217.390625 161.730469 L 227.734375 154.109375 C 230.015625 149.757812 229.261719 140.949219 220.507812 139.359375 L 216.175781 144.304688 C 216.214844 144.433594 216.238281 144.570312 216.238281 144.714844 L 216.238281 152.953125 C 216.238281 153.738281 215.601562 154.375 214.816406 154.375 L 206.582031 154.375 C 206.460938 154.375 206.34375 154.355469 206.230469 154.328125 L 200.726562 161.515625 C 200.734375 161.574219 200.738281 161.628906 200.738281 161.6875 L 200.738281 169.921875 C 200.738281 170.136719 200.691406 170.34375 200.601562 170.527344 L 207.625 179.53125 C 207.703125 179.519531 207.78125 179.507812 207.863281 179.507812 L 216.097656 179.507812 C 216.882812 179.507812 217.519531 180.144531 217.519531 180.933594 L 217.519531 189.167969 C 217.519531 189.507812 217.398438 189.824219 217.199219 190.066406 L 218.824219 191.960938 C 225.652344 192.625 232.871094 183.671875 228.578125 176.457031 L 224.839844 174.054688 C 224.632812 174.175781 224.390625 174.242188 224.136719 174.242188 Z M 224.136719 174.242188 " fill-opacity="1" fill-rule="nonzero"/><path fill="#02b2e8" d="M 200.738281 135.296875 C 200.738281 135.410156 200.722656 135.519531 200.691406 135.621094 L 206.121094 143.371094 C 206.265625 143.320312 206.417969 143.292969 206.582031 143.292969 L 214.816406 143.292969 C 214.890625 143.292969 214.960938 143.300781 215.027344 143.3125 L 220.277344 137.320312 C 222.417969 129.527344 214.453125 121.664062 206.363281 123.882812 L 200.738281 128.605469 Z M 208.5625 132.28125 C 208.5625 131.496094 209.199219 130.859375 209.984375 130.859375 L 212.40625 130.859375 C 213.195312 130.859375 213.832031 131.496094 213.832031 132.28125 L 213.832031 134.703125 C 213.832031 135.492188 213.195312 136.128906 212.40625 136.128906 L 209.984375 136.128906 C 209.199219 136.128906 208.5625 135.492188 208.5625 134.703125 Z M 208.5625 132.28125 " fill-opacity="1" fill-rule="nonzero"/><path fill="#02b2e8" d="M 143.980469 162.21875 L 186.601562 162.21875 L 186.601562 163.890625 L 143.980469 163.890625 Z M 143.980469 162.21875 " fill-opacity="1" fill-rule="nonzero"/><path fill="#02b2e8" d="M 186.601562 155.613281 L 163.265625 155.613281 L 157.976562 146.457031 L 145.886719 146.457031 L 145.886719 144.785156 L 158.945312 144.785156 L 164.230469 153.941406 L 186.601562 153.941406 Z M 186.601562 155.613281 " fill-opacity="1" fill-rule="nonzero"/><path fill="#02b2e8" d="M 158.945312 181.328125 L 145.886719 181.328125 L 145.886719 179.65625 L 157.976562 179.65625 L 163.265625 170.5 L 186.601562 170.5 L 186.601562 172.171875 L 164.230469 172.171875 Z M 158.945312 181.328125 " fill-opacity="1" fill-rule="nonzero"/><path fill="#02b2e8" d="M 186.601562 143.195312 L 173.511719 143.195312 L 166.203125 130.535156 L 155.125 130.535156 L 155.125 128.863281 L 167.167969 128.863281 L 174.476562 141.523438 L 186.601562 141.523438 Z M 186.601562 143.195312 " fill-opacity="1" fill-rule="nonzero"/><path fill="#02b2e8" d="M 167.167969 197.25 L 155.125 197.25 L 155.125 195.578125 L 166.203125 195.578125 L 173.511719 182.917969 L 186.601562 182.917969 L 186.601562 184.589844 L 174.476562 184.589844 Z M 167.167969 197.25 " fill-opacity="1" fill-rule="nonzero"/><path fill="#02b2e8" d="M 144.558594 147.371094 L 144.558594 143.867188 C 144.558594 143.3125 145.007812 142.863281 145.5625 142.863281 L 149.066406 142.863281 C 149.621094 142.863281 150.070312 143.3125 150.070312 143.867188 L 150.070312 147.371094 C 150.070312 147.925781 149.621094 148.375 149.066406 148.375 L 145.5625 148.375 C 145.007812 148.375 144.558594 147.925781 144.558594 147.371094 Z M 144.558594 147.371094 " fill-opacity="1" fill-rule="nonzero"/><path fill="#02b2e8" d="M 144.558594 182.246094 L 144.558594 178.742188 C 144.558594 178.1875 145.007812 177.738281 145.5625 177.738281 L 149.066406 177.738281 C 149.621094 177.738281 150.070312 178.1875 150.070312 178.742188 L 150.070312 182.246094 C 150.070312 182.796875 149.621094 183.25 149.066406 183.25 L 145.5625 183.25 C 145.007812 183.25 144.558594 182.796875 144.558594 182.246094 Z M 144.558594 182.246094 " fill-opacity="1" fill-rule="nonzero"/><g clip-path="url(#b4df5f9e39)"><path fill="#02b2e8" d="M 139.796875 164.808594 L 139.796875 161.304688 C 139.796875 160.75 140.246094 160.300781 140.800781 160.300781 L 144.304688 160.300781 C 144.859375 160.300781 145.308594 160.75 145.308594 161.304688 L 145.308594 164.808594 C 145.308594 165.363281 144.859375 165.8125 144.304688 165.8125 L 140.800781 165.8125 C 140.246094 165.8125 139.796875 165.363281 139.796875 164.808594 Z M 139.796875 164.808594 " fill-opacity="1" fill-rule="nonzero"/></g><path fill="#02b2e8" d="M 153.792969 131.449219 L 153.792969 127.949219 C 153.792969 127.394531 154.242188 126.941406 154.796875 126.941406 L 158.300781 126.941406 C 158.855469 126.941406 159.304688 127.394531 159.304688 127.949219 L 159.304688 131.449219 C 159.304688 132.003906 158.855469 132.453125 158.300781 132.453125 L 154.796875 132.453125 C 154.242188 132.453125 153.792969 132.003906 153.792969 131.449219 Z M 153.792969 131.449219 " fill-opacity="1" fill-rule="nonzero"/><path fill="#02b2e8" d="M 153.792969 198.164062 L 153.792969 194.664062 C 153.792969 194.109375 154.242188 193.660156 154.796875 193.660156 L 158.300781 193.660156 C 158.855469 193.660156 159.304688 194.109375 159.304688 194.664062 L 159.304688 198.164062 C 159.304688 198.71875 158.855469 199.171875 158.300781 199.171875 L 154.796875 199.171875 C 154.242188 199.171875 153.792969 198.71875 153.792969 198.164062 Z M 153.792969 198.164062 " fill-opacity="1" fill-rule="nonzero"/><g fill="#737373" fill-opacity="1"><g transform="translate(87.147151, 263.466955)"><g><path d="M 9.0625 -1.96875 C 9.0625 -1.695312 9.007812 -1.457031 8.90625 -1.25 C 8.8125 -1.039062 8.675781 -0.859375 8.5 -0.703125 C 8.332031 -0.546875 8.128906 -0.414062 7.890625 -0.3125 C 7.648438 -0.207031 7.390625 -0.117188 7.109375 -0.046875 C 6.828125 0.015625 6.53125 0.0546875 6.21875 0.078125 C 5.90625 0.109375 5.585938 0.125 5.265625 0.125 C 4.804688 0.125 4.351562 0.0976562 3.90625 0.046875 C 3.457031 0.00390625 3.035156 -0.046875 2.640625 -0.109375 C 2.253906 -0.179688 1.910156 -0.257812 1.609375 -0.34375 C 1.316406 -0.425781 1.097656 -0.503906 0.953125 -0.578125 C 0.890625 -0.597656 0.84375 -0.628906 0.8125 -0.671875 C 0.789062 -0.722656 0.78125 -0.769531 0.78125 -0.8125 C 0.78125 -0.863281 0.789062 -0.90625 0.8125 -0.9375 C 0.84375 -0.976562 0.882812 -1 0.9375 -1 C 0.96875 -1 1 -0.992188 1.03125 -0.984375 C 1.195312 -0.910156 1.429688 -0.832031 1.734375 -0.75 C 2.046875 -0.675781 2.394531 -0.601562 2.78125 -0.53125 C 3.175781 -0.46875 3.59375 -0.410156 4.03125 -0.359375 C 4.476562 -0.316406 4.921875 -0.296875 5.359375 -0.296875 C 5.785156 -0.296875 6.1875 -0.320312 6.5625 -0.375 C 6.945312 -0.425781 7.28125 -0.515625 7.5625 -0.640625 C 7.851562 -0.773438 8.082031 -0.953125 8.25 -1.171875 C 8.425781 -1.390625 8.515625 -1.65625 8.515625 -1.96875 C 8.515625 -2.238281 8.441406 -2.457031 8.296875 -2.625 C 8.148438 -2.800781 7.953125 -2.941406 7.703125 -3.046875 C 7.453125 -3.148438 7.160156 -3.226562 6.828125 -3.28125 C 6.492188 -3.332031 6.140625 -3.367188 5.765625 -3.390625 C 5.390625 -3.421875 5.003906 -3.441406 4.609375 -3.453125 C 4.210938 -3.472656 3.828125 -3.5 3.453125 -3.53125 C 3.078125 -3.570312 2.722656 -3.625 2.390625 -3.6875 C 2.054688 -3.75 1.765625 -3.835938 1.515625 -3.953125 C 1.265625 -4.078125 1.066406 -4.238281 0.921875 -4.4375 C 0.773438 -4.632812 0.703125 -4.878906 0.703125 -5.171875 C 0.703125 -5.441406 0.75 -5.679688 0.84375 -5.890625 C 0.945312 -6.097656 1.085938 -6.273438 1.265625 -6.421875 C 1.441406 -6.578125 1.648438 -6.703125 1.890625 -6.796875 C 2.140625 -6.898438 2.40625 -6.976562 2.6875 -7.03125 C 2.976562 -7.09375 3.28125 -7.132812 3.59375 -7.15625 C 3.90625 -7.1875 4.222656 -7.203125 4.546875 -7.203125 C 4.941406 -7.203125 5.328125 -7.179688 5.703125 -7.140625 C 6.085938 -7.109375 6.445312 -7.0625 6.78125 -7 C 7.113281 -6.9375 7.410156 -6.867188 7.671875 -6.796875 C 7.941406 -6.722656 8.160156 -6.648438 8.328125 -6.578125 C 8.359375 -6.554688 8.378906 -6.53125 8.390625 -6.5 C 8.410156 -6.46875 8.421875 -6.4375 8.421875 -6.40625 C 8.421875 -6.34375 8.398438 -6.285156 8.359375 -6.234375 C 8.316406 -6.179688 8.257812 -6.15625 8.1875 -6.15625 C 8.144531 -6.15625 8.113281 -6.164062 8.09375 -6.1875 C 7.863281 -6.28125 7.613281 -6.363281 7.34375 -6.4375 C 7.070312 -6.507812 6.78125 -6.570312 6.46875 -6.625 C 6.164062 -6.675781 5.851562 -6.710938 5.53125 -6.734375 C 5.207031 -6.765625 4.890625 -6.78125 4.578125 -6.78125 C 4.128906 -6.78125 3.703125 -6.753906 3.296875 -6.703125 C 2.898438 -6.660156 2.546875 -6.578125 2.234375 -6.453125 C 1.929688 -6.328125 1.6875 -6.164062 1.5 -5.96875 C 1.320312 -5.769531 1.234375 -5.519531 1.234375 -5.21875 C 1.234375 -4.976562 1.304688 -4.785156 1.453125 -4.640625 C 1.597656 -4.492188 1.796875 -4.375 2.046875 -4.28125 C 2.296875 -4.195312 2.585938 -4.132812 2.921875 -4.09375 C 3.253906 -4.050781 3.609375 -4.015625 3.984375 -3.984375 C 4.359375 -3.960938 4.742188 -3.941406 5.140625 -3.921875 C 5.546875 -3.898438 5.9375 -3.867188 6.3125 -3.828125 C 6.6875 -3.785156 7.039062 -3.722656 7.375 -3.640625 C 7.707031 -3.554688 8 -3.445312 8.25 -3.3125 C 8.5 -3.175781 8.695312 -3 8.84375 -2.78125 C 8.988281 -2.5625 9.0625 -2.289062 9.0625 -1.96875 Z M 9.0625 -1.96875 "/></g></g></g><g fill="#737373" fill-opacity="1"><g transform="translate(100.286592, 263.466955)"><g><path d="M 10.109375 -3.53125 C 10.109375 -2.914062 10.015625 -2.378906 9.828125 -1.921875 C 9.640625 -1.460938 9.351562 -1.078125 8.96875 -0.765625 C 8.59375 -0.460938 8.109375 -0.234375 7.515625 -0.078125 C 6.929688 0.0664062 6.238281 0.140625 5.4375 0.140625 C 4.632812 0.140625 3.9375 0.0664062 3.34375 -0.078125 C 2.757812 -0.234375 2.273438 -0.460938 1.890625 -0.765625 C 1.515625 -1.078125 1.234375 -1.460938 1.046875 -1.921875 C 0.867188 -2.378906 0.78125 -2.914062 0.78125 -3.53125 C 0.78125 -4.15625 0.867188 -4.695312 1.046875 -5.15625 C 1.234375 -5.613281 1.515625 -5.992188 1.890625 -6.296875 C 2.273438 -6.597656 2.757812 -6.820312 3.34375 -6.96875 C 3.9375 -7.125 4.632812 -7.203125 5.4375 -7.203125 C 6.238281 -7.203125 6.929688 -7.125 7.515625 -6.96875 C 8.109375 -6.820312 8.59375 -6.597656 8.96875 -6.296875 C 9.351562 -5.992188 9.640625 -5.613281 9.828125 -5.15625 C 10.015625 -4.695312 10.109375 -4.15625 10.109375 -3.53125 Z M 1.328125 -3.53125 C 1.328125 -2.9375 1.410156 -2.4375 1.578125 -2.03125 C 1.742188 -1.625 1.992188 -1.289062 2.328125 -1.03125 C 2.671875 -0.769531 3.101562 -0.578125 3.625 -0.453125 C 4.144531 -0.335938 4.75 -0.28125 5.4375 -0.28125 C 6.132812 -0.28125 6.738281 -0.335938 7.25 -0.453125 C 7.769531 -0.578125 8.203125 -0.769531 8.546875 -1.03125 C 8.890625 -1.289062 9.144531 -1.625 9.3125 -2.03125 C 9.476562 -2.4375 9.5625 -2.9375 9.5625 -3.53125 C 9.5625 -4.125 9.476562 -4.625 9.3125 -5.03125 C 9.144531 -5.445312 8.890625 -5.785156 8.546875 -6.046875 C 8.203125 -6.304688 7.769531 -6.492188 7.25 -6.609375 C 6.738281 -6.722656 6.132812 -6.78125 5.4375 -6.78125 C 4.75 -6.78125 4.144531 -6.722656 3.625 -6.609375 C 3.101562 -6.492188 2.671875 -6.304688 2.328125 -6.046875 C 1.992188 -5.785156 1.742188 -5.445312 1.578125 -5.03125 C 1.410156 -4.625 1.328125 -4.125 1.328125 -3.53125 Z M 1.328125 -3.53125 "/></g></g></g><g fill="#737373" fill-opacity="1"><g transform="translate(114.536546, 263.466955)"><g><path d="M 1.28125 0 C 1.21875 0 1.164062 0 1.125 0 C 1.09375 -0.0078125 1.066406 -0.0195312 1.046875 -0.03125 C 1.023438 -0.0507812 1.015625 -0.078125 1.015625 -0.109375 C 1.015625 -0.140625 1.015625 -0.179688 1.015625 -0.234375 L 1.015625 -6.65625 C 1.015625 -6.769531 1.03125 -6.867188 1.0625 -6.953125 C 1.101562 -7.035156 1.1875 -7.078125 1.3125 -7.078125 C 1.414062 -7.078125 1.484375 -7.03125 1.515625 -6.9375 C 1.546875 -6.851562 1.5625 -6.757812 1.5625 -6.65625 L 1.5625 -0.421875 L 7.015625 -0.421875 C 7.097656 -0.421875 7.160156 -0.394531 7.203125 -0.34375 C 7.242188 -0.300781 7.265625 -0.253906 7.265625 -0.203125 C 7.265625 -0.148438 7.242188 -0.101562 7.203125 -0.0625 C 7.160156 -0.0195312 7.097656 0 7.015625 0 Z M 1.28125 0 "/></g></g></g><g fill="#737373" fill-opacity="1"><g transform="translate(125.169422, 263.466955)"><g><path d="M 5.046875 -0.28125 C 5.734375 -0.28125 6.304688 -0.347656 6.765625 -0.484375 C 7.222656 -0.617188 7.59375 -0.820312 7.875 -1.09375 C 8.15625 -1.363281 8.351562 -1.703125 8.46875 -2.109375 C 8.582031 -2.515625 8.640625 -3 8.640625 -3.5625 L 8.640625 -6.625 C 8.640625 -6.738281 8.65625 -6.84375 8.6875 -6.9375 C 8.71875 -7.03125 8.785156 -7.078125 8.890625 -7.078125 C 8.953125 -7.078125 9 -7.0625 9.03125 -7.03125 C 9.070312 -7.007812 9.101562 -6.976562 9.125 -6.9375 C 9.144531 -6.894531 9.15625 -6.84375 9.15625 -6.78125 C 9.164062 -6.726562 9.171875 -6.675781 9.171875 -6.625 L 9.171875 -3.5625 C 9.171875 -2.894531 9.082031 -2.328125 8.90625 -1.859375 C 8.738281 -1.390625 8.484375 -1.003906 8.140625 -0.703125 C 7.796875 -0.410156 7.363281 -0.195312 6.84375 -0.0625 C 6.332031 0.0703125 5.734375 0.140625 5.046875 0.140625 C 4.347656 0.140625 3.738281 0.0703125 3.21875 -0.0625 C 2.707031 -0.195312 2.273438 -0.410156 1.921875 -0.703125 C 1.578125 -1.003906 1.316406 -1.390625 1.140625 -1.859375 C 0.972656 -2.328125 0.890625 -2.894531 0.890625 -3.5625 L 0.890625 -6.625 C 0.890625 -6.675781 0.894531 -6.726562 0.90625 -6.78125 C 0.914062 -6.84375 0.929688 -6.894531 0.953125 -6.9375 C 0.972656 -6.976562 1 -7.007812 1.03125 -7.03125 C 1.0625 -7.0625 1.113281 -7.078125 1.1875 -7.078125 C 1.289062 -7.078125 1.359375 -7.03125 1.390625 -6.9375 C 1.421875 -6.84375 1.4375 -6.738281 1.4375 -6.625 L 1.4375 -3.5625 C 1.4375 -3 1.492188 -2.515625 1.609375 -2.109375 C 1.722656 -1.703125 1.914062 -1.363281 2.1875 -1.09375 C 2.46875 -0.820312 2.835938 -0.617188 3.296875 -0.484375 C 3.765625 -0.347656 4.347656 -0.28125 5.046875 -0.28125 Z M 5.046875 -0.28125 "/></g></g></g><g fill="#737373" fill-opacity="1"><g transform="translate(138.600769, 263.466955)"><g><path d="M 8.40625 -6.84375 C 8.40625 -6.75 8.375 -6.691406 8.3125 -6.671875 C 8.257812 -6.660156 8.1875 -6.65625 8.09375 -6.65625 L 4.546875 -6.65625 L 4.546875 -0.46875 C 4.546875 -0.40625 4.539062 -0.34375 4.53125 -0.28125 C 4.53125 -0.226562 4.519531 -0.179688 4.5 -0.140625 C 4.476562 -0.0976562 4.453125 -0.0625 4.421875 -0.03125 C 4.390625 -0.0078125 4.34375 0 4.28125 0 C 4.164062 0 4.085938 -0.046875 4.046875 -0.140625 C 4.015625 -0.234375 4 -0.34375 4 -0.46875 L 4 -6.65625 L 0.453125 -6.65625 C 0.359375 -6.65625 0.273438 -6.660156 0.203125 -6.671875 C 0.140625 -6.691406 0.109375 -6.75 0.109375 -6.84375 C 0.109375 -6.90625 0.125 -6.953125 0.15625 -6.984375 C 0.1875 -7.015625 0.222656 -7.035156 0.265625 -7.046875 C 0.316406 -7.054688 0.367188 -7.0625 0.421875 -7.0625 C 0.484375 -7.070312 0.535156 -7.078125 0.578125 -7.078125 L 7.953125 -7.078125 C 8.015625 -7.078125 8.070312 -7.070312 8.125 -7.0625 C 8.1875 -7.0625 8.234375 -7.054688 8.265625 -7.046875 C 8.304688 -7.035156 8.335938 -7.015625 8.359375 -6.984375 C 8.390625 -6.953125 8.40625 -6.90625 8.40625 -6.84375 Z M 8.40625 -6.84375 "/></g></g></g><g fill="#737373" fill-opacity="1"><g transform="translate(150.490104, 263.466955)"><g><path d="M 3 -6.65625 L 0.734375 -6.65625 C 0.679688 -6.65625 0.625 -6.65625 0.5625 -6.65625 C 0.507812 -6.65625 0.460938 -6.660156 0.421875 -6.671875 C 0.378906 -6.679688 0.34375 -6.695312 0.3125 -6.71875 C 0.28125 -6.75 0.265625 -6.789062 0.265625 -6.84375 C 0.265625 -6.90625 0.28125 -6.953125 0.3125 -6.984375 C 0.34375 -7.015625 0.378906 -7.035156 0.421875 -7.046875 C 0.472656 -7.066406 0.523438 -7.078125 0.578125 -7.078125 C 0.628906 -7.078125 0.679688 -7.078125 0.734375 -7.078125 L 5.8125 -7.078125 C 5.875 -7.078125 5.929688 -7.078125 5.984375 -7.078125 C 6.035156 -7.078125 6.082031 -7.066406 6.125 -7.046875 C 6.164062 -7.035156 6.195312 -7.015625 6.21875 -6.984375 C 6.25 -6.953125 6.265625 -6.910156 6.265625 -6.859375 C 6.265625 -6.796875 6.25 -6.75 6.21875 -6.71875 C 6.195312 -6.695312 6.164062 -6.679688 6.125 -6.671875 C 6.082031 -6.660156 6.035156 -6.65625 5.984375 -6.65625 C 5.929688 -6.65625 5.875 -6.65625 5.8125 -6.65625 L 3.546875 -6.65625 L 3.546875 -0.421875 L 5.8125 -0.421875 C 5.875 -0.421875 5.929688 -0.421875 5.984375 -0.421875 C 6.035156 -0.421875 6.082031 -0.410156 6.125 -0.390625 C 6.164062 -0.378906 6.195312 -0.359375 6.21875 -0.328125 C 6.25 -0.304688 6.265625 -0.265625 6.265625 -0.203125 C 6.265625 -0.148438 6.25 -0.109375 6.21875 -0.078125 C 6.195312 -0.046875 6.164062 -0.0234375 6.125 -0.015625 C 6.082031 -0.00390625 6.035156 0 5.984375 0 C 5.929688 0 5.875 0 5.8125 0 L 0.734375 0 C 0.679688 0 0.628906 0 0.578125 0 C 0.523438 0 0.472656 -0.00390625 0.421875 -0.015625 C 0.378906 -0.0234375 0.34375 -0.046875 0.3125 -0.078125 C 0.28125 -0.109375 0.265625 -0.15625 0.265625 -0.21875 C 0.265625 -0.269531 0.28125 -0.304688 0.3125 -0.328125 C 0.34375 -0.359375 0.378906 -0.378906 0.421875 -0.390625 C 0.460938 -0.410156 0.507812 -0.421875 0.5625 -0.421875 C 0.625 -0.421875 0.679688 -0.421875 0.734375 -0.421875 L 3 -0.421875 Z M 3 -6.65625 "/></g></g></g><g fill="#737373" fill-opacity="1"><g transform="translate(160.399565, 263.466955)"><g><path d="M 10.109375 -3.53125 C 10.109375 -2.914062 10.015625 -2.378906 9.828125 -1.921875 C 9.640625 -1.460938 9.351562 -1.078125 8.96875 -0.765625 C 8.59375 -0.460938 8.109375 -0.234375 7.515625 -0.078125 C 6.929688 0.0664062 6.238281 0.140625 5.4375 0.140625 C 4.632812 0.140625 3.9375 0.0664062 3.34375 -0.078125 C 2.757812 -0.234375 2.273438 -0.460938 1.890625 -0.765625 C 1.515625 -1.078125 1.234375 -1.460938 1.046875 -1.921875 C 0.867188 -2.378906 0.78125 -2.914062 0.78125 -3.53125 C 0.78125 -4.15625 0.867188 -4.695312 1.046875 -5.15625 C 1.234375 -5.613281 1.515625 -5.992188 1.890625 -6.296875 C 2.273438 -6.597656 2.757812 -6.820312 3.34375 -6.96875 C 3.9375 -7.125 4.632812 -7.203125 5.4375 -7.203125 C 6.238281 -7.203125 6.929688 -7.125 7.515625 -6.96875 C 8.109375 -6.820312 8.59375 -6.597656 8.96875 -6.296875 C 9.351562 -5.992188 9.640625 -5.613281 9.828125 -5.15625 C 10.015625 -4.695312 10.109375 -4.15625 10.109375 -3.53125 Z M 1.328125 -3.53125 C 1.328125 -2.9375 1.410156 -2.4375 1.578125 -2.03125 C 1.742188 -1.625 1.992188 -1.289062 2.328125 -1.03125 C 2.671875 -0.769531 3.101562 -0.578125 3.625 -0.453125 C 4.144531 -0.335938 4.75 -0.28125 5.4375 -0.28125 C 6.132812 -0.28125 6.738281 -0.335938 7.25 -0.453125 C 7.769531 -0.578125 8.203125 -0.769531 8.546875 -1.03125 C 8.890625 -1.289062 9.144531 -1.625 9.3125 -2.03125 C 9.476562 -2.4375 9.5625 -2.9375 9.5625 -3.53125 C 9.5625 -4.125 9.476562 -4.625 9.3125 -5.03125 C 9.144531 -5.445312 8.890625 -5.785156 8.546875 -6.046875 C 8.203125 -6.304688 7.769531 -6.492188 7.25 -6.609375 C 6.738281 -6.722656 6.132812 -6.78125 5.4375 -6.78125 C 4.75 -6.78125 4.144531 -6.722656 3.625 -6.609375 C 3.101562 -6.492188 2.671875 -6.304688 2.328125 -6.046875 C 1.992188 -5.785156 1.742188 -5.445312 1.578125 -5.03125 C 1.410156 -4.625 1.328125 -4.125 1.328125 -3.53125 Z M 1.328125 -3.53125 "/></g></g></g><g fill="#737373" fill-opacity="1"><g transform="translate(174.649518, 263.466955)"><g><path d="M 8.140625 -0.8125 L 8.140625 -6.59375 C 8.140625 -6.65625 8.140625 -6.710938 8.140625 -6.765625 C 8.148438 -6.828125 8.160156 -6.878906 8.171875 -6.921875 C 8.191406 -6.960938 8.21875 -7 8.25 -7.03125 C 8.289062 -7.0625 8.34375 -7.078125 8.40625 -7.078125 C 8.519531 -7.078125 8.59375 -7.023438 8.625 -6.921875 C 8.65625 -6.828125 8.671875 -6.71875 8.671875 -6.59375 L 8.671875 -0.40625 C 8.671875 -0.132812 8.601562 0 8.46875 0 C 8.363281 0 8.238281 -0.0664062 8.09375 -0.203125 L 1.5625 -6.265625 L 1.5625 -0.4375 C 1.5625 -0.320312 1.539062 -0.21875 1.5 -0.125 C 1.46875 -0.0390625 1.398438 0 1.296875 0 C 1.171875 0 1.09375 -0.0390625 1.0625 -0.125 C 1.03125 -0.21875 1.015625 -0.320312 1.015625 -0.4375 L 1.015625 -6.65625 C 1.015625 -6.78125 1.035156 -6.875 1.078125 -6.9375 C 1.128906 -7.007812 1.195312 -7.046875 1.28125 -7.046875 C 1.382812 -7.046875 1.503906 -6.984375 1.640625 -6.859375 Z M 8.140625 -0.8125 "/></g></g></g><g fill="#737373" fill-opacity="1"><g transform="translate(187.706471, 263.466955)"><g><path d="M 9.0625 -1.96875 C 9.0625 -1.695312 9.007812 -1.457031 8.90625 -1.25 C 8.8125 -1.039062 8.675781 -0.859375 8.5 -0.703125 C 8.332031 -0.546875 8.128906 -0.414062 7.890625 -0.3125 C 7.648438 -0.207031 7.390625 -0.117188 7.109375 -0.046875 C 6.828125 0.015625 6.53125 0.0546875 6.21875 0.078125 C 5.90625 0.109375 5.585938 0.125 5.265625 0.125 C 4.804688 0.125 4.351562 0.0976562 3.90625 0.046875 C 3.457031 0.00390625 3.035156 -0.046875 2.640625 -0.109375 C 2.253906 -0.179688 1.910156 -0.257812 1.609375 -0.34375 C 1.316406 -0.425781 1.097656 -0.503906 0.953125 -0.578125 C 0.890625 -0.597656 0.84375 -0.628906 0.8125 -0.671875 C 0.789062 -0.722656 0.78125 -0.769531 0.78125 -0.8125 C 0.78125 -0.863281 0.789062 -0.90625 0.8125 -0.9375 C 0.84375 -0.976562 0.882812 -1 0.9375 -1 C 0.96875 -1 1 -0.992188 1.03125 -0.984375 C 1.195312 -0.910156 1.429688 -0.832031 1.734375 -0.75 C 2.046875 -0.675781 2.394531 -0.601562 2.78125 -0.53125 C 3.175781 -0.46875 3.59375 -0.410156 4.03125 -0.359375 C 4.476562 -0.316406 4.921875 -0.296875 5.359375 -0.296875 C 5.785156 -0.296875 6.1875 -0.320312 6.5625 -0.375 C 6.945312 -0.425781 7.28125 -0.515625 7.5625 -0.640625 C 7.851562 -0.773438 8.082031 -0.953125 8.25 -1.171875 C 8.425781 -1.390625 8.515625 -1.65625 8.515625 -1.96875 C 8.515625 -2.238281 8.441406 -2.457031 8.296875 -2.625 C 8.148438 -2.800781 7.953125 -2.941406 7.703125 -3.046875 C 7.453125 -3.148438 7.160156 -3.226562 6.828125 -3.28125 C 6.492188 -3.332031 6.140625 -3.367188 5.765625 -3.390625 C 5.390625 -3.421875 5.003906 -3.441406 4.609375 -3.453125 C 4.210938 -3.472656 3.828125 -3.5 3.453125 -3.53125 C 3.078125 -3.570312 2.722656 -3.625 2.390625 -3.6875 C 2.054688 -3.75 1.765625 -3.835938 1.515625 -3.953125 C 1.265625 -4.078125 1.066406 -4.238281 0.921875 -4.4375 C 0.773438 -4.632812 0.703125 -4.878906 0.703125 -5.171875 C 0.703125 -5.441406 0.75 -5.679688 0.84375 -5.890625 C 0.945312 -6.097656 1.085938 -6.273438 1.265625 -6.421875 C 1.441406 -6.578125 1.648438 -6.703125 1.890625 -6.796875 C 2.140625 -6.898438 2.40625 -6.976562 2.6875 -7.03125 C 2.976562 -7.09375 3.28125 -7.132812 3.59375 -7.15625 C 3.90625 -7.1875 4.222656 -7.203125 4.546875 -7.203125 C 4.941406 -7.203125 5.328125 -7.179688 5.703125 -7.140625 C 6.085938 -7.109375 6.445312 -7.0625 6.78125 -7 C 7.113281 -6.9375 7.410156 -6.867188 7.671875 -6.796875 C 7.941406 -6.722656 8.160156 -6.648438 8.328125 -6.578125 C 8.359375 -6.554688 8.378906 -6.53125 8.390625 -6.5 C 8.410156 -6.46875 8.421875 -6.4375 8.421875 -6.40625 C 8.421875 -6.34375 8.398438 -6.285156 8.359375 -6.234375 C 8.316406 -6.179688 8.257812 -6.15625 8.1875 -6.15625 C 8.144531 -6.15625 8.113281 -6.164062 8.09375 -6.1875 C 7.863281 -6.28125 7.613281 -6.363281 7.34375 -6.4375 C 7.070312 -6.507812 6.78125 -6.570312 6.46875 -6.625 C 6.164062 -6.675781 5.851562 -6.710938 5.53125 -6.734375 C 5.207031 -6.765625 4.890625 -6.78125 4.578125 -6.78125 C 4.128906 -6.78125 3.703125 -6.753906 3.296875 -6.703125 C 2.898438 -6.660156 2.546875 -6.578125 2.234375 -6.453125 C 1.929688 -6.328125 1.6875 -6.164062 1.5 -5.96875 C 1.320312 -5.769531 1.234375 -5.519531 1.234375 -5.21875 C 1.234375 -4.976562 1.304688 -4.785156 1.453125 -4.640625 C 1.597656 -4.492188 1.796875 -4.375 2.046875 -4.28125 C 2.296875 -4.195312 2.585938 -4.132812 2.921875 -4.09375 C 3.253906 -4.050781 3.609375 -4.015625 3.984375 -3.984375 C 4.359375 -3.960938 4.742188 -3.941406 5.140625 -3.921875 C 5.546875 -3.898438 5.9375 -3.867188 6.3125 -3.828125 C 6.6875 -3.785156 7.039062 -3.722656 7.375 -3.640625 C 7.707031 -3.554688 8 -3.445312 8.25 -3.3125 C 8.5 -3.175781 8.695312 -3 8.84375 -2.78125 C 8.988281 -2.5625 9.0625 -2.289062 9.0625 -1.96875 Z M 9.0625 -1.96875 "/></g></g></g><g fill="#737373" fill-opacity="1"><g transform="translate(200.845913, 263.466955)"><g/></g></g><g fill="#737373" fill-opacity="1"><g transform="translate(207.131946, 263.466955)"><g><path d="M 0.4375 -3.5 C 0.4375 -3.882812 0.457031 -4.265625 0.5 -4.640625 C 0.550781 -5.023438 0.617188 -5.390625 0.703125 -5.734375 C 0.796875 -6.078125 0.910156 -6.394531 1.046875 -6.6875 C 1.191406 -6.976562 1.359375 -7.226562 1.546875 -7.4375 C 1.742188 -7.65625 1.96875 -7.820312 2.21875 -7.9375 C 2.46875 -8.0625 2.742188 -8.125 3.046875 -8.125 C 3.117188 -8.125 3.171875 -8.101562 3.203125 -8.0625 C 3.242188 -8.019531 3.265625 -7.972656 3.265625 -7.921875 C 3.265625 -7.878906 3.242188 -7.832031 3.203125 -7.78125 C 3.171875 -7.738281 3.117188 -7.71875 3.046875 -7.71875 C 2.660156 -7.71875 2.332031 -7.597656 2.0625 -7.359375 C 1.800781 -7.117188 1.585938 -6.800781 1.421875 -6.40625 C 1.253906 -6.007812 1.128906 -5.554688 1.046875 -5.046875 C 0.972656 -4.546875 0.9375 -4.03125 0.9375 -3.5 C 0.9375 -2.96875 0.972656 -2.445312 1.046875 -1.9375 C 1.128906 -1.4375 1.253906 -0.988281 1.421875 -0.59375 C 1.585938 -0.195312 1.800781 0.117188 2.0625 0.359375 C 2.332031 0.597656 2.660156 0.71875 3.046875 0.71875 C 3.117188 0.71875 3.171875 0.738281 3.203125 0.78125 C 3.242188 0.820312 3.265625 0.867188 3.265625 0.921875 C 3.265625 0.972656 3.242188 1.019531 3.203125 1.0625 C 3.171875 1.101562 3.117188 1.125 3.046875 1.125 C 2.742188 1.125 2.46875 1.0625 2.21875 0.9375 C 1.96875 0.820312 1.742188 0.65625 1.546875 0.4375 C 1.359375 0.226562 1.191406 -0.0195312 1.046875 -0.3125 C 0.910156 -0.601562 0.796875 -0.921875 0.703125 -1.265625 C 0.617188 -1.609375 0.550781 -1.96875 0.5 -2.34375 C 0.457031 -2.726562 0.4375 -3.113281 0.4375 -3.5 Z M 0.4375 -3.5 "/></g></g></g><g fill="#737373" fill-opacity="1"><g transform="translate(213.316447, 263.466955)"><g><path d="M 7.328125 -4.546875 C 7.328125 -4.160156 7.28125 -3.835938 7.1875 -3.578125 C 7.09375 -3.316406 6.957031 -3.097656 6.78125 -2.921875 C 6.613281 -2.742188 6.410156 -2.609375 6.171875 -2.515625 C 5.929688 -2.421875 5.664062 -2.347656 5.375 -2.296875 C 5.09375 -2.253906 4.785156 -2.226562 4.453125 -2.21875 C 4.128906 -2.207031 3.796875 -2.203125 3.453125 -2.203125 L 1.5625 -2.203125 L 1.5625 -0.484375 C 1.5625 -0.359375 1.539062 -0.242188 1.5 -0.140625 C 1.46875 -0.046875 1.40625 0 1.3125 0 C 1.1875 0 1.101562 -0.046875 1.0625 -0.140625 C 1.03125 -0.234375 1.015625 -0.347656 1.015625 -0.484375 L 1.015625 -6.84375 C 1.015625 -6.90625 1.019531 -6.953125 1.03125 -6.984375 C 1.039062 -7.015625 1.054688 -7.035156 1.078125 -7.046875 C 1.109375 -7.054688 1.144531 -7.0625 1.1875 -7.0625 C 1.226562 -7.070312 1.28125 -7.078125 1.34375 -7.078125 L 3.453125 -7.078125 C 3.835938 -7.078125 4.195312 -7.066406 4.53125 -7.046875 C 4.875 -7.023438 5.1875 -6.976562 5.46875 -6.90625 C 5.757812 -6.84375 6.019531 -6.753906 6.25 -6.640625 C 6.476562 -6.523438 6.671875 -6.375 6.828125 -6.1875 C 6.992188 -6 7.117188 -5.769531 7.203125 -5.5 C 7.285156 -5.238281 7.328125 -4.921875 7.328125 -4.546875 Z M 6.78125 -4.546875 C 6.78125 -4.992188 6.710938 -5.351562 6.578125 -5.625 C 6.453125 -5.894531 6.25 -6.109375 5.96875 -6.265625 C 5.695312 -6.421875 5.351562 -6.523438 4.9375 -6.578125 C 4.519531 -6.628906 4.023438 -6.65625 3.453125 -6.65625 L 1.5625 -6.65625 L 1.5625 -2.609375 L 3.453125 -2.609375 C 4.023438 -2.609375 4.519531 -2.625 4.9375 -2.65625 C 5.363281 -2.6875 5.710938 -2.769531 5.984375 -2.90625 C 6.253906 -3.039062 6.453125 -3.238281 6.578125 -3.5 C 6.710938 -3.757812 6.78125 -4.109375 6.78125 -4.546875 Z M 6.78125 -4.546875 "/></g></g></g><g fill="#737373" fill-opacity="1"><g transform="translate(224.215845, 263.466955)"><g><path d="M 4.53125 -0.578125 L 8.15625 -6.75 C 8.207031 -6.832031 8.253906 -6.898438 8.296875 -6.953125 C 8.347656 -7.015625 8.40625 -7.050781 8.46875 -7.0625 C 8.550781 -7.0625 8.609375 -7.035156 8.640625 -6.984375 C 8.671875 -6.929688 8.6875 -6.882812 8.6875 -6.84375 C 8.6875 -6.789062 8.671875 -6.738281 8.640625 -6.6875 C 8.617188 -6.632812 8.59375 -6.582031 8.5625 -6.53125 L 4.859375 -0.21875 C 4.804688 -0.144531 4.75 -0.0859375 4.6875 -0.046875 C 4.632812 -0.015625 4.582031 0 4.53125 0 C 4.394531 0 4.285156 -0.0703125 4.203125 -0.21875 L 0.484375 -6.53125 C 0.453125 -6.59375 0.425781 -6.648438 0.40625 -6.703125 C 0.382812 -6.753906 0.375 -6.804688 0.375 -6.859375 C 0.375 -6.890625 0.390625 -6.929688 0.421875 -6.984375 C 0.453125 -7.035156 0.503906 -7.0625 0.578125 -7.0625 C 0.648438 -7.050781 0.707031 -7.015625 0.75 -6.953125 C 0.800781 -6.898438 0.851562 -6.832031 0.90625 -6.75 Z M 4.53125 -0.578125 "/></g></g></g><g fill="#737373" fill-opacity="1"><g transform="translate(236.638223, 263.466955)"><g><path d="M 8.40625 -6.84375 C 8.40625 -6.75 8.375 -6.691406 8.3125 -6.671875 C 8.257812 -6.660156 8.1875 -6.65625 8.09375 -6.65625 L 4.546875 -6.65625 L 4.546875 -0.46875 C 4.546875 -0.40625 4.539062 -0.34375 4.53125 -0.28125 C 4.53125 -0.226562 4.519531 -0.179688 4.5 -0.140625 C 4.476562 -0.0976562 4.453125 -0.0625 4.421875 -0.03125 C 4.390625 -0.0078125 4.34375 0 4.28125 0 C 4.164062 0 4.085938 -0.046875 4.046875 -0.140625 C 4.015625 -0.234375 4 -0.34375 4 -0.46875 L 4 -6.65625 L 0.453125 -6.65625 C 0.359375 -6.65625 0.273438 -6.660156 0.203125 -6.671875 C 0.140625 -6.691406 0.109375 -6.75 0.109375 -6.84375 C 0.109375 -6.90625 0.125 -6.953125 0.15625 -6.984375 C 0.1875 -7.015625 0.222656 -7.035156 0.265625 -7.046875 C 0.316406 -7.054688 0.367188 -7.0625 0.421875 -7.0625 C 0.484375 -7.070312 0.535156 -7.078125 0.578125 -7.078125 L 7.953125 -7.078125 C 8.015625 -7.078125 8.070312 -7.070312 8.125 -7.0625 C 8.1875 -7.0625 8.234375 -7.054688 8.265625 -7.046875 C 8.304688 -7.035156 8.335938 -7.015625 8.359375 -6.984375 C 8.390625 -6.953125 8.40625 -6.90625 8.40625 -6.84375 Z M 8.40625 -6.84375 "/></g></g></g><g fill="#737373" fill-opacity="1"><g transform="translate(248.527558, 263.466955)"><g><path d="M 2.375 -3.5 C 2.375 -3.101562 2.351562 -2.71875 2.3125 -2.34375 C 2.269531 -1.96875 2.203125 -1.609375 2.109375 -1.265625 C 2.015625 -0.921875 1.898438 -0.601562 1.765625 -0.3125 C 1.628906 -0.0195312 1.460938 0.226562 1.265625 0.4375 C 1.078125 0.65625 0.859375 0.820312 0.609375 0.9375 C 0.359375 1.0625 0.078125 1.125 -0.234375 1.125 C -0.304688 1.125 -0.359375 1.101562 -0.390625 1.0625 C -0.421875 1.019531 -0.4375 0.972656 -0.4375 0.921875 C -0.4375 0.867188 -0.421875 0.820312 -0.390625 0.78125 C -0.359375 0.738281 -0.304688 0.71875 -0.234375 0.71875 C 0.148438 0.71875 0.476562 0.597656 0.75 0.359375 C 1.019531 0.117188 1.238281 -0.195312 1.40625 -0.59375 C 1.570312 -0.988281 1.691406 -1.4375 1.765625 -1.9375 C 1.835938 -2.445312 1.875 -2.96875 1.875 -3.5 C 1.875 -4.03125 1.835938 -4.546875 1.765625 -5.046875 C 1.691406 -5.554688 1.570312 -6.007812 1.40625 -6.40625 C 1.238281 -6.800781 1.019531 -7.117188 0.75 -7.359375 C 0.476562 -7.597656 0.148438 -7.71875 -0.234375 -7.71875 C -0.304688 -7.71875 -0.359375 -7.738281 -0.390625 -7.78125 C -0.421875 -7.832031 -0.4375 -7.878906 -0.4375 -7.921875 C -0.4375 -7.972656 -0.421875 -8.019531 -0.390625 -8.0625 C -0.359375 -8.101562 -0.304688 -8.125 -0.234375 -8.125 C 0.078125 -8.125 0.359375 -8.0625 0.609375 -7.9375 C 0.859375 -7.820312 1.078125 -7.65625 1.265625 -7.4375 C 1.460938 -7.226562 1.628906 -6.976562 1.765625 -6.6875 C 1.898438 -6.394531 2.015625 -6.078125 2.109375 -5.734375 C 2.203125 -5.390625 2.269531 -5.023438 2.3125 -4.640625 C 2.351562 -4.265625 2.375 -3.882812 2.375 -3.5 Z M 2.375 -3.5 "/></g></g></g><g fill="#737373" fill-opacity="1"><g transform="translate(254.712059, 263.466955)"><g><path d="M 1.28125 0 C 1.21875 0 1.164062 0 1.125 0 C 1.09375 -0.0078125 1.066406 -0.0195312 1.046875 -0.03125 C 1.023438 -0.0507812 1.015625 -0.078125 1.015625 -0.109375 C 1.015625 -0.140625 1.015625 -0.179688 1.015625 -0.234375 L 1.015625 -6.65625 C 1.015625 -6.769531 1.03125 -6.867188 1.0625 -6.953125 C 1.101562 -7.035156 1.1875 -7.078125 1.3125 -7.078125 C 1.414062 -7.078125 1.484375 -7.03125 1.515625 -6.9375 C 1.546875 -6.851562 1.5625 -6.757812 1.5625 -6.65625 L 1.5625 -0.421875 L 7.015625 -0.421875 C 7.097656 -0.421875 7.160156 -0.394531 7.203125 -0.34375 C 7.242188 -0.300781 7.265625 -0.253906 7.265625 -0.203125 C 7.265625 -0.148438 7.242188 -0.101562 7.203125 -0.0625 C 7.160156 -0.0195312 7.097656 0 7.015625 0 Z M 1.28125 0 "/></g></g></g><g fill="#737373" fill-opacity="1"><g transform="translate(265.344936, 263.466955)"><g><path d="M 8.40625 -6.84375 C 8.40625 -6.75 8.375 -6.691406 8.3125 -6.671875 C 8.257812 -6.660156 8.1875 -6.65625 8.09375 -6.65625 L 4.546875 -6.65625 L 4.546875 -0.46875 C 4.546875 -0.40625 4.539062 -0.34375 4.53125 -0.28125 C 4.53125 -0.226562 4.519531 -0.179688 4.5 -0.140625 C 4.476562 -0.0976562 4.453125 -0.0625 4.421875 -0.03125 C 4.390625 -0.0078125 4.34375 0 4.28125 0 C 4.164062 0 4.085938 -0.046875 4.046875 -0.140625 C 4.015625 -0.234375 4 -0.34375 4 -0.46875 L 4 -6.65625 L 0.453125 -6.65625 C 0.359375 -6.65625 0.273438 -6.660156 0.203125 -6.671875 C 0.140625 -6.691406 0.109375 -6.75 0.109375 -6.84375 C 0.109375 -6.90625 0.125 -6.953125 0.15625 -6.984375 C 0.1875 -7.015625 0.222656 -7.035156 0.265625 -7.046875 C 0.316406 -7.054688 0.367188 -7.0625 0.421875 -7.0625 C 0.484375 -7.070312 0.535156 -7.078125 0.578125 -7.078125 L 7.953125 -7.078125 C 8.015625 -7.078125 8.070312 -7.070312 8.125 -7.0625 C 8.1875 -7.0625 8.234375 -7.054688 8.265625 -7.046875 C 8.304688 -7.035156 8.335938 -7.015625 8.359375 -6.984375 C 8.390625 -6.953125 8.40625 -6.90625 8.40625 -6.84375 Z M 8.40625 -6.84375 "/></g></g></g><g fill="#737373" fill-opacity="1"><g transform="translate(277.23427, 263.466955)"><g><path d="M 9.8125 -3.546875 C 9.8125 -2.867188 9.722656 -2.300781 9.546875 -1.84375 C 9.367188 -1.394531 9.101562 -1.03125 8.75 -0.75 C 8.40625 -0.476562 7.972656 -0.285156 7.453125 -0.171875 C 6.929688 -0.0546875 6.320312 0 5.625 0 L 1.265625 0 C 1.203125 0 1.15625 0 1.125 0 C 1.09375 0 1.066406 -0.00390625 1.046875 -0.015625 C 1.023438 -0.0351562 1.015625 -0.0625 1.015625 -0.09375 C 1.015625 -0.125 1.015625 -0.164062 1.015625 -0.21875 L 1.015625 -6.84375 C 1.015625 -6.90625 1.015625 -6.953125 1.015625 -6.984375 C 1.015625 -7.015625 1.023438 -7.035156 1.046875 -7.046875 C 1.066406 -7.054688 1.09375 -7.0625 1.125 -7.0625 C 1.164062 -7.070312 1.21875 -7.078125 1.28125 -7.078125 L 5.625 -7.078125 C 6.320312 -7.078125 6.929688 -7.015625 7.453125 -6.890625 C 7.972656 -6.773438 8.40625 -6.578125 8.75 -6.296875 C 9.101562 -6.023438 9.367188 -5.660156 9.546875 -5.203125 C 9.722656 -4.753906 9.8125 -4.203125 9.8125 -3.546875 Z M 9.28125 -3.546875 C 9.28125 -4.097656 9.21875 -4.566406 9.09375 -4.953125 C 8.96875 -5.347656 8.765625 -5.671875 8.484375 -5.921875 C 8.203125 -6.171875 7.828125 -6.351562 7.359375 -6.46875 C 6.898438 -6.59375 6.320312 -6.65625 5.625 -6.65625 L 1.5625 -6.65625 L 1.5625 -0.421875 L 5.625 -0.421875 C 6.320312 -0.421875 6.898438 -0.476562 7.359375 -0.59375 C 7.828125 -0.71875 8.203125 -0.90625 8.484375 -1.15625 C 8.765625 -1.40625 8.96875 -1.726562 9.09375 -2.125 C 9.21875 -2.519531 9.28125 -2.992188 9.28125 -3.546875 Z M 9.28125 -3.546875 "/></g></g></g><g fill="#02b2e8" fill-opacity="1"><g transform="translate(74.133562, 245.404453)"><g><path d="M 0.96875 -10.140625 L 0.96875 -12.421875 C 0.96875 -12.585938 1.007812 -12.742188 1.09375 -12.890625 C 1.1875 -13.046875 1.273438 -13.171875 1.359375 -13.265625 L 3.96875 -15.859375 C 4.226562 -16.117188 4.539062 -16.25 4.90625 -16.25 L 17.328125 -16.25 C 17.453125 -16.25 17.5625 -16.195312 17.65625 -16.09375 C 17.757812 -16 17.8125 -15.890625 17.8125 -15.765625 L 17.8125 -13.515625 C 17.8125 -13.390625 17.757812 -13.273438 17.65625 -13.171875 C 17.5625 -13.078125 17.453125 -13.03125 17.328125 -13.03125 L 5.8125 -13.03125 C 5.707031 -13.03125 5.546875 -12.941406 5.328125 -12.765625 L 4.609375 -12.125 C 4.460938 -11.96875 4.390625 -11.78125 4.390625 -11.5625 L 4.390625 -10.890625 C 4.390625 -10.773438 4.421875 -10.664062 4.484375 -10.5625 L 4.96875 -9.984375 C 5.125 -9.828125 5.3125 -9.75 5.53125 -9.75 L 15.5 -9.75 C 15.675781 -9.75 15.832031 -9.71875 15.96875 -9.65625 C 16.113281 -9.59375 16.238281 -9.503906 16.34375 -9.390625 L 18.296875 -7.5 C 18.554688 -7.289062 18.6875 -6.96875 18.6875 -6.53125 L 18.6875 -3.828125 C 18.6875 -3.679688 18.644531 -3.53125 18.5625 -3.375 C 18.488281 -3.226562 18.398438 -3.097656 18.296875 -2.984375 L 15.703125 -0.390625 C 15.441406 -0.128906 15.125 0 14.75 0 L 2.015625 0 C 1.878906 0 1.765625 -0.046875 1.671875 -0.140625 C 1.578125 -0.242188 1.53125 -0.359375 1.53125 -0.484375 L 1.53125 -2.734375 C 1.53125 -2.859375 1.578125 -2.96875 1.671875 -3.0625 C 1.765625 -3.164062 1.878906 -3.21875 2.015625 -3.21875 L 13.84375 -3.21875 C 13.945312 -3.21875 14.109375 -3.304688 14.328125 -3.484375 L 15.046875 -4.125 C 15.203125 -4.28125 15.28125 -4.46875 15.28125 -4.6875 L 15.28125 -5.453125 C 15.28125 -5.585938 15.242188 -5.695312 15.171875 -5.78125 L 14.6875 -6.375 C 14.539062 -6.519531 14.359375 -6.59375 14.140625 -6.59375 L 4.484375 -6.59375 C 4.328125 -6.59375 4.171875 -6.628906 4.015625 -6.703125 C 3.867188 -6.785156 3.742188 -6.867188 3.640625 -6.953125 L 1.359375 -9.171875 C 1.097656 -9.429688 0.96875 -9.753906 0.96875 -10.140625 Z M 0.96875 -10.140625 "/></g></g></g><g fill="#02b2e8" fill-opacity="1"><g transform="translate(99.383656, 245.404453)"><g><path d="M 21.609375 -16.25 C 21.742188 -16.25 21.859375 -16.195312 21.953125 -16.09375 C 22.046875 -16 22.09375 -15.890625 22.09375 -15.765625 L 22.09375 -13.328125 C 22.09375 -13.191406 22.046875 -13.078125 21.953125 -12.984375 C 21.859375 -12.890625 21.742188 -12.84375 21.609375 -12.84375 L 13.265625 -12.84375 L 13.265625 -0.484375 C 13.265625 -0.359375 13.210938 -0.242188 13.109375 -0.140625 C 13.015625 -0.046875 12.898438 0 12.765625 0 L 10.328125 0 C 10.203125 0 10.085938 -0.046875 9.984375 -0.140625 C 9.890625 -0.242188 9.84375 -0.359375 9.84375 -0.484375 L 9.84375 -12.84375 L 1.46875 -12.84375 C 1.332031 -12.84375 1.210938 -12.890625 1.109375 -12.984375 C 1.015625 -13.078125 0.96875 -13.191406 0.96875 -13.328125 L 0.96875 -15.765625 C 0.96875 -15.890625 1.015625 -16 1.109375 -16.09375 C 1.210938 -16.195312 1.332031 -16.25 1.46875 -16.25 Z M 21.609375 -16.25 "/></g></g></g><g fill="#02b2e8" fill-opacity="1"><g transform="translate(128.045828, 245.404453)"><g><path d="M 4.609375 -11.796875 C 4.460938 -11.640625 4.390625 -11.457031 4.390625 -11.25 L 4.390625 -9.84375 L 16.28125 -9.84375 C 16.414062 -9.84375 16.53125 -9.796875 16.625 -9.703125 C 16.71875 -9.609375 16.765625 -9.492188 16.765625 -9.359375 L 16.765625 -7.125 C 16.765625 -6.988281 16.71875 -6.867188 16.625 -6.765625 C 16.53125 -6.671875 16.414062 -6.625 16.28125 -6.625 L 4.390625 -6.625 L 4.390625 -4.9375 C 4.390625 -4.832031 4.421875 -4.722656 4.484375 -4.609375 L 5.625 -3.375 C 5.769531 -3.226562 5.953125 -3.15625 6.171875 -3.15625 L 17.875 -3.15625 C 18 -3.15625 18.109375 -3.101562 18.203125 -3 C 18.304688 -2.90625 18.359375 -2.796875 18.359375 -2.671875 L 18.359375 -0.484375 C 18.359375 -0.359375 18.304688 -0.242188 18.203125 -0.140625 C 18.109375 -0.046875 18 0 17.875 0 L 4.96875 0 C 4.644531 0 4.363281 -0.117188 4.125 -0.359375 L 1.359375 -3.0625 C 1.097656 -3.3125 0.96875 -3.632812 0.96875 -4.03125 L 0.96875 -12.25 C 0.96875 -12.425781 1.007812 -12.585938 1.09375 -12.734375 C 1.1875 -12.890625 1.273438 -13.007812 1.359375 -13.09375 L 4.125 -15.859375 C 4.382812 -16.117188 4.695312 -16.25 5.0625 -16.25 L 17.875 -16.25 C 18 -16.25 18.109375 -16.195312 18.203125 -16.09375 C 18.304688 -16 18.359375 -15.890625 18.359375 -15.765625 L 18.359375 -13.515625 C 18.359375 -13.390625 18.304688 -13.273438 18.203125 -13.171875 C 18.109375 -13.078125 18 -13.03125 17.875 -13.03125 L 6.140625 -13.03125 C 5.992188 -13.03125 5.832031 -12.941406 5.65625 -12.765625 Z M 4.609375 -11.796875 "/></g></g></g><g fill="#02b2e8" fill-opacity="1"><g transform="translate(152.970955, 245.404453)"><g><path d="M 33.1875 -12.609375 C 33.289062 -12.503906 33.375 -12.378906 33.4375 -12.234375 C 33.507812 -12.097656 33.546875 -11.941406 33.546875 -11.765625 L 33.546875 -0.484375 C 33.546875 -0.359375 33.492188 -0.242188 33.390625 -0.140625 C 33.296875 -0.046875 33.179688 0 33.046875 0 L 30.875 0 C 30.75 0 30.632812 -0.046875 30.53125 -0.140625 C 30.4375 -0.242188 30.390625 -0.359375 30.390625 -0.484375 L 30.390625 -10.796875 C 30.390625 -11.023438 30.3125 -11.207031 30.15625 -11.34375 L 28.53125 -12.9375 C 28.445312 -13 28.335938 -13.03125 28.203125 -13.03125 L 21.359375 -13.03125 C 21.242188 -13.03125 21.132812 -13 21.03125 -12.9375 L 19.46875 -11.46875 C 19.3125 -11.34375 19.234375 -11.160156 19.234375 -10.921875 L 19.234375 -0.484375 C 19.234375 -0.359375 19.1875 -0.242188 19.09375 -0.140625 C 19 -0.046875 18.882812 0 18.75 0 L 16.578125 0 C 16.441406 0 16.328125 -0.046875 16.234375 -0.140625 C 16.140625 -0.242188 16.09375 -0.359375 16.09375 -0.484375 L 16.09375 -10.921875 C 16.09375 -11.160156 16.015625 -11.34375 15.859375 -11.46875 L 14.296875 -12.9375 C 14.210938 -13 14.101562 -13.03125 13.96875 -13.03125 L 6.34375 -13.03125 C 6.226562 -13.03125 6.117188 -13 6.015625 -12.9375 L 4.359375 -11.3125 C 4.203125 -11.15625 4.125 -10.96875 4.125 -10.75 L 4.125 -0.484375 C 4.125 -0.359375 4.070312 -0.242188 3.96875 -0.140625 C 3.875 -0.046875 3.765625 0 3.640625 0 L 1.46875 0 C 1.332031 0 1.210938 -0.046875 1.109375 -0.140625 C 1.015625 -0.242188 0.96875 -0.359375 0.96875 -0.484375 L 0.96875 -11.765625 C 0.96875 -11.941406 1.003906 -12.097656 1.078125 -12.234375 C 1.160156 -12.378906 1.242188 -12.503906 1.328125 -12.609375 L 4.515625 -15.859375 C 4.773438 -16.117188 5.101562 -16.25 5.5 -16.25 L 14.71875 -16.25 C 15.15625 -16.25 15.484375 -16.117188 15.703125 -15.859375 L 17.6875 -13.84375 L 19.625 -15.859375 C 19.863281 -16.117188 20.191406 -16.25 20.609375 -16.25 L 29.015625 -16.25 C 29.410156 -16.25 29.738281 -16.117188 30 -15.859375 Z M 33.1875 -12.609375 "/></g></g></g><g fill="#a6a6a6" fill-opacity="1"><g transform="translate(187.499992, 245.404453)"><g><path d="M 0.96875 -4.15625 L 0.96875 -12.09375 C 0.96875 -12.414062 1.085938 -12.695312 1.328125 -12.9375 L 4.1875 -15.859375 C 4.445312 -16.117188 4.773438 -16.25 5.171875 -16.25 L 14.5 -16.25 C 14.882812 -16.25 15.207031 -16.117188 15.46875 -15.859375 L 18.328125 -12.9375 C 18.566406 -12.695312 18.6875 -12.414062 18.6875 -12.09375 L 18.6875 -4.15625 C 18.6875 -3.832031 18.566406 -3.550781 18.328125 -3.3125 L 15.46875 -0.390625 C 15.207031 -0.128906 14.882812 0 14.5 0 L 5.171875 0 C 4.773438 0 4.445312 -0.128906 4.1875 -0.390625 L 1.328125 -3.3125 C 1.085938 -3.550781 0.96875 -3.832031 0.96875 -4.15625 Z M 4.125 -5 C 4.125 -4.789062 4.203125 -4.609375 4.359375 -4.453125 L 5.390625 -3.484375 L 5.59375 -3.3125 C 5.65625 -3.25 5.765625 -3.21875 5.921875 -3.21875 L 13.75 -3.21875 C 13.875 -3.21875 13.984375 -3.25 14.078125 -3.3125 L 14.265625 -3.484375 L 15.3125 -4.453125 C 15.457031 -4.609375 15.53125 -4.789062 15.53125 -5 L 15.53125 -11.25 C 15.53125 -11.457031 15.457031 -11.640625 15.3125 -11.796875 L 14.265625 -12.765625 L 14.078125 -12.9375 C 13.984375 -13 13.875 -13.03125 13.75 -13.03125 L 5.921875 -13.03125 C 5.765625 -13.03125 5.65625 -13 5.59375 -12.9375 L 5.390625 -12.765625 L 4.359375 -11.796875 C 4.203125 -11.640625 4.125 -11.457031 4.125 -11.25 Z M 4.125 -5 "/></g></g></g><g fill="#a6a6a6" fill-opacity="1"><g transform="translate(212.750086, 245.404453)"><g><path d="M 18.296875 -7.078125 C 18.554688 -6.816406 18.6875 -6.492188 18.6875 -6.109375 L 18.6875 -3.546875 C 18.6875 -3.148438 18.554688 -2.820312 18.296875 -2.5625 L 16.015625 -0.359375 C 15.910156 -0.273438 15.785156 -0.191406 15.640625 -0.109375 C 15.503906 -0.0351562 15.347656 0 15.171875 0 L 1.46875 0 C 1.332031 0 1.210938 -0.046875 1.109375 -0.140625 C 1.015625 -0.242188 0.96875 -0.359375 0.96875 -0.484375 L 0.96875 -15.765625 C 0.96875 -15.890625 1.015625 -16 1.109375 -16.09375 C 1.210938 -16.195312 1.332031 -16.25 1.46875 -16.25 L 14.046875 -16.25 C 14.210938 -16.25 14.363281 -16.21875 14.5 -16.15625 C 14.644531 -16.09375 14.773438 -16.003906 14.890625 -15.890625 L 17.15625 -13.6875 C 17.414062 -13.425781 17.546875 -13.097656 17.546875 -12.703125 L 17.546875 -10.078125 C 17.546875 -9.679688 17.414062 -9.351562 17.15625 -9.09375 L 16.703125 -8.640625 Z M 13.1875 -13.09375 L 4.15625 -13.09375 L 4.15625 -9.6875 L 13.1875 -9.6875 C 13.425781 -9.6875 13.613281 -9.757812 13.75 -9.90625 L 14.234375 -10.5 C 14.296875 -10.601562 14.328125 -10.710938 14.328125 -10.828125 L 14.328125 -11.953125 C 14.328125 -12.085938 14.296875 -12.195312 14.234375 -12.28125 L 13.75 -12.875 C 13.613281 -13.019531 13.425781 -13.09375 13.1875 -13.09375 Z M 15.46875 -4.296875 L 15.46875 -5.359375 C 15.46875 -5.492188 15.4375 -5.601562 15.375 -5.6875 L 14.890625 -6.265625 C 14.753906 -6.421875 14.566406 -6.5 14.328125 -6.5 L 4.15625 -6.5 L 4.15625 -3.15625 L 14.328125 -3.15625 C 14.566406 -3.15625 14.753906 -3.226562 14.890625 -3.375 L 15.375 -3.96875 C 15.4375 -4.070312 15.46875 -4.179688 15.46875 -4.296875 Z M 15.46875 -4.296875 "/></g></g></g><g fill="#a6a6a6" fill-opacity="1"><g transform="translate(238.00018, 245.404453)"><g><path d="M 1.46875 0 C 1.332031 0 1.210938 -0.046875 1.109375 -0.140625 C 1.015625 -0.242188 0.96875 -0.359375 0.96875 -0.484375 L 0.96875 -15.765625 C 0.96875 -15.890625 1.015625 -16 1.109375 -16.09375 C 1.210938 -16.195312 1.332031 -16.25 1.46875 -16.25 L 3.90625 -16.25 C 4.03125 -16.25 4.140625 -16.195312 4.234375 -16.09375 C 4.335938 -16 4.390625 -15.890625 4.390625 -15.765625 L 4.390625 -0.484375 C 4.390625 -0.359375 4.335938 -0.242188 4.234375 -0.140625 C 4.140625 -0.046875 4.03125 0 3.90625 0 Z M 1.46875 0 "/></g></g></g><g fill="#a6a6a6" fill-opacity="1"><g transform="translate(248.952015, 245.404453)"><g><path d="M 0.96875 -15.765625 C 0.96875 -15.890625 1.015625 -16 1.109375 -16.09375 C 1.210938 -16.195312 1.332031 -16.25 1.46875 -16.25 L 3.90625 -16.25 C 4.03125 -16.25 4.140625 -16.195312 4.234375 -16.09375 C 4.335938 -16 4.390625 -15.890625 4.390625 -15.765625 L 4.390625 -5.171875 C 4.390625 -4.953125 4.460938 -4.765625 4.609375 -4.609375 L 5.8125 -3.484375 C 5.988281 -3.304688 6.15625 -3.21875 6.3125 -3.21875 L 17.21875 -3.21875 C 17.351562 -3.21875 17.46875 -3.164062 17.5625 -3.0625 C 17.664062 -2.96875 17.71875 -2.859375 17.71875 -2.734375 L 17.71875 -0.484375 C 17.71875 -0.359375 17.664062 -0.242188 17.5625 -0.140625 C 17.46875 -0.046875 17.351562 0 17.21875 0 L 5.234375 0 C 4.867188 0 4.554688 -0.128906 4.296875 -0.390625 L 1.359375 -3.3125 C 1.273438 -3.425781 1.1875 -3.554688 1.09375 -3.703125 C 1.007812 -3.859375 0.96875 -4.007812 0.96875 -4.15625 Z M 0.96875 -15.765625 "/></g></g></g><g fill="#a6a6a6" fill-opacity="1"><g transform="translate(273.22722, 245.404453)"><g><path d="M 4.609375 -11.796875 C 4.460938 -11.640625 4.390625 -11.457031 4.390625 -11.25 L 4.390625 -9.84375 L 16.28125 -9.84375 C 16.414062 -9.84375 16.53125 -9.796875 16.625 -9.703125 C 16.71875 -9.609375 16.765625 -9.492188 16.765625 -9.359375 L 16.765625 -7.125 C 16.765625 -6.988281 16.71875 -6.867188 16.625 -6.765625 C 16.53125 -6.671875 16.414062 -6.625 16.28125 -6.625 L 4.390625 -6.625 L 4.390625 -4.9375 C 4.390625 -4.832031 4.421875 -4.722656 4.484375 -4.609375 L 5.625 -3.375 C 5.769531 -3.226562 5.953125 -3.15625 6.171875 -3.15625 L 17.875 -3.15625 C 18 -3.15625 18.109375 -3.101562 18.203125 -3 C 18.304688 -2.90625 18.359375 -2.796875 18.359375 -2.671875 L 18.359375 -0.484375 C 18.359375 -0.359375 18.304688 -0.242188 18.203125 -0.140625 C 18.109375 -0.046875 18 0 17.875 0 L 4.96875 0 C 4.644531 0 4.363281 -0.117188 4.125 -0.359375 L 1.359375 -3.0625 C 1.097656 -3.3125 0.96875 -3.632812 0.96875 -4.03125 L 0.96875 -12.25 C 0.96875 -12.425781 1.007812 -12.585938 1.09375 -12.734375 C 1.1875 -12.890625 1.273438 -13.007812 1.359375 -13.09375 L 4.125 -15.859375 C 4.382812 -16.117188 4.695312 -16.25 5.0625 -16.25 L 17.875 -16.25 C 18 -16.25 18.109375 -16.195312 18.203125 -16.09375 C 18.304688 -16 18.359375 -15.890625 18.359375 -15.765625 L 18.359375 -13.515625 C 18.359375 -13.390625 18.304688 -13.273438 18.203125 -13.171875 C 18.109375 -13.078125 18 -13.03125 17.875 -13.03125 L 6.140625 -13.03125 C 5.992188 -13.03125 5.832031 -12.941406 5.65625 -12.765625 Z M 4.609375 -11.796875 "/></g></g></g></svg>